<svg aria-hidden="true" style="position: absolute; width: 0; height: 0; overflow: hidden;" version="1.1" xmlns="http://www.w3.org/2000/svg" xmlns:xlink="http://www.w3.org/1999/xlink">
<defs>
<symbol id="icon-arrow_2" viewBox="0 0 32 32">
<path d="M19.124 2.575l12.876 12.876-12.876 12.876-2.286-2.285 10.59-10.59-10.59-10.59 2.286-2.285z"></path>
</symbol>
<symbol id="icon-arrow_1" viewBox="0 0 32 32">
<path d="M12.876 28.327l-12.876-12.876 12.876-12.876 2.286 2.285-10.59 10.59 10.59 10.59-2.286 2.286z"></path>
</symbol>
<symbol id="icon-pin_drop-green" viewBox="0 0 32 32">
<path fill="#33beb7" style="fill: var(--color1, #33beb7)" d="M16 25.333c-3.133-2.311-5.472-4.556-7.017-6.733s-2.316-4.311-2.316-6.4c0-1.578 0.284-2.961 0.851-4.151s1.294-2.183 2.183-2.983 1.889-1.4 3-1.8c1.111-0.4 2.211-0.6 3.3-0.6s2.189 0.2 3.3 0.6c1.111 0.4 2.111 1 3 1.8s1.617 1.794 2.184 2.983c0.566 1.189 0.849 2.573 0.849 4.151 0 2.089-0.772 4.222-2.317 6.4s-3.883 4.422-7.016 6.733zM16 14.667c0.733 0 1.361-0.261 1.884-0.784s0.783-1.149 0.783-1.883-0.261-1.361-0.783-1.884c-0.523-0.522-1.151-0.783-1.884-0.783s-1.361 0.261-1.883 0.783c-0.523 0.523-0.784 1.151-0.784 1.884s0.261 1.361 0.784 1.883c0.522 0.523 1.149 0.784 1.883 0.784zM6.667 29.333v-2.667h18.667v2.667h-18.667z"></path>
</symbol>
<symbol id="icon-faq_forpartners" viewBox="0 0 32 32">
<path d="M15.832 26.666c0.089 0 0.178-0.022 0.267-0.067s0.156-0.089 0.2-0.133l10.933-10.933c0.267-0.267 0.461-0.567 0.584-0.9s0.183-0.667 0.183-1c0-0.356-0.061-0.695-0.183-1.017s-0.317-0.605-0.584-0.849l-5.667-5.667c-0.244-0.267-0.528-0.461-0.849-0.584s-0.662-0.183-1.017-0.183c-0.333 0-0.667 0.061-1 0.183s-0.633 0.317-0.9 0.584l-0.367 0.367 2.467 2.5c0.333 0.311 0.578 0.667 0.733 1.067s0.233 0.822 0.233 1.267c0 0.933-0.316 1.716-0.949 2.349-0.634 0.634-1.417 0.951-2.351 0.951-0.444 0-0.872-0.078-1.283-0.233s-0.773-0.389-1.084-0.7l-2.5-2.467-5.833 5.833c-0.067 0.067-0.117 0.139-0.151 0.217s-0.049 0.16-0.049 0.249c0 0.178 0.067 0.339 0.2 0.483s0.289 0.217 0.467 0.217c0.089 0 0.178-0.022 0.267-0.067s0.156-0.089 0.2-0.133l4.533-4.533 1.867 1.867-4.5 4.533c-0.067 0.067-0.117 0.139-0.151 0.216s-0.049 0.162-0.049 0.251c0 0.178 0.067 0.333 0.2 0.467s0.289 0.2 0.467 0.2c0.089 0 0.178-0.022 0.267-0.067s0.156-0.089 0.2-0.133l4.533-4.5 1.867 1.867-4.5 4.533c-0.067 0.044-0.116 0.111-0.149 0.2s-0.051 0.178-0.051 0.267c0 0.178 0.067 0.333 0.2 0.467s0.289 0.2 0.467 0.2c0.089 0 0.172-0.017 0.251-0.051s0.149-0.083 0.216-0.149l4.533-4.5 1.867 1.867-4.533 4.533c-0.067 0.067-0.116 0.139-0.149 0.216s-0.051 0.162-0.051 0.251c0 0.178 0.072 0.333 0.217 0.467s0.305 0.2 0.483 0.2zM15.799 29.333c-0.822 0-1.55-0.272-2.183-0.817s-1.006-1.227-1.117-2.049c-0.756-0.111-1.389-0.422-1.9-0.933s-0.822-1.144-0.933-1.9c-0.756-0.111-1.383-0.428-1.883-0.949s-0.806-1.151-0.917-1.884c-0.844-0.111-1.533-0.478-2.067-1.1s-0.8-1.356-0.8-2.2c0-0.444 0.084-0.872 0.251-1.284 0.166-0.411 0.405-0.771 0.716-1.083l7.733-7.7 4.367 4.367c0.044 0.067 0.111 0.116 0.2 0.149s0.178 0.051 0.267 0.051c0.2 0 0.367-0.061 0.5-0.183s0.2-0.284 0.2-0.484c0-0.089-0.016-0.178-0.049-0.267s-0.084-0.156-0.151-0.2l-4.767-4.767c-0.244-0.267-0.528-0.461-0.851-0.584s-0.66-0.183-1.016-0.183c-0.333 0-0.667 0.061-1 0.183s-0.633 0.317-0.9 0.584l-4.7 4.733c-0.2 0.2-0.367 0.433-0.5 0.7s-0.222 0.533-0.267 0.8c-0.044 0.267-0.044 0.539 0 0.816s0.133 0.54 0.267 0.784l-1.933 1.933c-0.378-0.511-0.656-1.072-0.833-1.684s-0.244-1.227-0.2-1.849 0.2-1.228 0.467-1.817c0.267-0.588 0.633-1.116 1.1-1.583l4.7-4.7c0.533-0.511 1.128-0.9 1.784-1.167s1.327-0.4 2.016-0.4 1.361 0.133 2.016 0.4c0.656 0.267 1.24 0.656 1.751 1.167l0.367 0.367 0.367-0.367c0.533-0.511 1.128-0.9 1.783-1.167s1.328-0.4 2.017-0.4c0.689 0 1.361 0.133 2.017 0.4s1.238 0.656 1.749 1.167l5.633 5.633c0.511 0.511 0.9 1.1 1.167 1.767s0.4 1.344 0.4 2.033c0 0.689-0.133 1.361-0.4 2.016s-0.656 1.24-1.167 1.751l-10.933 10.9c-0.311 0.311-0.672 0.556-1.084 0.733s-0.838 0.267-1.283 0.267z"></path>
</symbol>
<symbol id="icon-faq_foremployers" viewBox="0 0 32 32">
<path d="M10.666 8v-2.667c0-0.733 0.261-1.361 0.784-1.884s1.149-0.783 1.883-0.783h5.333c0.733 0 1.361 0.261 1.884 0.783s0.783 1.151 0.783 1.884v2.667h5.333c0.733 0 1.361 0.261 1.884 0.784s0.783 1.149 0.783 1.883v14.667c0 0.733-0.261 1.361-0.783 1.884s-1.151 0.783-1.884 0.783h-21.333c-0.733 0-1.361-0.261-1.883-0.783s-0.784-1.151-0.784-1.884v-14.667c0-0.733 0.261-1.361 0.784-1.883s1.149-0.784 1.883-0.784h5.333zM13.332 8h5.333v-2.667h-5.333v2.667zM26.666 20h-6.667v2.667h-8v-2.667h-6.667v5.333h21.333v-5.333zM14.666 20h2.667v-2.667h-2.667v2.667zM5.332 17.333h6.667v-2.667h8v2.667h6.667v-6.667h-21.333v6.667z"></path>
</symbol>
<symbol id="icon-faq_foremployees" viewBox="0 0 32 32">
<path d="M7.799 22.8c1.133-0.867 2.4-1.55 3.8-2.051s2.867-0.749 4.4-0.749c1.533 0 3 0.25 4.4 0.749s2.667 1.184 3.8 2.051c0.778-0.911 1.384-1.944 1.817-3.1s0.649-2.389 0.649-3.7c0-2.956-1.039-5.472-3.116-7.551s-4.595-3.116-7.551-3.116c-2.956 0-5.472 1.039-7.549 3.116s-3.117 4.595-3.117 7.551c0 1.311 0.217 2.544 0.651 3.7s1.038 2.189 1.816 3.1zM15.999 17.333c-1.311 0-2.417-0.45-3.317-1.349s-1.349-2.006-1.349-3.317 0.45-2.417 1.349-3.317c0.9-0.9 2.006-1.349 3.317-1.349s2.417 0.45 3.317 1.349c0.9 0.9 1.349 2.006 1.349 3.317s-0.45 2.417-1.349 3.317c-0.9 0.9-2.006 1.349-3.317 1.349zM15.999 29.333c-1.844 0-3.578-0.35-5.2-1.051s-3.033-1.649-4.233-2.849-2.15-2.611-2.849-4.233c-0.7-1.622-1.051-3.356-1.051-5.2s0.35-3.578 1.051-5.2c0.7-1.622 1.649-3.033 2.849-4.233s2.611-2.15 4.233-2.851c1.622-0.7 3.356-1.049 5.2-1.049s3.578 0.35 5.2 1.049c1.622 0.7 3.033 1.651 4.233 2.851s2.15 2.611 2.849 4.233c0.7 1.622 1.051 3.356 1.051 5.2s-0.35 3.578-1.051 5.2c-0.7 1.622-1.649 3.033-2.849 4.233s-2.611 2.15-4.233 2.849c-1.622 0.7-3.356 1.051-5.2 1.051zM15.999 26.666c1.178 0 2.289-0.172 3.333-0.516s2-0.84 2.867-1.484c-0.867-0.644-1.822-1.139-2.867-1.484s-2.156-0.516-3.333-0.516c-1.178 0-2.289 0.172-3.333 0.516s-2 0.84-2.867 1.484c0.867 0.644 1.822 1.139 2.867 1.484s2.156 0.516 3.333 0.516zM15.999 14.666c0.578 0 1.056-0.189 1.433-0.567s0.567-0.856 0.567-1.433c0-0.578-0.189-1.056-0.567-1.433s-0.856-0.567-1.433-0.567c-0.578 0-1.056 0.189-1.433 0.567s-0.567 0.856-0.567 1.433c0 0.578 0.189 1.056 0.567 1.433s0.856 0.567 1.433 0.567z"></path>
</symbol>
<symbol id="icon-faq_basic" viewBox="0 0 32 32">
<path d="M6.667 28c-0.733 0-1.361-0.261-1.884-0.783s-0.783-1.151-0.783-1.884v-18.667c0-0.733 0.261-1.361 0.783-1.884s1.151-0.783 1.884-0.783h14.667l6.667 6.667v14.667c0 0.733-0.261 1.361-0.783 1.884s-1.151 0.783-1.884 0.783h-18.667zM6.667 25.333h18.667v-13.333h-5.333v-5.333h-13.333v18.667zM9.333 22.667h13.333v-2.667h-13.333v2.667zM9.333 12h6.667v-2.667h-6.667v2.667zM9.333 17.333h13.333v-2.667h-13.333v2.667z"></path>
</symbol>
<symbol id="icon-signal_cellular_alt" viewBox="0 0 32 32">
<path fill="#33beb7" style="fill: var(--color1, #33beb7)" d="M6.667 26.667v-8h4v8h-4zM14.667 26.667v-14.667h4v14.667h-4zM22.667 26.667v-21.333h4v21.333h-4z"></path>
</symbol>
<symbol id="icon-play_circle1" viewBox="0 0 32 32">
<path fill="#fff" style="fill: var(--color2, #fff)" d="M12.469 21.656l9.187-5.906-9.188-5.906v11.813zM15.75 28.875c-1.816 0-3.522-0.345-5.119-1.034s-2.986-1.623-4.167-2.805c-1.181-1.181-2.116-2.57-2.805-4.167s-1.034-3.303-1.034-5.119c0-1.816 0.345-3.522 1.034-5.119s1.624-2.986 2.805-4.167 2.57-2.117 4.167-2.806c1.597-0.689 3.303-1.033 5.119-1.033s3.522 0.344 5.119 1.033c1.597 0.69 2.986 1.625 4.167 2.806s2.116 2.57 2.805 4.167c0.689 1.597 1.034 3.303 1.034 5.119s-0.345 3.522-1.034 5.119c-0.689 1.597-1.624 2.986-2.805 4.167s-2.57 2.116-4.167 2.805c-1.597 0.689-3.303 1.034-5.119 1.034z"></path>
</symbol>
<symbol id="icon-video-play" viewBox="0 0 32 32">
<path fill="#fff" style="fill: var(--color2, #fff)" d="M32 16c0 8.837-7.163 16-16 16s-16-7.163-16-16c0-8.837 7.163-16 16-16s16 7.163 16 16z"></path>
<path fill="#007834" style="fill: var(--color3, #007834)" d="M13.913 11.13v10.435l6.783-5.391z"></path>
</symbol>
<symbol id="icon-icons-16-px-16-020" viewBox="0 0 32 32">
<path d="M14.632 15.676l8.382-8.296-2.942-2.69-11.058 10.986 11.058 11.014 2.942-2.69z"></path>
</symbol>
<symbol id="icon-error_circle_rounded-white" viewBox="0 0 32 32">
<path fill="#fff" style="fill: var(--color2, #fff)" d="M16 24c0.453 0 0.834-0.154 1.141-0.461 0.306-0.306 0.459-0.686 0.459-1.139s-0.153-0.834-0.459-1.141c-0.307-0.306-0.688-0.459-1.141-0.459s-0.833 0.153-1.139 0.459c-0.307 0.307-0.461 0.688-0.461 1.141s0.154 0.833 0.461 1.139c0.306 0.307 0.686 0.461 1.139 0.461zM16 32c-2.213 0-4.293-0.42-6.24-1.261s-3.64-1.979-5.080-3.419-2.58-3.133-3.419-5.080c-0.841-1.947-1.261-4.027-1.261-6.24s0.42-4.293 1.261-6.24c0.839-1.947 1.979-3.64 3.419-5.080s3.133-2.58 5.080-3.421c1.947-0.839 4.027-1.259 6.24-1.259s4.293 0.42 6.24 1.259c1.947 0.841 3.64 1.981 5.080 3.421s2.58 3.133 3.419 5.080c0.84 1.947 1.261 4.027 1.261 6.24s-0.42 4.293-1.261 6.24c-0.84 1.947-1.979 3.64-3.419 5.080s-3.133 2.58-5.080 3.419c-1.947 0.84-4.027 1.261-6.24 1.261zM16 17.6c0.453 0 0.834-0.154 1.141-0.461 0.306-0.306 0.459-0.686 0.459-1.139v-6.4c0-0.453-0.153-0.834-0.459-1.141-0.307-0.306-0.688-0.459-1.141-0.459s-0.833 0.153-1.139 0.459c-0.307 0.307-0.461 0.687-0.461 1.141v6.4c0 0.453 0.154 0.833 0.461 1.139 0.306 0.307 0.686 0.461 1.139 0.461z"></path>
</symbol>
<symbol id="icon-check_circle" viewBox="0 0 32 32">
<path fill="#35b6b4" style="fill: var(--color4, #35b6b4)" d="M15.122 16.172l4.424-4.424-0.878-0.878-3.545 3.545-1.788-1.788-0.878 0.878 2.667 2.667zM16 19.56c-0.868 0-1.684-0.165-2.447-0.494s-1.427-0.776-1.992-1.341-1.012-1.229-1.341-1.992c-0.33-0.763-0.494-1.579-0.494-2.447s0.165-1.684 0.494-2.447c0.329-0.763 0.776-1.427 1.341-1.992s1.229-1.012 1.992-1.341c0.763-0.329 1.579-0.494 2.447-0.494s1.684 0.165 2.447 0.494c0.763 0.33 1.427 0.777 1.992 1.341s1.012 1.229 1.341 1.992c0.33 0.763 0.494 1.579 0.494 2.447s-0.165 1.684-0.494 2.447c-0.329 0.763-0.776 1.427-1.341 1.992s-1.229 1.012-1.992 1.341c-0.763 0.33-1.579 0.494-2.447 0.494z"></path>
</symbol>
<symbol id="icon-check_small" viewBox="0 0 32 32">
<path fill="#33beb7" style="fill: var(--color1, #33beb7)" d="M32 16c0 8.837-7.163 16-16 16s-16-7.163-16-16c0-8.837 7.163-16 16-16s16 7.163 16 16z"></path>
<path fill="none" stroke="#fff" style="stroke: var(--color2, #fff)" stroke-linejoin="round" stroke-linecap="round" stroke-miterlimit="4" stroke-width="4.8" d="M21.632 12.8l-8.288 8.288-3.744-3.744"></path>
</symbol>
<symbol id="icon-check-green" viewBox="0 0 35 32">
<path fill="none" stroke="#119a72" style="stroke: var(--color5, #119a72)" stroke-linejoin="miter" stroke-linecap="butt" stroke-miterlimit="4" stroke-width="2.1333" d="M31.366 17.494c-0.767 7.366-7.165 13.114-14.94 13.114-8.293 0-15.018-6.54-15.018-14.609s6.723-14.609 15.018-14.609c2.151 0 4.197 0.44 6.049 1.233"></path>
<path fill="none" stroke="#119a72" style="stroke: var(--color5, #119a72)" stroke-linejoin="miter" stroke-linecap="butt" stroke-miterlimit="4" stroke-width="2.1333" d="M32.944 4.313l-16.519 16.070-6.009-5.844"></path>
</symbol>
<symbol id="icon-close" viewBox="0 0 32 32">
<path fill="#aaa" style="fill: var(--color6, #aaa)" d="M8.533 25.333l-1.867-1.867 7.467-7.467-7.467-7.467 1.867-1.867 7.467 7.467 7.467-7.467 1.867 1.867-7.467 7.467 7.467 7.467-1.867 1.867-7.467-7.467-7.467 7.467z"></path>
</symbol>
<symbol id="icon-faq" viewBox="0 0 32 32">
<path fill="#3642ae" style="fill: var(--color7, #3642ae)" d="M29.714 16c0 7.574-6.14 13.714-13.714 13.714s-13.714-6.14-13.714-13.714c0-7.574 6.14-13.714 13.714-13.714s13.714 6.14 13.714 13.714z"></path>
<path fill="none" stroke="#fff" style="stroke: var(--color2, #fff)" stroke-linejoin="miter" stroke-linecap="butt" stroke-miterlimit="4" stroke-width="2.2857" d="M11.429 16h9.143"></path>
</symbol>
<symbol id="icon-faq2" viewBox="0 0 32 32">
<path fill="#3642ae" style="fill: var(--color7, #3642ae)" d="M16.001 29.333c-1.844 0-3.578-0.35-5.2-1.051s-3.033-1.649-4.233-2.849-2.15-2.611-2.849-4.233c-0.7-1.622-1.051-3.356-1.051-5.2s0.35-3.578 1.051-5.2c0.7-1.622 1.649-3.033 2.849-4.233s2.611-2.15 4.233-2.851c1.622-0.7 3.356-1.049 5.2-1.049s3.578 0.35 5.2 1.049c1.622 0.7 3.033 1.651 4.233 2.851s2.15 2.611 2.849 4.233c0.7 1.622 1.051 3.356 1.051 5.2s-0.35 3.578-1.051 5.2c-0.7 1.622-1.649 3.033-2.849 4.233s-2.611 2.15-4.233 2.849c-1.622 0.7-3.356 1.051-5.2 1.051zM16.001 26.666c2.978 0 5.5-1.033 7.567-3.1s3.1-4.589 3.1-7.567c0-2.978-1.033-5.5-3.1-7.567s-4.589-3.1-7.567-3.1c-2.978 0-5.5 1.033-7.567 3.1s-3.1 4.589-3.1 7.567c0 2.978 1.033 5.5 3.1 7.567s4.589 3.1 7.567 3.1z"></path>
<path fill="none" stroke="#3642ae" style="stroke: var(--color7, #3642ae)" stroke-linejoin="miter" stroke-linecap="butt" stroke-miterlimit="4" stroke-width="2.2857" d="M10.286 16h11.429"></path>
<path fill="none" stroke="#3642ae" style="stroke: var(--color7, #3642ae)" stroke-linejoin="miter" stroke-linecap="butt" stroke-miterlimit="4" stroke-width="2.2857" d="M16 21.714v-11.429"></path>
</symbol>
<symbol id="icon-footer-call" viewBox="0 0 32 32">
<path fill="#d4d4d4" style="fill: var(--color8, #d4d4d4)" d="M26.6 27.882c-2.867 0-5.661-0.635-8.383-1.905s-5.134-2.948-7.233-5.035c-2.1-2.086-3.789-4.482-5.067-7.188s-1.917-5.481-1.917-8.33c0-0.397 0.133-0.729 0.4-0.994s0.6-0.397 1-0.397h5.4c0.311 0 0.589 0.099 0.833 0.298s0.389 0.453 0.433 0.762l0.867 4.637c0.044 0.309 0.039 0.591-0.016 0.844s-0.184 0.481-0.384 0.68l-3.233 3.246c0.933 1.59 2.106 3.081 3.517 4.472s2.96 2.595 4.649 3.611l3.133-3.114c0.2-0.199 0.461-0.348 0.784-0.448s0.638-0.126 0.949-0.082l4.6 0.927c0.311 0.066 0.567 0.215 0.767 0.446 0.2 0.232 0.3 0.503 0.3 0.812v5.366c0 0.398-0.133 0.729-0.4 0.994s-0.6 0.397-1 0.397zM8.033 11.982l2.2-2.186-0.567-3.114h-2.967c0.111 0.905 0.267 1.8 0.467 2.683s0.489 1.756 0.867 2.617zM25.333 25.166v-2.915l-3.133-0.629-2.233 2.219c0.867 0.375 1.75 0.673 2.651 0.894 0.899 0.221 1.805 0.364 2.716 0.431z"></path>
</symbol>
<symbol id="icon-footer-mail" viewBox="0 0 30 32">
<path fill="#d4d4d4" style="fill: var(--color8, #d4d4d4)" d="M5.020 26.312c-0.69 0-1.281-0.244-1.772-0.732s-0.738-1.076-0.738-1.762v-14.965c0-0.686 0.246-1.273 0.738-1.761s1.082-0.733 1.772-0.733h20.078c0.69 0 1.281 0.244 1.773 0.733s0.737 1.075 0.737 1.761v14.965c0 0.686-0.245 1.273-0.737 1.762s-1.083 0.732-1.773 0.732h-20.078zM15.059 17.583l-10.039-6.235v12.47h20.078v-12.47l-10.039 6.235zM15.059 15.089l10.039-6.235h-20.078l10.039 6.235zM5.020 11.348v0z"></path>
</symbol>
<symbol id="icon-footer-pin_drop" viewBox="0 0 30 32">
<path fill="#d4d4d4" style="fill: var(--color8, #d4d4d4)" d="M15.059 21.316c2.071-1.663 3.634-3.263 4.691-4.801s1.584-2.982 1.584-4.333c0-1.164-0.214-2.157-0.642-2.978s-0.958-1.486-1.585-1.995c-0.628-0.509-1.307-0.877-2.039-1.106s-1.401-0.343-2.008-0.343c-0.607 0-1.276 0.114-2.008 0.343s-1.412 0.597-2.039 1.106c-0.627 0.51-1.155 1.175-1.584 1.995s-0.644 1.814-0.644 2.978c0 1.351 0.528 2.795 1.584 4.333s2.62 3.138 4.691 4.801zM15.059 24.464c-2.949-2.162-5.151-4.261-6.605-6.297s-2.18-4.032-2.18-5.986c0-1.476 0.267-2.77 0.801-3.882s1.218-2.041 2.054-2.79 1.778-1.309 2.824-1.683c1.046-0.374 2.081-0.561 3.106-0.561s2.060 0.187 3.106 0.561c1.046 0.374 1.987 0.935 2.824 1.683s1.522 1.678 2.056 2.79c0.533 1.112 0.799 2.406 0.799 3.882 0 1.954-0.727 3.949-2.181 5.986s-3.654 4.136-6.603 6.297zM15.059 14.488c0.69 0 1.281-0.244 1.773-0.733s0.737-1.075 0.737-1.761-0.246-1.273-0.737-1.762c-0.492-0.488-1.083-0.732-1.773-0.732s-1.281 0.244-1.772 0.732c-0.492 0.489-0.738 1.076-0.738 1.762s0.246 1.273 0.738 1.761c0.491 0.489 1.082 0.733 1.772 0.733zM6.275 28.206v-2.494h17.569v2.494h-17.569z"></path>
</symbol>
<symbol id="icon-form-info" viewBox="0 0 32 32">
<path fill="none" stroke="#1a1a1a" style="stroke: var(--color9, #1a1a1a)" stroke-linejoin="miter" stroke-linecap="butt" stroke-miterlimit="4" stroke-width="2" d="M31 16c0 8.284-6.716 15-15 15s-15-6.716-15-15c0-8.284 6.716-15 15-15s15 6.716 15 15z"></path>
<path d="M18.794 9.376c0-1.652-1.34-2.99-2.99-2.99h-0.020c-1.651 0-2.99 1.339-2.99 2.99s1.339 2.99 2.99 2.99v0h0.020c1.652 0 2.99-1.34 2.99-2.99zM18.794 32v-14.892c0-1.325-1.075-2.4-2.4-2.4v0h-1.2c-1.325 0-2.4 1.075-2.4 2.4v0 14.892h6z"></path>
</symbol>
<symbol id="icon-form-tooltip" viewBox="0 0 32 32">
<path d="M16 32c-8.837 0-16-7.163-16-16s7.163-16 16-16v0c8.837 0 16 7.163 16 16s-7.163 16-16 16v0zM14.164 19.93h3.352c0-0.002 0-0.004 0-0.006 0-0.524 0.090-1.028 0.256-1.495l-0.010 0.031c0.148-0.386 0.414-0.764 0.798-1.13l1.346-1.254c0.572-0.556 0.986-1.1 1.242-1.63 0.245-0.503 0.388-1.094 0.388-1.719 0-0.017-0-0.034-0-0.051l0 0.003c0-1.486-0.48-2.63-1.436-3.434-0.956-0.806-2.306-1.208-4.048-1.208-1.75 0-3.11 0.436-4.080 1.308-0.968 0.87-1.46 2.086-1.476 3.65h3.96c0.018-0.586 0.17-1.052 0.46-1.396 0.261-0.315 0.653-0.515 1.091-0.515 0.016 0 0.031 0 0.047 0.001l-0.002-0c1.014 0 1.522 0.59 1.522 1.768 0 0.486-0.15 0.928-0.45 1.33-0.3 0.404-0.74 0.846-1.32 1.332-0.576 0.484-0.994 1.056-1.252 1.716-0.26 0.66-0.388 1.56-0.388 2.7zM13.684 23.494c0 0.578 0.21 1.052 0.628 1.424 0.418 0.37 0.94 0.556 1.564 0.556s1.146-0.186 1.564-0.556c0.385-0.335 0.627-0.827 0.627-1.374 0-0.017-0-0.035-0.001-0.052l0 0.003c0-0.015 0.001-0.032 0.001-0.050 0-0.548-0.242-1.039-0.625-1.372l-0.002-0.002c-0.396-0.346-0.918-0.557-1.49-0.557-0.026 0-0.052 0-0.078 0.001l0.004-0c-0.626 0-1.146 0.184-1.564 0.556-0.386 0.336-0.629 0.827-0.629 1.376 0 0.017 0 0.034 0.001 0.051l-0-0.002z"></path>
</symbol>
<symbol id="icon-hamburger-menu" viewBox="0 0 41 32">
<path fill="#3642ae" style="fill: var(--color7, #3642ae)" d="M2.909 1.455h34.909c1.607 0 2.909 1.302 2.909 2.909s-1.302 2.909-2.909 2.909h-34.909c-1.607 0-2.909-1.302-2.909-2.909s1.302-2.909 2.909-2.909z"></path>
<path fill="#3642ae" style="fill: var(--color7, #3642ae)" d="M2.909 13.091h34.909c1.607 0 2.909 1.302 2.909 2.909s-1.302 2.909-2.909 2.909h-34.909c-1.607 0-2.909-1.302-2.909-2.909s1.302-2.909 2.909-2.909z"></path>
<path fill="#3642ae" style="fill: var(--color7, #3642ae)" d="M2.909 24.727h34.909c1.607 0 2.909 1.302 2.909 2.909s-1.302 2.909-2.909 2.909h-34.909c-1.607 0-2.909-1.302-2.909-2.909s1.302-2.909 2.909-2.909z"></path>
</symbol>
<symbol id="icon-hamburger-menu-closed" viewBox="0 0 41 32">
<path fill="#fff" style="fill: var(--color2, #fff)" d="M10.784 2.057l24.684 24.684c1.136 1.136 1.136 2.978 0 4.114s-2.978 1.136-4.114 0l-24.684-24.684c-1.136-1.136-1.136-2.978 0-4.114s2.978-1.136 4.114 0z"></path>
<path fill="#fff" style="fill: var(--color2, #fff)" d="M6.42 26.742l24.684-24.684c1.136-1.136 2.978-1.136 4.114 0s1.136 2.978 0 4.114l-24.684 24.684c-1.136 1.136-2.978 1.136-4.114 0s-1.136-2.978 0-4.114z"></path>
</symbol>
<symbol id="icon-hamburger-menu-white" viewBox="0 0 41 32">
<path fill="#fff" style="fill: var(--color2, #fff)" d="M2.909 1.455h34.909c1.607 0 2.909 1.302 2.909 2.909s-1.302 2.909-2.909 2.909h-34.909c-1.607 0-2.909-1.302-2.909-2.909s1.302-2.909 2.909-2.909z"></path>
<path fill="#fff" style="fill: var(--color2, #fff)" d="M2.909 13.091h34.909c1.607 0 2.909 1.302 2.909 2.909s-1.302 2.909-2.909 2.909h-34.909c-1.607 0-2.909-1.302-2.909-2.909s1.302-2.909 2.909-2.909z"></path>
<path fill="#fff" style="fill: var(--color2, #fff)" d="M2.909 24.727h34.909c1.607 0 2.909 1.302 2.909 2.909s-1.302 2.909-2.909 2.909h-34.909c-1.607 0-2.909-1.302-2.909-2.909s1.302-2.909 2.909-2.909z"></path>
</symbol>
<symbol id="icon-radio" viewBox="0 0 32 32">
<path fill="#fff" style="fill: var(--color2, #fff); stroke: var(--color7, #3642ae)" stroke="#3642ae" stroke-linejoin="miter" stroke-linecap="butt" stroke-miterlimit="4" stroke-width="1.2308" d="M31.385 16c0 8.497-6.888 15.385-15.385 15.385s-15.385-6.888-15.385-15.385c0-8.497 6.888-15.385 15.385-15.385s15.385 6.888 15.385 15.385z"></path>
</symbol>
<symbol id="icon-radio-checked" viewBox="0 0 32 32">
<path fill="#3642ae" style="fill: var(--color7, #3642ae)" d="M32 16c0 8.837-7.163 16-16 16s-16-7.163-16-16c0-8.837 7.163-16 16-16s16 7.163 16 16z"></path>
<path fill="#4953b4" style="fill: var(--color10, #4953b4); stroke: var(--color2, #fff)" stroke="#fff" stroke-linejoin="miter" stroke-linecap="butt" stroke-miterlimit="4" stroke-width="2.4615" d="M27.077 16c0 6.118-4.959 11.077-11.077 11.077s-11.077-4.959-11.077-11.077c0-6.118 4.959-11.077 11.077-11.077s11.077 4.959 11.077 11.077z"></path>
</symbol>
<symbol id="icon-select-arrow" viewBox="0 0 32 32">
<path d="M16.007 29.333c-0.014 0-0.030 0.001-0.046 0.001-0.342 0-0.652-0.132-0.885-0.347l0.001 0.001-5.38-5.147c-0.223-0.21-0.363-0.507-0.363-0.837s0.139-0.627 0.362-0.836l0.001-0.001c0.231-0.215 0.542-0.347 0.884-0.347s0.653 0.132 0.885 0.348l-0.001-0.001 3.28 3.123v-21.44c0-0.656 0.552-1.184 1.24-1.184 0.687 0 1.239 0.528 1.239 1.184v21.525l3.336-3.203c0.227-0.215 0.535-0.347 0.873-0.347s0.646 0.132 0.874 0.348l-0.001-0.001c0.223 0.21 0.362 0.507 0.362 0.837 0 0.333-0.141 0.633-0.367 0.842l-0.001 0.001-5.38 5.14c-0.227 0.21-0.531 0.34-0.866 0.34-0.017 0-0.033-0-0.049-0.001l0.002 0z"></path>
</symbol>
</defs>
</svg>
