<svg width="72" height="70" viewBox="0 0 72 70" fill="none" xmlns="http://www.w3.org/2000/svg">
<path d="M69.1831 39.1994C70.939 36.6887 70.939 33.3114 69.1831 30.8006L67.7559 28.7601C67.3898 28.2377 67.244 27.6015 67.3433 26.9747L67.7342 24.5193C68.2151 21.5016 66.7384 18.4624 64.0548 16.9535L61.8769 15.7274C61.3185 15.4139 60.9089 14.9068 60.7259 14.2953L60.0031 11.9199C59.1158 8.99127 56.4508 6.88631 53.3732 6.6835L50.8727 6.51755C50.2305 6.47453 49.6379 6.19181 49.2067 5.72472L47.5128 3.89321C45.4342 1.6376 42.1146 0.887798 39.2482 2.02481L36.9214 2.94674C36.3257 3.18336 35.6712 3.18336 35.0755 2.94674L32.7487 2.02481C29.8821 0.887798 26.5625 1.63761 24.4841 3.89321L22.7933 5.72472C22.359 6.1949 21.7695 6.47761 21.1242 6.51755L18.6237 6.6835C15.5461 6.88632 12.8842 8.99135 11.9938 11.9168L11.2741 14.2953C11.0879 14.9038 10.6784 15.4139 10.1231 15.7274L7.94211 16.9535C5.25855 18.4593 3.77869 21.5015 4.26268 24.5193L4.65359 26.9716C4.75597 27.6016 4.61015 28.2346 4.24407 28.757L2.81694 30.7975C1.06102 33.3082 1.06102 36.6855 2.81694 39.1963L4.24407 41.2368C4.61015 41.7592 4.75596 42.3954 4.65668 43.0222L4.26578 45.4776C3.78491 48.4953 5.26164 51.5345 7.94521 53.0434L10.1231 54.2696C10.6815 54.583 11.0911 55.0901 11.2741 55.7016L11.9969 58.077C12.8842 61.0056 15.5492 63.1106 18.6268 63.3134L21.1273 63.4794C21.7695 63.5224 22.3621 63.8051 22.7933 64.2722L24.4872 66.1037C25.9205 67.6587 27.9433 68.4976 30.0002 68.4976C30.9278 68.4976 31.8616 68.3286 32.752 67.9752L35.0788 67.0533C35.6744 66.8166 36.329 66.8166 36.9247 67.0533L39.2515 67.9752C42.1181 69.1122 45.4377 68.3624 47.5161 66.1068L49.2069 64.2753C49.6412 63.8051 50.2307 63.5224 50.876 63.4824L53.3765 63.3165C56.4541 63.1137 59.1159 61.0087 60.0063 58.0832L60.7261 55.7047C60.9122 55.0962 61.3217 54.5861 61.8771 54.2726L64.058 53.0465C66.7416 51.5407 68.2215 48.4985 67.7375 45.4807L67.3466 43.0284C67.2442 42.3984 67.39 41.7654 67.7561 41.243L69.1832 39.2025L69.1831 39.1994ZM65.1003 36.3998L63.6732 38.4434C62.5781 40.0107 62.1406 41.9098 62.4415 43.7967L62.8324 46.249C62.9907 47.2569 62.4974 48.271 61.607 48.7719L59.4229 49.998C57.7538 50.9384 56.5253 52.4626 55.9668 54.288L55.2439 56.6665C54.9492 57.6406 54.0588 58.3443 53.0351 58.4088L50.5346 58.5748C48.6141 58.7038 46.8427 59.5489 45.5397 60.9533L43.8458 62.7878C43.1539 63.5377 42.0495 63.7866 41.094 63.4086L38.7672 62.4867C36.9771 61.7799 35.0133 61.7799 33.2263 62.4867L30.8995 63.4086C29.9409 63.7866 28.8394 63.5377 28.1477 62.7878L26.4538 60.9533C25.157 59.5458 23.3824 58.7007 21.4589 58.5748L18.9584 58.4088C17.9346 58.3412 17.0442 57.6406 16.7495 56.6633L16.0236 54.2848C15.4682 52.4594 14.2428 50.9352 12.5675 49.9949L10.3865 48.7687C9.49609 48.2648 8.9997 47.2507 9.16101 46.2489L9.55501 43.7935C9.85284 41.9098 9.4154 40.0106 8.32025 38.4434L6.89312 36.4028C6.30677 35.5639 6.30677 34.4422 6.89312 33.6033L8.32025 31.5597C9.41539 29.9924 9.85284 28.0933 9.55191 26.2065L9.16101 23.7542C9.00279 22.7463 9.49607 21.7321 10.3865 21.2312L12.5706 20.0051C14.2397 19.0648 15.4682 17.5405 16.0267 15.7152L16.7495 13.3367C17.0442 12.3625 17.9347 11.6588 18.9584 11.5943L21.4589 11.4283C23.3793 11.2993 25.1507 10.4542 26.4538 9.04985L28.1477 7.21527C28.6254 6.699 29.2956 6.41937 29.9812 6.41937C30.2914 6.41937 30.6017 6.47469 30.8995 6.59454L33.2263 7.51647C35.0163 8.22327 36.9802 8.22327 38.7672 7.51647L41.094 6.59454C42.0526 6.21655 43.154 6.46547 43.8458 7.21529L45.5397 9.04986C46.8365 10.4573 48.611 11.3024 50.5346 11.4284L53.0351 11.5943C54.0589 11.6619 54.9493 12.3626 55.2439 13.3398L55.9699 15.7183C56.5252 17.5437 57.7507 19.0679 59.426 20.0083L61.607 21.2344C62.4974 21.7384 62.9937 22.7525 62.8324 23.7543L62.4384 26.2096C62.1406 28.0934 62.578 29.9925 63.6732 31.5598L65.1003 33.6003C65.6867 34.4392 65.6867 35.5609 65.1003 36.3998ZM48.9246 25.8872C49.8957 26.8491 49.8957 28.4009 48.9246 29.3628L34.0331 44.1134C33.5491 44.5928 32.9131 44.8325 32.2772 44.8325C31.6412 44.8325 31.0052 44.5928 30.5212 44.1134L23.0755 36.7381C22.1044 35.7762 22.1044 34.2244 23.0755 33.2625C24.0466 32.3006 25.6132 32.3006 26.5843 33.2625L32.2741 38.8985L45.4096 25.8873C46.3807 24.9254 47.9474 24.9254 48.9185 25.8873L48.9246 25.8872Z" fill="#35B6B4"/>
</svg>
