<!-- Generated by IcoMoon.io -->
<svg version="1.1" xmlns="http://www.w3.org/2000/svg" width="32" height="32" viewBox="0 0 32 32">
<title>check_circle</title>
<path fill="#35b6b4" d="M15.122 16.172l4.424-4.424-0.878-0.878-3.545 3.545-1.788-1.788-0.878 0.878 2.667 2.667zM16 19.56c-0.868 0-1.684-0.165-2.447-0.494s-1.427-0.776-1.992-1.341-1.012-1.229-1.341-1.992c-0.33-0.763-0.494-1.579-0.494-2.447s0.165-1.684 0.494-2.447c0.329-0.763 0.776-1.427 1.341-1.992s1.229-1.012 1.992-1.341c0.763-0.329 1.579-0.494 2.447-0.494s1.684 0.165 2.447 0.494c0.763 0.33 1.427 0.777 1.992 1.341s1.012 1.229 1.341 1.992c0.33 0.763 0.494 1.579 0.494 2.447s-0.165 1.684-0.494 2.447c-0.329 0.763-0.776 1.427-1.341 1.992s-1.229 1.012-1.992 1.341c-0.763 0.33-1.579 0.494-2.447 0.494z"></path>
</svg>
