<!-- Generated by IcoMoon.io -->
<svg version="1.1" xmlns="http://www.w3.org/2000/svg" width="32" height="32" viewBox="0 0 32 32">
<title>error_circle_rounded-white</title>
<path fill="#fff" d="M16 24c0.453 0 0.834-0.154 1.141-0.461 0.306-0.306 0.459-0.686 0.459-1.139s-0.153-0.834-0.459-1.141c-0.307-0.306-0.688-0.459-1.141-0.459s-0.833 0.153-1.139 0.459c-0.307 0.307-0.461 0.688-0.461 1.141s0.154 0.833 0.461 1.139c0.306 0.307 0.686 0.461 1.139 0.461zM16 32c-2.213 0-4.293-0.42-6.24-1.261s-3.64-1.979-5.080-3.419-2.58-3.133-3.419-5.080c-0.841-1.947-1.261-4.027-1.261-6.24s0.42-4.293 1.261-6.24c0.839-1.947 1.979-3.64 3.419-5.080s3.133-2.58 5.080-3.421c1.947-0.839 4.027-1.259 6.24-1.259s4.293 0.42 6.24 1.259c1.947 0.841 3.64 1.981 5.080 3.421s2.58 3.133 3.419 5.080c0.84 1.947 1.261 4.027 1.261 6.24s-0.42 4.293-1.261 6.24c-0.84 1.947-1.979 3.64-3.419 5.080s-3.133 2.58-5.080 3.419c-1.947 0.84-4.027 1.261-6.24 1.261zM16 17.6c0.453 0 0.834-0.154 1.141-0.461 0.306-0.306 0.459-0.686 0.459-1.139v-6.4c0-0.453-0.153-0.834-0.459-1.141-0.307-0.306-0.688-0.459-1.141-0.459s-0.833 0.153-1.139 0.459c-0.307 0.307-0.461 0.687-0.461 1.141v6.4c0 0.453 0.154 0.833 0.461 1.139 0.306 0.307 0.686 0.461 1.139 0.461z"></path>
</svg>
