<svg width="20" height="20" viewBox="0 0 20 20" fill="none" xmlns="http://www.w3.org/2000/svg">
<mask id="mask0_2080_6823" style="mask-type:alpha" maskUnits="userSpaceOnUse" x="0" y="0" width="20" height="20">
<rect width="20" height="20" fill="#D9D9D9"/>
</mask>
<g mask="url(#mask0_2080_6823)">
<path d="M9.89505 16.6665C9.95061 16.6665 10.0062 16.6526 10.0617 16.6248C10.1173 16.5971 10.1589 16.5693 10.1867 16.5415L17.0201 9.70817C17.1867 9.5415 17.3084 9.354 17.3851 9.14567C17.4612 8.93734 17.4992 8.729 17.4992 8.52067C17.4992 8.29845 17.4612 8.0865 17.3851 7.88484C17.3084 7.68373 17.1867 7.50678 17.0201 7.354L13.4784 3.81234C13.3256 3.64567 13.1487 3.524 12.9476 3.44734C12.7459 3.37123 12.5339 3.33317 12.3117 3.33317C12.1034 3.33317 11.8951 3.37123 11.6867 3.44734C11.4784 3.524 11.2909 3.64567 11.1242 3.81234L10.8951 4.0415L12.4367 5.604C12.6451 5.79845 12.7978 6.02067 12.8951 6.27067C12.9923 6.52067 13.0409 6.78456 13.0409 7.06234C13.0409 7.64567 12.8431 8.13512 12.4476 8.53067C12.0514 8.92678 11.5617 9.12484 10.9784 9.12484C10.7006 9.12484 10.4334 9.07623 10.1767 8.979C9.9195 8.88178 9.69366 8.73595 9.49922 8.5415L7.93672 6.99984L4.29089 10.6457C4.24922 10.6873 4.21783 10.7326 4.19672 10.7815C4.17616 10.8298 4.16589 10.8818 4.16589 10.9373C4.16589 11.0484 4.20755 11.149 4.29089 11.239C4.37422 11.3296 4.47144 11.3748 4.58255 11.3748C4.63811 11.3748 4.69366 11.3609 4.74922 11.3332C4.80477 11.3054 4.84644 11.2776 4.87422 11.2498L7.70755 8.4165L8.87422 9.58317L6.06172 12.4165C6.02005 12.4582 5.98866 12.5032 5.96755 12.5515C5.947 12.6004 5.93672 12.6526 5.93672 12.7082C5.93672 12.8193 5.97839 12.9165 6.06172 12.9998C6.14505 13.0832 6.24227 13.1248 6.35339 13.1248C6.40894 13.1248 6.4645 13.1109 6.52005 13.0832C6.57561 13.0554 6.61727 13.0276 6.64505 12.9998L9.47839 10.1873L10.6451 11.354L7.83255 14.1873C7.79089 14.2151 7.75977 14.2568 7.73922 14.3123C7.71811 14.3679 7.70755 14.4234 7.70755 14.479C7.70755 14.5901 7.74922 14.6873 7.83255 14.7707C7.91589 14.854 8.01311 14.8957 8.12422 14.8957C8.17977 14.8957 8.232 14.8851 8.28089 14.864C8.32922 14.8434 8.37422 14.8123 8.41589 14.7707L11.2492 11.9582L12.4159 13.1248L9.58255 15.9582C9.54089 15.9998 9.50977 16.0448 9.48922 16.0932C9.46811 16.1421 9.45755 16.1943 9.45755 16.2498C9.45755 16.3609 9.50283 16.4582 9.59339 16.5415C9.68339 16.6248 9.78394 16.6665 9.89505 16.6665ZM9.87422 18.3332C9.36033 18.3332 8.90561 18.1629 8.51005 17.8223C8.11394 17.4823 7.88116 17.0554 7.81172 16.5415C7.3395 16.4721 6.94366 16.2776 6.62422 15.9582C6.30477 15.6387 6.11033 15.2429 6.04089 14.7707C5.56866 14.7012 5.17644 14.5034 4.86422 14.1773C4.55144 13.8507 4.36033 13.4582 4.29089 12.9998C3.76311 12.9304 3.33255 12.7012 2.99922 12.3123C2.66589 11.9234 2.49922 11.4651 2.49922 10.9373C2.49922 10.6596 2.55144 10.3921 2.65589 10.1348C2.75977 9.87817 2.90894 9.65262 3.10339 9.45817L7.93672 4.64567L10.6659 7.37484C10.6937 7.4165 10.7353 7.44761 10.7909 7.46817C10.8464 7.48928 10.902 7.49984 10.9576 7.49984C11.0826 7.49984 11.1867 7.46178 11.2701 7.38567C11.3534 7.309 11.3951 7.20817 11.3951 7.08317C11.3951 7.02762 11.3848 6.97206 11.3642 6.9165C11.3431 6.86095 11.3117 6.81928 11.2701 6.7915L8.29089 3.81234C8.13811 3.64567 7.96089 3.524 7.75922 3.44734C7.55811 3.37123 7.34644 3.33317 7.12422 3.33317C6.91589 3.33317 6.70755 3.37123 6.49922 3.44734C6.29089 3.524 6.10339 3.64567 5.93672 3.81234L2.99922 6.77067C2.87422 6.89567 2.77005 7.0415 2.68672 7.20817C2.60339 7.37484 2.54783 7.5415 2.52005 7.70817C2.49227 7.87484 2.49227 8.04484 2.52005 8.21817C2.54783 8.39206 2.60339 8.55539 2.68672 8.70817L1.47839 9.9165C1.24227 9.59706 1.06866 9.24623 0.957552 8.864C0.846441 8.48234 0.804774 8.09706 0.832552 7.70817C0.86033 7.31928 0.957552 6.94067 1.12422 6.57234C1.29089 6.20456 1.52005 5.87484 1.81172 5.58317L4.74922 2.64567C5.08255 2.32623 5.45422 2.08317 5.86422 1.9165C6.27366 1.74984 6.69366 1.6665 7.12422 1.6665C7.55477 1.6665 7.97477 1.74984 8.38422 1.9165C8.79422 2.08317 9.15894 2.32623 9.47839 2.64567L9.70755 2.87484L9.93672 2.64567C10.2701 2.32623 10.6414 2.08317 11.0509 1.9165C11.4609 1.74984 11.8812 1.6665 12.3117 1.6665C12.7423 1.6665 13.1626 1.74984 13.5726 1.9165C13.982 2.08317 14.3464 2.32623 14.6659 2.64567L18.1867 6.1665C18.5062 6.48595 18.7492 6.854 18.9159 7.27067C19.0826 7.68734 19.1659 8.11095 19.1659 8.5415C19.1659 8.97206 19.0826 9.39206 18.9159 9.8015C18.7492 10.2115 18.5062 10.5762 18.1867 10.8957L11.3534 17.7082C11.1589 17.9026 10.9331 18.0554 10.6759 18.1665C10.4192 18.2776 10.152 18.3332 9.87422 18.3332Z" fill="#424242"/>
</g>
</svg>
