<!-- Generated by IcoMoon.io -->
<svg version="1.1" xmlns="http://www.w3.org/2000/svg" width="32" height="32" viewBox="0 0 32 32">
<title>footer-call</title>
<path fill="#d4d4d4" d="M26.6 27.882c-2.867 0-5.661-0.635-8.383-1.905s-5.134-2.948-7.233-5.035c-2.1-2.086-3.789-4.482-5.067-7.188s-1.917-5.481-1.917-8.33c0-0.397 0.133-0.729 0.4-0.994s0.6-0.397 1-0.397h5.4c0.311 0 0.589 0.099 0.833 0.298s0.389 0.453 0.433 0.762l0.867 4.637c0.044 0.309 0.039 0.591-0.016 0.844s-0.184 0.481-0.384 0.68l-3.233 3.246c0.933 1.59 2.106 3.081 3.517 4.472s2.96 2.595 4.649 3.611l3.133-3.114c0.2-0.199 0.461-0.348 0.784-0.448s0.638-0.126 0.949-0.082l4.6 0.927c0.311 0.066 0.567 0.215 0.767 0.446 0.2 0.232 0.3 0.503 0.3 0.812v5.366c0 0.398-0.133 0.729-0.4 0.994s-0.6 0.397-1 0.397zM8.033 11.982l2.2-2.186-0.567-3.114h-2.967c0.111 0.905 0.267 1.8 0.467 2.683s0.489 1.756 0.867 2.617zM25.333 25.166v-2.915l-3.133-0.629-2.233 2.219c0.867 0.375 1.75 0.673 2.651 0.894 0.899 0.221 1.805 0.364 2.716 0.431z"></path>
</svg>
