<!-- Generated by IcoMoon.io -->
<svg version="1.1" xmlns="http://www.w3.org/2000/svg" width="30" height="32" viewBox="0 0 30 32">
<title>footer-mail</title>
<path fill="#d4d4d4" d="M5.020 26.312c-0.69 0-1.281-0.244-1.772-0.732s-0.738-1.076-0.738-1.762v-14.965c0-0.686 0.246-1.273 0.738-1.761s1.082-0.733 1.772-0.733h20.078c0.69 0 1.281 0.244 1.773 0.733s0.737 1.075 0.737 1.761v14.965c0 0.686-0.245 1.273-0.737 1.762s-1.083 0.732-1.773 0.732h-20.078zM15.059 17.583l-10.039-6.235v12.47h20.078v-12.47l-10.039 6.235zM15.059 15.089l10.039-6.235h-20.078l10.039 6.235zM5.020 11.348v0z"></path>
</svg>
