<!-- Generated by IcoMoon.io -->
<svg version="1.1" xmlns="http://www.w3.org/2000/svg" width="30" height="32" viewBox="0 0 30 32">
<title>footer-pin_drop</title>
<path fill="#d4d4d4" d="M15.059 21.316c2.071-1.663 3.634-3.263 4.691-4.801s1.584-2.982 1.584-4.333c0-1.164-0.214-2.157-0.642-2.978s-0.958-1.486-1.585-1.995c-0.628-0.509-1.307-0.877-2.039-1.106s-1.401-0.343-2.008-0.343c-0.607 0-1.276 0.114-2.008 0.343s-1.412 0.597-2.039 1.106c-0.627 0.51-1.155 1.175-1.584 1.995s-0.644 1.814-0.644 2.978c0 1.351 0.528 2.795 1.584 4.333s2.62 3.138 4.691 4.801zM15.059 24.464c-2.949-2.162-5.151-4.261-6.605-6.297s-2.18-4.032-2.18-5.986c0-1.476 0.267-2.77 0.801-3.882s1.218-2.041 2.054-2.79 1.778-1.309 2.824-1.683c1.046-0.374 2.081-0.561 3.106-0.561s2.060 0.187 3.106 0.561c1.046 0.374 1.987 0.935 2.824 1.683s1.522 1.678 2.056 2.79c0.533 1.112 0.799 2.406 0.799 3.882 0 1.954-0.727 3.949-2.181 5.986s-3.654 4.136-6.603 6.297zM15.059 14.488c0.69 0 1.281-0.244 1.773-0.733s0.737-1.075 0.737-1.761-0.246-1.273-0.737-1.762c-0.492-0.488-1.083-0.732-1.773-0.732s-1.281 0.244-1.772 0.732c-0.492 0.489-0.738 1.076-0.738 1.762s0.246 1.273 0.738 1.761c0.491 0.489 1.082 0.733 1.772 0.733zM6.275 28.206v-2.494h17.569v2.494h-17.569z"></path>
</svg>
