<!-- Generated by IcoMoon.io -->
<svg version="1.1" xmlns="http://www.w3.org/2000/svg" width="32" height="32" viewBox="0 0 32 32">
<title>form-info</title>
<path fill="none" stroke="#1a1a1a" stroke-linejoin="miter" stroke-linecap="butt" stroke-miterlimit="4" stroke-width="2" d="M31 16c0 8.284-6.716 15-15 15s-15-6.716-15-15c0-8.284 6.716-15 15-15s15 6.716 15 15z"></path>
<path d="M18.794 9.376c0-1.652-1.34-2.99-2.99-2.99h-0.020c-1.651 0-2.99 1.339-2.99 2.99s1.339 2.99 2.99 2.99v0h0.020c1.652 0 2.99-1.34 2.99-2.99zM18.794 32v-14.892c0-1.325-1.075-2.4-2.4-2.4v0h-1.2c-1.325 0-2.4 1.075-2.4 2.4v0 14.892h6z"></path>
</svg>
