<!-- Generated by IcoMoon.io -->
<svg version="1.1" xmlns="http://www.w3.org/2000/svg" width="32" height="32" viewBox="0 0 32 32">
<title>form-tooltip</title>
<path d="M16 32c-8.837 0-16-7.163-16-16s7.163-16 16-16v0c8.837 0 16 7.163 16 16s-7.163 16-16 16v0zM14.164 19.93h3.352c0-0.002 0-0.004 0-0.006 0-0.524 0.090-1.028 0.256-1.495l-0.010 0.031c0.148-0.386 0.414-0.764 0.798-1.13l1.346-1.254c0.572-0.556 0.986-1.1 1.242-1.63 0.245-0.503 0.388-1.094 0.388-1.719 0-0.017-0-0.034-0-0.051l0 0.003c0-1.486-0.48-2.63-1.436-3.434-0.956-0.806-2.306-1.208-4.048-1.208-1.75 0-3.11 0.436-4.080 1.308-0.968 0.87-1.46 2.086-1.476 3.65h3.96c0.018-0.586 0.17-1.052 0.46-1.396 0.261-0.315 0.653-0.515 1.091-0.515 0.016 0 0.031 0 0.047 0.001l-0.002-0c1.014 0 1.522 0.59 1.522 1.768 0 0.486-0.15 0.928-0.45 1.33-0.3 0.404-0.74 0.846-1.32 1.332-0.576 0.484-0.994 1.056-1.252 1.716-0.26 0.66-0.388 1.56-0.388 2.7zM13.684 23.494c0 0.578 0.21 1.052 0.628 1.424 0.418 0.37 0.94 0.556 1.564 0.556s1.146-0.186 1.564-0.556c0.385-0.335 0.627-0.827 0.627-1.374 0-0.017-0-0.035-0.001-0.052l0 0.003c0-0.015 0.001-0.032 0.001-0.050 0-0.548-0.242-1.039-0.625-1.372l-0.002-0.002c-0.396-0.346-0.918-0.557-1.49-0.557-0.026 0-0.052 0-0.078 0.001l0.004-0c-0.626 0-1.146 0.184-1.564 0.556-0.386 0.336-0.629 0.827-0.629 1.376 0 0.017 0 0.034 0.001 0.051l-0-0.002z"></path>
</svg>
