<!-- Generated by IcoMoon.io -->
<svg version="1.1" xmlns="http://www.w3.org/2000/svg" width="41" height="32" viewBox="0 0 41 32">
<title>hamburger-menu</title>
<path fill="#3642ae" d="M2.909 1.455h34.909c1.607 0 2.909 1.302 2.909 2.909s-1.302 2.909-2.909 2.909h-34.909c-1.607 0-2.909-1.302-2.909-2.909s1.302-2.909 2.909-2.909z"></path>
<path fill="#3642ae" d="M2.909 13.091h34.909c1.607 0 2.909 1.302 2.909 2.909s-1.302 2.909-2.909 2.909h-34.909c-1.607 0-2.909-1.302-2.909-2.909s1.302-2.909 2.909-2.909z"></path>
<path fill="#3642ae" d="M2.909 24.727h34.909c1.607 0 2.909 1.302 2.909 2.909s-1.302 2.909-2.909 2.909h-34.909c-1.607 0-2.909-1.302-2.909-2.909s1.302-2.909 2.909-2.909z"></path>
</svg>
