<svg width="32" height="32" viewBox="0 0 32 32" fill="none" xmlns="http://www.w3.org/2000/svg">
<mask id="mask0_177_2197" style="mask-type:alpha" maskUnits="userSpaceOnUse" x="0" y="0" width="32" height="32">
<rect y="6.10352e-05" width="31.5" height="31.5" fill="#D9D9D9"/>
</mask>
<g mask="url(#mask0_177_2197)">
<path d="M12.4688 21.6563L21.6563 15.7501L12.4688 9.84381V21.6563ZM15.75 28.8751C13.9344 28.8751 12.2281 28.5303 10.6313 27.8408C9.03438 27.1522 7.64531 26.2173 6.46406 25.036C5.28281 23.8548 4.34788 22.4657 3.65925 20.8688C2.96975 19.2719 2.625 17.5657 2.625 15.7501C2.625 13.9344 2.96975 12.2282 3.65925 10.6313C4.34788 9.03444 5.28281 7.64537 6.46406 6.46412C7.64531 5.28287 9.03438 4.3475 10.6313 3.658C12.2281 2.96937 13.9344 2.62506 15.75 2.62506C17.5656 2.62506 19.2719 2.96937 20.8688 3.658C22.4656 4.3475 23.8547 5.28287 25.0359 6.46412C26.2172 7.64537 27.1521 9.03444 27.8408 10.6313C28.5303 12.2282 28.875 13.9344 28.875 15.7501C28.875 17.5657 28.5303 19.2719 27.8408 20.8688C27.1521 22.4657 26.2172 23.8548 25.0359 25.036C23.8547 26.2173 22.4656 27.1522 20.8688 27.8408C19.2719 28.5303 17.5656 28.8751 15.75 28.8751Z" fill="white"/>
</g>
</svg>
