<!-- Generated by IcoMoon.io -->
<svg version="1.1" xmlns="http://www.w3.org/2000/svg" width="32" height="32" viewBox="0 0 32 32">
<title>select-arrow</title>
<path d="M16.007 29.333c-0.014 0-0.030 0.001-0.046 0.001-0.342 0-0.652-0.132-0.885-0.347l0.001 0.001-5.38-5.147c-0.223-0.21-0.363-0.507-0.363-0.837s0.139-0.627 0.362-0.836l0.001-0.001c0.231-0.215 0.542-0.347 0.884-0.347s0.653 0.132 0.885 0.348l-0.001-0.001 3.28 3.123v-21.44c0-0.656 0.552-1.184 1.24-1.184 0.687 0 1.239 0.528 1.239 1.184v21.525l3.336-3.203c0.227-0.215 0.535-0.347 0.873-0.347s0.646 0.132 0.874 0.348l-0.001-0.001c0.223 0.21 0.362 0.507 0.362 0.837 0 0.333-0.141 0.633-0.367 0.842l-0.001 0.001-5.38 5.14c-0.227 0.21-0.531 0.34-0.866 0.34-0.017 0-0.033-0-0.049-0.001l0.002 0z"></path>
</svg>
