<?xml version="1.0" encoding="UTF-8"?>
<svg width="149px" height="45px" viewBox="0 0 149 45" version="1.1" xmlns="http://www.w3.org/2000/svg" xmlns:xlink="http://www.w3.org/1999/xlink">
    <title>app_store</title>
    <g id="Design" stroke="none" stroke-width="1" fill="none" fill-rule="evenodd">
        <g id="9100-Recharge" transform="translate(-886.000000, -1468.000000)">
            <g id="app_store" transform="translate(886.000000, 1468.000000)">
                <rect id="button" fill="#FFFFFF" x="0" y="0" width="149" height="45" rx="7"></rect>
                <g id="Available-on-the" transform="translate(47.711630, 7.779018)" fill="#000000" fill-rule="nonzero">
                    <path d="M4.8449707,5.92675781 L1.7175293,5.92675781 L1.01513672,7.875 L0,7.875 L2.85058594,0.41015625 L3.71191406,0.41015625 L6.56762695,7.875 L5.55761719,7.875 L4.8449707,5.92675781 Z M2.01489258,5.11669922 L4.55273438,5.11669922 L3.28125,1.62524414 L2.01489258,5.11669922 Z" id="Shape"></path>
                    <polygon id="Path" points="9.83780277 6.58813477 11.2118262 2.32763672 12.1808203 2.32763672 10.1915625 7.875 9.46866214 7.875 7.45889652 2.32763672 8.42789066 2.32763672"></polygon>
                    <path d="M17.2813184,7.875 C17.2266309,7.765625 17.1821973,7.57080078 17.1480176,7.29052734 C16.7070997,7.74853516 16.1807325,7.97753906 15.5689161,7.97753906 C15.0220411,7.97753906 14.5734327,7.82287598 14.2230909,7.5135498 C13.8727491,7.20422363 13.6975782,6.81201172 13.6975782,6.33691406 C13.6975782,5.75927734 13.9171827,5.31066895 14.3563917,4.99108887 C14.7956007,4.67150879 15.4133985,4.51171875 16.2097852,4.51171875 L17.1326368,4.51171875 L17.1326368,4.07592773 C17.1326368,3.74438477 17.0335157,3.48034668 16.8352735,3.28381348 C16.6370313,3.08728027 16.344795,2.98901367 15.9585645,2.98901367 C15.6201856,2.98901367 15.3364942,3.07446289 15.1074903,3.24536133 C14.8784864,3.41625977 14.7639844,3.62304688 14.7639844,3.86572266 L13.8103712,3.86572266 C13.8103712,3.58886719 13.9086378,3.32141113 14.105171,3.06335449 C14.3017042,2.80529785 14.5683057,2.60107422 14.9049757,2.45068359 C15.2416456,2.30029297 15.6116407,2.22509766 16.014961,2.22509766 C16.6541212,2.22509766 17.1548536,2.3848877 17.5171583,2.70446777 C17.879463,3.02404785 18.0674512,3.46411133 18.0811231,4.0246582 L18.0811231,6.57788086 C18.0811231,7.0871582 18.1460645,7.4921875 18.2759473,7.79296875 L18.2759473,7.875 L17.2813184,7.875 Z M15.7073438,7.15209961 C16.0047071,7.15209961 16.2866895,7.07519531 16.5532911,6.92138672 C16.8198926,6.76757812 17.0130079,6.56762695 17.1326368,6.3215332 L17.1326368,5.18334961 L16.3892286,5.18334961 C15.2271192,5.18334961 14.6460645,5.5234375 14.6460645,6.20361328 C14.6460645,6.50097656 14.7451856,6.73339844 14.9434278,6.90087891 C15.14167,7.06835938 15.3963087,7.15209961 15.7073438,7.15209961 Z" id="Shape"></path>
                    <path d="M21.4384571,7.875 L20.4899708,7.875 L20.4899708,2.32763672 L21.4384571,2.32763672 L21.4384571,7.875 Z M20.4130665,0.856201172 C20.4130665,0.702392578 20.4600636,0.572509766 20.5540577,0.466552734 C20.6480519,0.360595703 20.7873341,0.307617188 20.9719044,0.307617188 C21.1564747,0.307617188 21.2966114,0.360595703 21.3923146,0.466552734 C21.4880177,0.572509766 21.5358692,0.702392578 21.5358692,0.856201172 C21.5358692,1.01000977 21.4880177,1.13818359 21.3923146,1.24072266 C21.2966114,1.34326172 21.1564747,1.39453125 20.9719044,1.39453125 C20.7873341,1.39453125 20.6480519,1.34326172 20.5540577,1.24072266 C20.4600636,1.13818359 20.4130665,1.01000977 20.4130665,0.856201172 Z" id="Shape"></path>
                    <polygon id="Path" points="24.8265529 7.875 23.8780665 7.875 23.8780665 0 24.8265529 0"></polygon>
                    <path d="M30.6089357,7.875 C30.5542482,7.765625 30.5098146,7.57080078 30.4756349,7.29052734 C30.034717,7.74853516 29.5083498,7.97753906 28.8965334,7.97753906 C28.3496584,7.97753906 27.90105,7.82287598 27.5507082,7.5135498 C27.2003664,7.20422363 27.0251955,6.81201172 27.0251955,6.33691406 C27.0251955,5.75927734 27.2448,5.31066895 27.684009,4.99108887 C28.1232179,4.67150879 28.7410158,4.51171875 29.5374025,4.51171875 L30.4602541,4.51171875 L30.4602541,4.07592773 C30.4602541,3.74438477 30.361133,3.48034668 30.1628908,3.28381348 C29.9646486,3.08728027 29.6724123,2.98901367 29.2861818,2.98901367 C28.9478029,2.98901367 28.6641115,3.07446289 28.4351076,3.24536133 C28.2061037,3.41625977 28.0916017,3.62304688 28.0916017,3.86572266 L27.1379884,3.86572266 C27.1379884,3.58886719 27.236255,3.32141113 27.4327883,3.06335449 C27.6293215,2.80529785 27.895923,2.60107422 28.2325929,2.45068359 C28.5692629,2.30029297 28.939258,2.22509766 29.3425783,2.22509766 C29.9817384,2.22509766 30.4824709,2.3848877 30.8447756,2.70446777 C31.2070802,3.02404785 31.3950685,3.46411133 31.4087404,4.0246582 L31.4087404,6.57788086 C31.4087404,7.0871582 31.4736818,7.4921875 31.6035646,7.79296875 L31.6035646,7.875 L30.6089357,7.875 Z M29.0349611,7.15209961 C29.3323244,7.15209961 29.6143068,7.07519531 29.8809084,6.92138672 C30.1475099,6.76757812 30.3406252,6.56762695 30.4602541,6.3215332 L30.4602541,5.18334961 L29.7168459,5.18334961 C28.5547365,5.18334961 27.9736818,5.5234375 27.9736818,6.20361328 C27.9736818,6.50097656 28.0728029,6.73339844 28.2710451,6.90087891 C28.4692873,7.06835938 28.7239259,7.15209961 29.0349611,7.15209961 Z" id="Shape"></path>
                    <path d="M38.4318459,5.1628418 C38.4318459,6.01049805 38.2370217,6.69152832 37.8473732,7.20593262 C37.4577248,7.72033691 36.9347756,7.97753906 36.2785256,7.97753906 C35.577842,7.97753906 35.036094,7.72973633 34.6532815,7.23413086 L34.6071389,7.875 L33.7355568,7.875 L33.7355568,0 L34.6840432,0 L34.6840432,2.93774414 C35.0668557,2.46264648 35.5949318,2.22509766 36.2682717,2.22509766 C36.9416115,2.22509766 37.4705422,2.47973633 37.8550637,2.98901367 C38.2395852,3.49829102 38.4318459,4.19555664 38.4318459,5.08081055 L38.4318459,5.1628418 Z M37.4833596,5.05517578 C37.4833596,4.40917969 37.3586037,3.91015625 37.109092,3.55810547 C36.8595803,3.20605469 36.5006936,3.0300293 36.0324318,3.0300293 C35.4069436,3.0300293 34.9574807,3.32055664 34.6840432,3.90161133 L34.6840432,6.30102539 C34.9745705,6.88208008 35.4274514,7.17260742 36.0426857,7.17260742 C36.4972756,7.17260742 36.8510354,6.99658203 37.103965,6.64453125 C37.3568947,6.29248047 37.4833596,5.76269531 37.4833596,5.05517578 Z" id="Shape"></path>
                    <polygon id="Path" points="41.4969436 7.875 40.5484573 7.875 40.5484573 0 41.4969436 0"></polygon>
                    <path d="M46.1565237,7.97753906 C45.4045706,7.97753906 44.7927542,7.73059082 44.3210745,7.23669434 C43.8493948,6.74279785 43.613555,6.08227539 43.613555,5.25512695 L43.613555,5.08081055 C43.613555,4.53051758 43.7186575,4.03918457 43.9288626,3.60681152 C44.1390676,3.17443848 44.433013,2.83605957 44.8106985,2.5916748 C45.1883841,2.34729004 45.5976858,2.22509766 46.0386038,2.22509766 C46.7597952,2.22509766 47.3203421,2.46264648 47.7202444,2.93774414 C48.1201468,3.4128418 48.3200979,4.09301758 48.3200979,4.97827148 L48.3200979,5.37304688 L44.5620413,5.37304688 C44.5757132,5.91992188 44.7355032,6.36169434 45.0414114,6.69836426 C45.3473196,7.03503418 45.7361135,7.20336914 46.2077932,7.20336914 C46.5427542,7.20336914 46.8264456,7.13500977 47.0588675,6.99829102 C47.2912893,6.86157227 47.4946585,6.68041992 47.6689749,6.45483398 L48.2483206,6.90600586 C47.7834768,7.62036133 47.0862112,7.97753906 46.1565237,7.97753906 Z M46.0386038,3.00439453 C45.6557913,3.00439453 45.3345022,3.14367676 45.0747366,3.42224121 C44.814971,3.70080566 44.6543264,4.09130859 44.592803,4.59375 L47.3716116,4.59375 L47.3716116,4.52197266 C47.3442678,4.04003906 47.214385,3.66662598 46.9819632,3.4017334 C46.7495413,3.13684082 46.4350882,3.00439453 46.0386038,3.00439453 Z" id="Shape"></path>
                    <path d="M53.4454105,5.05004883 C53.4454105,4.5065918 53.552222,4.01782227 53.7658451,3.58374023 C53.9794681,3.1496582 54.2768314,2.81469727 54.6579349,2.57885742 C55.0390384,2.34301758 55.4739749,2.22509766 55.9627445,2.22509766 C56.7181156,2.22509766 57.3290775,2.48657227 57.7956302,3.00952148 C58.262183,3.5324707 58.4954593,4.22802734 58.4954593,5.09619141 L58.4954593,5.1628418 C58.4954593,5.70288086 58.3920658,6.18737793 58.1852787,6.61633301 C57.9784915,7.04528809 57.6828372,7.37939453 57.2983158,7.61865234 C56.9137943,7.85791016 56.4720218,7.97753906 55.9729984,7.97753906 C55.2210453,7.97753906 54.6117923,7.71606445 54.1452396,7.19311523 C53.6786869,6.67016602 53.4454105,5.97802734 53.4454105,5.11669922 L53.4454105,5.05004883 Z M54.3990238,5.1628418 C54.3990238,5.77807617 54.541724,6.27197266 54.8271244,6.64453125 C55.1125247,7.01708984 55.4944828,7.20336914 55.9729984,7.20336914 C56.454932,7.20336914 56.8377445,7.01452637 57.1214359,6.63684082 C57.4051273,6.25915527 57.546973,5.73022461 57.546973,5.05004883 C57.546973,4.44165039 57.4025638,3.9486084 57.1137455,3.57092285 C56.8249271,3.1932373 56.4412601,3.00439453 55.9627445,3.00439453 C55.4944828,3.00439453 55.1167972,3.19067383 54.8296878,3.56323242 C54.5425785,3.93579102 54.3990238,4.46899414 54.3990238,5.1628418 Z" id="Shape"></path>
                    <path d="M61.4221293,2.32763672 L61.452891,3.02490234 C61.8767191,2.49169922 62.4304301,2.22509766 63.1140238,2.22509766 C64.2863871,2.22509766 64.8776957,2.88647461 64.8879496,4.20922852 L64.8879496,7.875 L63.9394633,7.875 L63.9394633,4.20410156 C63.9360453,3.80419922 63.8446146,3.50854492 63.6651713,3.31713867 C63.4857279,3.12573242 63.206309,3.0300293 62.8269144,3.0300293 C62.5192972,3.0300293 62.2492777,3.11206055 62.0168558,3.27612305 C61.784434,3.44018555 61.6032816,3.65551758 61.4733988,3.92211914 L61.4733988,7.875 L60.5249125,7.875 L60.5249125,2.32763672 L61.4221293,2.32763672 Z" id="Path"></path>
                    <path d="M71.8846,0.984375 L71.8846,2.32763672 L72.9202446,2.32763672 L72.9202446,3.06079102 L71.8846,3.06079102 L71.8846,6.50097656 C71.8846,6.72314453 71.9307426,6.88977051 72.0230278,7.00085449 C72.1153129,7.11193848 72.2725395,7.16748047 72.4947075,7.16748047 C72.6040825,7.16748047 72.7544731,7.14697266 72.9458793,7.10595703 L72.9458793,7.875 C72.6963676,7.94335938 72.4536918,7.97753906 72.217852,7.97753906 C71.7940239,7.97753906 71.4744438,7.84936523 71.2591118,7.59301758 C71.0437797,7.33666992 70.9361137,6.97265625 70.9361137,6.50097656 L70.9361137,3.06079102 L69.9261039,3.06079102 L69.9261039,2.32763672 L70.9361137,2.32763672 L70.9361137,0.984375 L71.8846,0.984375 Z" id="Path"></path>
                    <path d="M75.8161528,2.99926758 C76.236563,2.4831543 76.783438,2.22509766 77.4567778,2.22509766 C78.6291411,2.22509766 79.2204497,2.88647461 79.2307036,4.20922852 L79.2307036,7.875 L78.2822173,7.875 L78.2822173,4.20410156 C78.2787993,3.80419922 78.1873686,3.50854492 78.0079253,3.31713867 C77.8284819,3.12573242 77.549063,3.0300293 77.1696684,3.0300293 C76.8620512,3.0300293 76.5920317,3.11206055 76.3596098,3.27612305 C76.127188,3.44018555 75.9460356,3.65551758 75.8161528,3.92211914 L75.8161528,7.875 L74.8676665,7.875 L74.8676665,0 L75.8161528,0 L75.8161528,2.99926758 Z" id="Path"></path>
                    <path d="M83.7928716,7.97753906 C83.0409185,7.97753906 82.4291021,7.73059082 81.9574224,7.23669434 C81.4857427,6.74279785 81.2499028,6.08227539 81.2499028,5.25512695 L81.2499028,5.08081055 C81.2499028,4.53051758 81.3550054,4.03918457 81.5652105,3.60681152 C81.7754155,3.17443848 82.0693609,2.83605957 82.4470464,2.5916748 C82.8247319,2.34729004 83.2340337,2.22509766 83.6749517,2.22509766 C84.3961431,2.22509766 84.95669,2.46264648 85.3565923,2.93774414 C85.7564946,3.4128418 85.9564458,4.09301758 85.9564458,4.97827148 L85.9564458,5.37304688 L82.1983892,5.37304688 C82.212061,5.91992188 82.3718511,6.36169434 82.6777593,6.69836426 C82.9836675,7.03503418 83.3724614,7.20336914 83.8441411,7.20336914 C84.1791021,7.20336914 84.4627935,7.13500977 84.6952153,6.99829102 C84.9276372,6.86157227 85.1310064,6.68041992 85.3053228,6.45483398 L85.8846685,6.90600586 C85.4198247,7.62036133 84.7225591,7.97753906 83.7928716,7.97753906 Z M83.6749517,3.00439453 C83.2921392,3.00439453 82.9708501,3.14367676 82.7110845,3.42224121 C82.4513189,3.70080566 82.2906743,4.09130859 82.2291509,4.59375 L85.0079595,4.59375 L85.0079595,4.52197266 C84.9806157,4.04003906 84.8507329,3.66662598 84.618311,3.4017334 C84.3858892,3.13684082 84.071436,3.00439453 83.6749517,3.00439453 Z" id="Shape"></path>
                </g>
                <g id="App-Store" transform="translate(48.129968, 21.612984)" fill="#000000" fill-rule="nonzero">
                    <path d="M0,14.6124626 L1.87338867,14.6124626 L6.10663376,2.57157288 L6.64111328,2.57157288 L6.64111328,0.309288788 L5.28702621,0.309288788 L0,14.6124626 Z M2.40260239,10.5187614 L9.9644577,10.5187614 L9.39822845,9.00220871 L2.96883163,9.00220871 L2.40260239,10.5187614 Z M10.4623863,14.6124626 L12.335775,14.6124626 L7.05138168,0.309288788 L6.23192902,0.309288788 L6.23192902,2.57157288 L10.4623863,14.6124626 Z" id="Shape"></path>
                    <path d="M13.9510586,18.1530991 L15.6757656,18.1530991 L15.6757656,12.9162529 L15.8010609,12.9162529 C16.0048786,13.3032382 16.2727121,13.6368942 16.6045613,13.9172211 C16.9364104,14.1975479 17.3173555,14.4153562 17.7473965,14.5706459 C18.1774375,14.7259356 18.6360274,14.8035805 19.1231663,14.8035805 C20.0174244,14.8035805 20.7971254,14.5779251 21.4622692,14.1266144 C22.1274131,13.6753036 22.6445464,13.040335 23.0136692,12.2217083 C23.3827921,11.4030816 23.5673535,10.4399808 23.5673535,9.33240585 L23.5673535,9.31536942 C23.5673535,8.21264725 23.3832567,7.2515082 23.0150631,6.43195229 C22.6468696,5.61239637 22.1292716,4.97577566 21.4622692,4.52209015 C20.7952669,4.06840464 20.0127781,3.84156189 19.114803,3.84156189 C18.621056,3.84156189 18.1636535,3.91848399 17.7425953,4.07232819 C17.3215372,4.22617238 16.9472002,4.44444529 16.6195843,4.72714691 C16.2919684,5.00984853 16.0191273,5.35037079 15.8010609,5.74871368 L15.6757656,5.74871368 L15.6757656,4.03267975 L13.9510586,4.03267975 L13.9510586,18.1530991 Z M18.7350453,13.2771156 C18.1059361,13.2771156 17.5600473,13.1161471 17.0973789,12.7942101 C16.6347106,12.472273 16.2768938,12.0159804 16.0239285,11.4253323 C15.7709632,10.8346841 15.6444805,10.137042 15.6444805,9.33240585 L15.6444805,9.31536942 C15.6444805,8.50422846 15.7704986,7.80452131 16.0225346,7.21624794 C16.2745706,6.62797457 16.6323874,6.17286936 17.0959851,5.85093231 C17.5595827,5.52899526 18.1059361,5.36802673 18.7350453,5.36802673 C19.3763381,5.36802673 19.9254793,5.52641398 20.3824688,5.84318848 C20.8394584,6.15996297 21.1904606,6.6124869 21.4354756,7.20076027 C21.6804905,7.78903364 21.802998,8.49390335 21.802998,9.31536942 L21.802998,9.33240585 C21.802998,10.1455086 21.6804905,10.847384 21.4354756,11.4380322 C21.1904606,12.0286803 20.8394584,12.4828562 20.3824688,12.80056 C19.9254793,13.1182638 19.3763381,13.2771156 18.7350453,13.2771156 Z" id="Shape"></path>
                    <path d="M25.5780022,18.1530991 L27.3027093,18.1530991 L27.3027093,12.9162529 L27.4280045,12.9162529 C27.6318223,13.3032382 27.8996557,13.6368942 28.2315049,13.9172211 C28.563354,14.1975479 28.9442991,14.4153562 29.3743401,14.5706459 C29.8043811,14.7259356 30.262971,14.8035805 30.7501099,14.8035805 C31.644368,14.8035805 32.424069,14.5779251 33.0892129,14.1266144 C33.7543567,13.6753036 34.27149,13.040335 34.6406129,12.2217083 C35.0097357,11.4030816 35.1942971,10.4399808 35.1942971,9.33240585 L35.1942971,9.31536942 C35.1942971,8.21264725 35.0102003,7.2515082 34.6420067,6.43195229 C34.2738132,5.61239637 33.7562152,4.97577566 33.0892129,4.52209015 C32.4222105,4.06840464 31.6397217,3.84156189 30.7417466,3.84156189 C30.2479996,3.84156189 29.7905971,3.91848399 29.3695389,4.07232819 C28.9484808,4.22617238 28.5741438,4.44444529 28.2465279,4.72714691 C27.9189121,5.00984853 27.6460709,5.35037079 27.4280045,5.74871368 L27.3027093,5.74871368 L27.3027093,4.03267975 L25.5780022,4.03267975 L25.5780022,18.1530991 Z M30.3619889,13.2771156 C29.7328797,13.2771156 29.1869909,13.1161471 28.7243226,12.7942101 C28.2616542,12.472273 27.9038374,12.0159804 27.6508721,11.4253323 C27.3979068,10.8346841 27.2714242,10.137042 27.2714242,9.33240585 L27.2714242,9.31536942 C27.2714242,8.50422846 27.3974422,7.80452131 27.6494782,7.21624794 C27.9015142,6.62797457 28.2593311,6.17286936 28.7229287,5.85093231 C29.1865263,5.52899526 29.7328797,5.36802673 30.3619889,5.36802673 C31.0032817,5.36802673 31.5524229,5.52641398 32.0094124,5.84318848 C32.466402,6.15996297 32.8174042,6.6124869 33.0624192,7.20076027 C33.3074341,7.78903364 33.4299416,8.49390335 33.4299416,9.31536942 L33.4299416,9.33240585 C33.4299416,10.1455086 33.3074341,10.847384 33.0624192,11.4380322 C32.8174042,12.0286803 32.466402,12.4828562 32.0094124,12.80056 C31.5524229,13.1182638 31.0032817,13.2771156 30.3619889,13.2771156 Z" id="Shape"></path>
                    <path d="M46.9827457,14.9217514 C48.0539762,14.9217514 48.9856113,14.7472828 49.7776507,14.3983456 C50.5696902,14.0494083 51.1824083,13.5548612 51.615805,12.9147041 C52.0492016,12.2745471 52.2659,11.5148768 52.2659,10.6356934 L52.2659,10.6257813 C52.2659,9.92749379 52.1245491,9.32373276 51.8418475,8.81449814 C51.5591459,8.30526352 51.1133591,7.87553228 50.5044871,7.52530441 C49.8956152,7.17507655 49.0950575,6.89185867 48.102814,6.67565079 L46.5168765,6.32160263 C45.8766162,6.17808355 45.3561272,5.99868469 44.9554095,5.78340607 C44.5546919,5.56812744 44.2604519,5.31059329 44.0726897,5.0108036 C43.8849275,4.71101392 43.7910464,4.37098211 43.7910464,3.99070816 L43.7910464,3.98079605 C43.7910464,3.48963038 43.9286802,3.07105026 44.2039477,2.72505569 C44.4792153,2.37906113 44.8547397,2.11262156 45.3305209,1.925737 C45.8063022,1.73885244 46.3471316,1.64541016 46.9530093,1.64541016 C47.5704511,1.6406606 48.10999,1.73317362 48.5716258,1.92294922 C49.0332617,2.11272481 49.4037784,2.37348557 49.683176,2.70523148 C49.9625735,3.03697739 50.136242,3.42354965 50.2041812,3.86494827 L50.2240054,3.99659348 L52.0081851,3.99659348 L51.998273,3.85503616 C51.950158,3.12288233 51.7087568,2.46656647 51.2740695,1.88608856 C50.8393822,1.30561066 50.2552905,0.846143087 49.5217944,0.507685852 C48.7882983,0.169228617 47.9485568,0 47.0025699,0 C46.0198255,0 45.1501412,0.171345266 44.3935168,0.514035797 C43.6368925,0.856726329 43.0450053,1.33067487 42.6178554,1.93588142 C42.1907054,2.54108798 41.9738264,3.23924637 41.9672183,4.0303566 L41.9672183,4.04026871 C41.9672183,4.72936681 42.112312,5.3356575 42.4024993,5.85914078 C42.6926866,6.38262405 43.1400996,6.8258812 43.7447383,7.1889122 C44.349377,7.55194321 45.1247414,7.83825862 46.0708316,8.04785843 L47.6567691,8.39478226 C48.641372,8.61284866 49.3517398,8.92092425 49.7878726,9.31900902 C50.2240054,9.71709379 50.4420718,10.2180941 50.4420718,10.82201 L50.4420718,10.8319221 C50.4420718,11.31617 50.2989916,11.7423907 50.012831,12.1105843 C49.7266705,12.4787778 49.3312961,12.765119 48.8267078,12.9696079 C48.3221194,13.1740968 47.7405058,13.2763412 47.0818668,13.2763412 C46.3946272,13.2763412 45.7835611,13.1809888 45.2486686,12.990284 C44.7137761,12.7995791 44.2865487,12.5307648 43.9669864,12.1838409 C43.6474241,11.8369171 43.4608493,11.4255646 43.407262,10.9497833 L43.3945621,10.8323868 L41.6103824,10.8323868 L41.6202945,10.9497833 C41.6892662,11.7339757 41.9510079,12.4246226 42.4055194,13.0217239 C42.8600309,13.6188253 43.4764402,14.0847719 44.2547473,14.4195637 C45.0330544,14.7543555 45.9423872,14.9217514 46.9827457,14.9217514 Z" id="Path"></path>
                    <path d="M58.005845,14.725058 C58.1776548,14.725058 58.3466253,14.7156105 58.5127564,14.6967155 C58.6788875,14.6778206 58.8361906,14.6570155 58.9846658,14.6343002 L58.9846658,13.1866676 C58.8501295,13.1980253 58.7302033,13.2074727 58.6248872,13.2150101 C58.519571,13.2225474 58.3973733,13.2263161 58.258294,13.2263161 C57.7291319,13.2263161 57.3456055,13.1002981 57.1077149,12.848262 C56.8698243,12.596226 56.750879,12.167424 56.750879,11.5618561 L56.750879,5.4600235 L58.9846658,5.4600235 L58.9846658,4.03267975 L56.750879,4.03267975 L56.750879,1.26162567 L54.9666993,1.26162567 L54.9666993,4.03267975 L53.3316659,4.03267975 L53.3316659,5.4600235 L54.9666993,5.4600235 L54.9666993,11.8787338 C54.9666993,12.8870845 55.2096234,13.6135595 55.6954716,14.0581589 C56.1813199,14.5027583 56.9514443,14.725058 58.005845,14.725058 Z" id="Path"></path>
                    <path d="M65.2979698,14.8035805 C66.2971311,14.8035805 67.160672,14.5819519 67.8885925,14.1386948 C68.616513,13.6954376 69.1803675,13.0644957 69.5801559,12.2458691 C69.9799443,11.4272424 70.1798385,10.4552104 70.1798385,9.32977295 L70.1798385,9.30994873 C70.1798385,8.17965851 69.9799443,7.2056647 69.5801559,6.3879673 C69.1803675,5.5702699 68.6160484,4.94144465 67.8871986,4.50149155 C67.1583488,4.06153844 66.2943433,3.84156189 65.295182,3.84156189 C64.3026288,3.84156189 63.4407399,4.06153844 62.7095153,4.50149155 C61.9782908,4.94144465 61.4127843,5.5702699 61.0129959,6.3879673 C60.6132075,7.2056647 60.4133133,8.17965851 60.4133133,9.30994873 L60.4133133,9.32977295 C60.4133133,10.4533518 60.6132075,11.4249193 61.0129959,12.2444752 C61.4127843,13.0640311 61.9782908,13.6954376 62.7095153,14.1386948 C63.4407399,14.5819519 64.3035581,14.8035805 65.2979698,14.8035805 Z M65.3007576,13.2771156 C64.6452161,13.2771156 64.0851819,13.120845 63.620655,12.8083038 C63.1561281,12.4957626 62.7994987,12.0453554 62.5507667,11.457082 C62.3020347,10.8688086 62.1776687,10.1597056 62.1776687,9.32977295 L62.1776687,9.30994873 C62.1776687,8.47516327 62.3020347,7.76456312 62.5507667,7.17814827 C62.7994987,6.59173342 63.1561281,6.14344279 63.620655,5.83327637 C64.0851819,5.52310994 64.6433576,5.36802673 65.295182,5.36802673 C65.9507235,5.36802673 66.5107577,5.52264531 66.9752845,5.83188248 C67.4398114,6.14111964 67.7959762,6.58941027 68.0437789,7.17675438 C68.2915817,7.76409849 68.4154831,8.47516327 68.4154831,9.30994873 L68.4154831,9.32977295 C68.4154831,10.1597056 68.2915817,10.8688086 68.0437789,11.457082 C67.7959762,12.0453554 67.4407407,12.4957626 66.9780723,12.8083038 C66.515404,13.120845 65.956299,13.2771156 65.3007576,13.2771156 Z" id="Shape"></path>
                    <path d="M72.1762132,14.6124626 L73.9009202,14.6124626 L73.9009202,8.0633461 C73.9009202,7.54130834 74.01318,7.08764865 74.2376996,6.70236702 C74.4622193,6.31708539 74.7734698,6.01819916 75.1714513,5.80570831 C75.5694328,5.59321747 76.0278421,5.48697205 76.5466791,5.48697205 C76.7438887,5.48697205 76.9267465,5.49569677 77.0952524,5.51314621 C77.2637582,5.53059565 77.4214743,5.5549113 77.5684007,5.58609314 L77.5684007,3.91094666 C77.4880713,3.89773051 77.3725075,3.88286235 77.2217092,3.86634216 C77.0709109,3.84982198 76.9147694,3.84156189 76.7532846,3.84156189 C76.0718271,3.84156189 75.4958406,4.00240135 75.0253252,4.32408028 C74.5548097,4.6457592 74.2217732,5.09208806 74.0262155,5.66306686 L73.9009202,5.66306686 L73.9009202,4.03267975 L72.1762132,4.03267975 L72.1762132,14.6124626 Z" id="Path"></path>
                    <path d="M83.4058932,14.8035805 C84.0151782,14.8035805 84.5693271,14.7235608 85.0683398,14.5635216 C85.5673526,14.4034823 86.0028143,14.1854159 86.3747249,13.9093224 C86.7466355,13.6332288 87.0508133,13.3208683 87.2872584,12.9722408 C87.5237035,12.6236134 87.6872534,12.2592143 87.7779079,11.8790436 L87.7977321,11.794326 L86.0813884,11.794326 L86.0445277,11.883535 C85.9501562,12.1189476 85.7873291,12.3427961 85.5560466,12.5550804 C85.324764,12.7673648 85.0325633,12.9395877 84.6794444,13.0717491 C84.3263255,13.2039106 83.9150246,13.2699913 83.4455417,13.2699913 C82.8053846,13.2699913 82.2501774,13.1281242 81.7799201,12.8443901 C81.3096628,12.560656 80.9470706,12.1527365 80.6921435,11.6206318 C80.4372165,11.088527 80.3097529,10.4471568 80.3097529,9.696521 L80.3097529,9.01800613 C80.3097529,8.22772191 80.4400559,7.56157138 80.7006618,7.01955452 C80.9612676,6.47753766 81.3155997,6.06796621 81.7636581,5.79084015 C82.2117164,5.51371409 82.7194797,5.37515106 83.2869479,5.37515106 C83.8544162,5.37515106 84.3567588,5.50710602 84.7939757,5.77101593 C85.2311927,6.03492584 85.5739607,6.43504982 85.8222796,6.97138786 C86.0705986,7.50772591 86.1947581,8.189932 86.1947581,9.01800613 L86.1947581,9.696521 L87.0527751,8.44031601 L79.4346995,8.44031601 L79.4346995,9.80989075 L87.9265895,9.80989075 L87.9265895,9.14686356 C87.9265895,8.09225642 87.7413053,7.16673902 87.370737,6.37031136 C87.0001686,5.57388369 86.4690706,4.95331853 85.7774428,4.50861588 C85.0858151,4.06391322 84.2589541,3.84156189 83.29686,3.84156189 C82.3395155,3.84156189 81.5043944,4.07382533 80.791497,4.5383522 C80.0785995,5.00287908 79.5269544,5.64822451 79.1365619,6.4743885 C78.7461693,7.3005525 78.550973,8.25983302 78.550973,9.35223007 L78.550973,9.36214218 C78.550973,10.4678586 78.7457047,11.4283782 79.135168,12.2437008 C79.5246313,13.0590234 80.081697,13.6895007 80.8063651,14.1351326 C81.5310332,14.5807645 82.3975426,14.8035805 83.4058932,14.8035805 Z" id="Path"></path>
                </g>
                <g id="Apple-dark-logo" transform="translate(11.068967, 7.734316)" fill="#000000" fill-rule="nonzero">
                    <path d="M21.9203481,25.8079741 C20.692843,27.6042643 19.4231018,29.3895054 17.418364,29.426925 C15.445377,29.4643446 14.8128693,28.2574875 12.5615081,28.2574875 C10.307784,28.2574875 9.60276601,29.3895054 7.73993257,29.4643446 C5.80455936,29.5368268 4.3329267,27.5242688 3.09530566,25.7360813 C0.566884472,22.079858 -1.36290648,15.3980946 1.23245745,10.8888509 C2.51767533,8.64946205 4.82063549,7.23258348 7.31624248,7.19517857 C9.21688166,7.160175 11.0123589,8.47744955 12.1732608,8.47744955 C13.335935,8.47744955 15.515229,6.89590982 17.8063158,7.12788214 C18.7653411,7.16752634 21.4569324,7.51458616 23.1855112,10.0457156 C23.0489084,10.135567 19.9727618,11.9264652 20.0102722,15.6575277 C20.0479303,20.1144429 23.913124,21.5959071 23.9580183,21.6160902 C23.9230184,21.7208357 23.3401307,23.7310366 21.9203481,25.8079741 Z M13.5031072,2.23187545 C14.5641784,0.987642857 16.3569974,0.062184375 17.83659,1.77635684e-15 C18.0256186,1.72830134 17.3307905,3.45898929 16.3045715,4.70609464 C15.2762849,5.95096071 13.5930435,6.92068929 11.94111,6.79120848 C11.7166384,5.10031205 12.5492507,3.33684509 13.5031072,2.23187545 Z" id="logo"></path>
                </g>
            </g>
        </g>
    </g>
</svg>