<svg id="apple-store" xmlns="http://www.w3.org/2000/svg" width="156" height="45" viewBox="0 0 156 45">
  <defs>
    <style>
      .cls-1, .cls-2 {
        fill-rule: evenodd;
      }

      .cls-2 {
        fill: #fff;
      }
    </style>
  </defs>
  <g id="group">
    <path id="Color_Fill_3" data-name="Color Fill 3" class="cls-1" d="M154.517,43.525a4.479,4.479,0,0,1-3.17,1.31H4.653A4.484,4.484,0,0,1,.164,40.357V4.648A4.49,4.49,0,0,1,4.653.164H151.346a4.483,4.483,0,0,1,4.483,4.484V40.357A4.481,4.481,0,0,1,154.517,43.525Z"/>
    <path id="Color_Fill_4" data-name="Color Fill 4" class="cls-2" d="M37.576,16.567a6.942,6.942,0,0,0-5.467-2.956c-2.3-.242-4.53,1.376-5.7,1.376-1.195,0-3-1.353-4.943-1.313a7.279,7.279,0,0,0-6.126,3.737C12.688,22,14.664,28.738,17.2,32.445c1.27,1.817,2.753,3.843,4.7,3.772,1.9-.077,2.61-1.21,4.9-1.21,2.272,0,2.938,1.21,4.919,1.165,2.039-.032,3.323-1.824,4.548-3.656a14.987,14.987,0,0,0,2.08-4.236,6.557,6.557,0,0,1-4-6.026A6.778,6.778,0,0,1,37.576,16.567ZM32.134,6.392A6.8,6.8,0,0,0,27.74,8.665a6.349,6.349,0,0,0-1.567,4.6,5.613,5.613,0,0,0,4.433-2.1A6.671,6.671,0,0,0,32.134,6.392Z"/>
    <g id="group-2" data-name="group">
      <path id="Color_Fill_6" data-name="Color Fill 6" class="cls-2" d="M59.212,35.956l-1.454-4.57H52.7l-1.386,4.57H48.732L53.741,20.4h3.094l5.032,15.559H59.212ZM56,25.406q-0.209-.622-0.785-2.931H55.173q-0.232.993-.739,2.931L53.14,29.469h4.179Zm17.167,9.326a4.559,4.559,0,0,1-3.458,1.478,3.462,3.462,0,0,1-3.2-1.591v5.887H64.016V28.425q0-1.8-.092-3.687h2.192l0.139,1.778H66.3a4.434,4.434,0,0,1,7.1-.441,6.2,6.2,0,0,1,1.326,4.134A6.353,6.353,0,0,1,73.171,34.732ZM71.447,27.6a2.554,2.554,0,0,0-2.17-1.107A2.592,2.592,0,0,0,67.6,27.1a2.836,2.836,0,0,0-.981,1.605,3.253,3.253,0,0,0-.116.759v1.872a3,3,0,0,0,.751,2.067,2.492,2.492,0,0,0,1.95.843A2.555,2.555,0,0,0,71.4,33.163a4.775,4.775,0,0,0,.786-2.863A4.625,4.625,0,0,0,71.447,27.6Zm14.627,7.134a4.562,4.562,0,0,1-3.46,1.478,3.462,3.462,0,0,1-3.2-1.591v5.887H76.919V28.425q0-1.8-.092-3.687h2.192l0.139,1.778H79.2a4.436,4.436,0,0,1,7.1-.441,6.21,6.21,0,0,1,1.326,4.134A6.353,6.353,0,0,1,86.075,34.732ZM84.349,27.6a2.55,2.55,0,0,0-2.168-1.107,2.6,2.6,0,0,0-1.675.611,2.834,2.834,0,0,0-.98,1.605,3.33,3.33,0,0,0-.117.759v1.872a3.012,3.012,0,0,0,.749,2.067,2.5,2.5,0,0,0,1.953.843A2.552,2.552,0,0,0,84.3,33.163a4.775,4.775,0,0,0,.786-2.863A4.625,4.625,0,0,0,84.349,27.6Zm16.325,7.226a6.13,6.13,0,0,1-4.238,1.362,7.4,7.4,0,0,1-4.029-.969l0.576-2.078a6.935,6.935,0,0,0,3.6.97,3.4,3.4,0,0,0,2.192-.635,2.074,2.074,0,0,0,.787-1.7,2.173,2.173,0,0,0-.648-1.594,6,6,0,0,0-2.147-1.2q-4.086-1.524-4.087-4.457a3.935,3.935,0,0,1,1.443-3.139,5.7,5.7,0,0,1,3.821-1.224,7.546,7.546,0,0,1,3.532.739l-0.625,2.032a6.176,6.176,0,0,0-2.99-.715,3.04,3.04,0,0,0-2.062.647,1.85,1.85,0,0,0-.626,1.41,1.906,1.906,0,0,0,.717,1.523A8.073,8.073,0,0,0,98.152,27a7.666,7.666,0,0,1,2.955,1.892,3.942,3.942,0,0,1,.95,2.7A4.156,4.156,0,0,1,100.674,34.825Zm6.9-8.217v5.447q0,2.078,1.455,2.076a4.38,4.38,0,0,0,1.107-.116l0.069,1.893a5.649,5.649,0,0,1-1.939.276,2.989,2.989,0,0,1-2.309-.9,4.42,4.42,0,0,1-.831-3.025V26.6h-1.637V24.733h1.637V22.678l2.448-.739v2.793h2.748v1.875h-2.748ZM121.214,34.5a5.267,5.267,0,0,1-4.108,1.708,5.023,5.023,0,0,1-3.937-1.637,5.97,5.97,0,0,1-1.466-4.132,6.1,6.1,0,0,1,1.512-4.27,5.239,5.239,0,0,1,4.075-1.663,5.128,5.128,0,0,1,3.97,1.639,5.892,5.892,0,0,1,1.432,4.106A6.152,6.152,0,0,1,121.214,34.5Zm-1.773-6.837a2.468,2.468,0,0,0-2.241-1.336,2.5,2.5,0,0,0-2.285,1.336,5.1,5.1,0,0,0-.669,2.694,5.005,5.005,0,0,0,.669,2.648,2.557,2.557,0,0,0,4.5-.022A5.56,5.56,0,0,0,119.441,27.665Zm10.571-.8a2.352,2.352,0,0,0-2.032.994,3.742,3.742,0,0,0-.622,2.216v5.887h-2.492V28.27q0-1.767-.073-3.532h2.171l0.091,2.147h0.069a3.85,3.85,0,0,1,1.247-1.778,3.013,3.013,0,0,1,1.8-.6,4,4,0,0,1,.624.046l0,2.378A4.327,4.327,0,0,0,130.012,26.86Zm11.843,4.086h-7.478a3.252,3.252,0,0,0,1.085,2.542,3.71,3.71,0,0,0,2.446.783,8.267,8.267,0,0,0,3.025-.53l0.391,1.729a9.357,9.357,0,0,1-3.761.693,5.45,5.45,0,0,1-4.1-1.534,5.669,5.669,0,0,1-1.489-4.12,6.425,6.425,0,0,1,1.387-4.223,4.776,4.776,0,0,1,3.922-1.8,4.182,4.182,0,0,1,3.673,1.8,6.057,6.057,0,0,1,.989,3.528A5.868,5.868,0,0,1,141.855,30.947Zm-2.77-3.693a2.177,2.177,0,0,0-1.985-1.041,2.363,2.363,0,0,0-1.984,1.016,3.724,3.724,0,0,0-.738,1.939l5.191,0A3.37,3.37,0,0,0,139.085,27.253Z"/>
    </g>
    <g id="group-3" data-name="group">
      <path id="Color_Fill_7" data-name="Color Fill 7" class="cls-2" d="M50.191,14.805V7.283a13.571,13.571,0,0,1,2.11-.159c2.859,0,4.175,1.406,4.175,3.7,0,2.645-1.555,4.073-4.493,4.073A15.914,15.914,0,0,1,50.191,14.805Zm1.224-6.637v5.718a6.487,6.487,0,0,0,.828.034c1.873,0,2.939-1.066,2.939-3.063A2.5,2.5,0,0,0,52.4,8.088,5,5,0,0,0,51.415,8.168Zm6.509,3.949A2.685,2.685,0,0,1,60.67,9.2a2.6,2.6,0,0,1,2.655,2.826,2.7,2.7,0,0,1-2.746,2.926A2.624,2.624,0,0,1,57.924,12.117Zm1.25-.035c0,1.135.579,1.963,1.44,1.963s1.44-.885,1.44-1.986c0-1.122-.567-1.962-1.429-1.962C59.74,10.1,59.173,10.925,59.173,12.082ZM72.512,9.315l-1.725,5.514H69.664L68.95,12.434a18.137,18.137,0,0,1-.443-1.781H68.484a11.95,11.95,0,0,1-.442,1.781l-0.76,2.394H66.146L64.524,9.315h1.259l0.624,2.621q0.221,0.936.374,1.77H66.8c0.09-.464.237-1.044,0.454-1.758l0.783-2.632h1l0.749,2.576c0.181,0.624.329,1.237,0.443,1.816h0.033a15.873,15.873,0,0,1,.374-1.816l0.67-2.576h1.2Zm5.123,5.514V11.663c0-.975-0.374-1.464-1.112-1.464a1.273,1.273,0,0,0-1.225,1.35v3.28H74.073V10.891c0-.488-0.012-1.01-0.046-1.577h1.078l0.057,0.851H75.2A1.981,1.981,0,0,1,76.945,9.2c1.157,0,1.918.885,1.918,2.325v3.3H77.636Zm3.378,0V6.785H82.24v8.044H81.014Zm3.039-2.711A2.685,2.685,0,0,1,86.8,9.2a2.6,2.6,0,0,1,2.655,2.826,2.7,2.7,0,0,1-2.745,2.926A2.625,2.625,0,0,1,84.052,12.117Zm1.249-.035c0,1.135.58,1.963,1.439,1.963s1.44-.885,1.44-1.986c0-1.122-.565-1.962-1.428-1.962C85.868,10.1,85.3,10.925,85.3,12.082Zm8.894,2.111H94.162a1.882,1.882,0,0,1-1.612.76,1.6,1.6,0,0,1-1.689-1.623c0-1.361,1.18-2.065,3.222-2.065v-0.1a0.99,0.99,0,0,0-1.145-1.09,2.58,2.58,0,0,0-1.44.409l-0.249-.806A3.524,3.524,0,0,1,93.141,9.2a1.969,1.969,0,0,1,2.168,2.281v2.031a8.336,8.336,0,0,0,.08,1.317h-1.1Zm-2.123-1a0.781,0.781,0,0,0,.841.862,1.173,1.173,0,0,0,1.2-1.122V12.082C92.754,12.082,92.072,12.412,92.072,13.194Zm9.13,0.749h-0.034a1.849,1.849,0,0,1-1.771,1.01c-1.329,0-2.314-1.169-2.314-2.814C97.084,10.415,98.1,9.2,99.5,9.2a1.657,1.657,0,0,1,1.555.749h0.025V6.785H102.3v6.558c0,0.533.013,1.032,0.046,1.486h-1.091Zm-1.415-3.789c-0.908,0-1.464.806-1.464,1.94a1.609,1.609,0,0,0,1.439,1.873,1.376,1.376,0,0,0,1.316-1.464V11.584A1.334,1.334,0,0,0,99.787,10.154Zm7.639,1.963A2.685,2.685,0,0,1,110.171,9.2a2.6,2.6,0,0,1,2.656,2.826,2.7,2.7,0,0,1-2.747,2.926A2.624,2.624,0,0,1,107.426,12.117Zm1.249-.035c0,1.135.579,1.963,1.439,1.963s1.441-.885,1.441-1.986c0-1.122-.565-1.962-1.429-1.962C109.242,10.1,108.675,10.925,108.675,12.082Zm9.515,2.746V11.663c0-.975-0.375-1.464-1.112-1.464a1.272,1.272,0,0,0-1.224,1.35v3.28h-1.227V10.891c0-.488-0.012-1.01-0.045-1.577h1.077l0.058,0.851h0.034A1.978,1.978,0,0,1,117.5,9.2c1.158,0,1.919.885,1.919,2.325v3.3H118.19Zm8.122-4.595v2.677c0,0.682.236,1.022,0.713,1.022a2.418,2.418,0,0,0,.544-0.057l0.034,0.931a2.72,2.72,0,0,1-.951.137c-0.966,0-1.543-.533-1.543-1.929v-2.78h-0.8V9.315h0.8V8.3l1.2-.364V9.314h1.348v0.92h-1.348Zm6.61,4.595V11.686c0-.987-0.373-1.486-1.112-1.486a1.2,1.2,0,0,0-1.226,1.3v3.324H129.36V6.785h1.224V10.1h0.024a1.859,1.859,0,0,1,1.658-.9c1.167,0,1.88.907,1.88,2.349v3.28h-1.224Zm4.193-2.462A1.582,1.582,0,0,0,138.852,14a4.14,4.14,0,0,0,1.486-.261l0.191,0.851a4.6,4.6,0,0,1-1.85.34,2.56,2.56,0,0,1-2.745-2.779,2.692,2.692,0,0,1,2.607-2.961,2.316,2.316,0,0,1,2.293,2.621,2.352,2.352,0,0,1-.042.555h-3.677Zm1.341-2.325a1.454,1.454,0,0,0-1.34,1.452h2.552A1.253,1.253,0,0,0,138.456,10.041Z"/>
    </g>
  </g>
</svg>
