<svg width="253" height="186" viewBox="0 0 253 186" fill="none" xmlns="http://www.w3.org/2000/svg">
<path d="M26 173.823C26 173.823 41.5765 84.1587 124.362 79.1727C207.175 74.1866 214.627 178.781 252 185" stroke="white" stroke-miterlimit="10"/>
<path d="M204.085 112.542C204.085 120.021 198.021 126.085 190.542 126.085C183.064 126.085 177 120.021 177 112.542C177 105.063 183.064 99 190.542 99C198.021 99 204.085 105.063 204.085 112.542Z" fill="#F7CB3C"/>
<path d="M78.2895 125.858C78.5764 128.861 76.3576 131.539 73.3545 131.826C70.3515 132.113 67.6736 129.894 67.4058 126.891C67.1189 123.888 69.3377 121.21 72.3408 120.942C75.3438 120.655 78.0217 122.874 78.3086 125.877" fill="white"/>
<path d="M51.8744 26.3552C51.8744 40.6818 40.2638 52.2923 25.9372 52.2923C11.6105 52.2923 0 40.6818 0 26.3552C0 12.0285 11.6105 0.417969 25.9372 0.417969C40.2638 0.417969 51.8744 12.0285 51.8744 26.3552Z" fill="#233E97"/>
</svg>
