<svg width="244" height="197" viewBox="0 0 244 197" fill="none" xmlns="http://www.w3.org/2000/svg">
<path d="M3.93369 185.475C3.93369 185.475 15.7771 95.2415 98.2844 86.8254C180.82 78.4082 192.604 182.604 230.203 187.267" stroke="#4953B4" stroke-miterlimit="10"/>
<path d="M243.085 123.542C243.085 131.021 237.021 137.085 229.542 137.085C222.064 137.085 216 131.021 216 123.542C216 116.063 222.064 110 229.542 110C237.021 110 243.085 116.063 243.085 123.542Z" fill="#F7CB3C"/>
<path d="M150.909 149.941C151.196 152.944 148.977 155.622 145.974 155.909C142.971 156.196 140.293 153.977 140.025 150.974C139.738 147.971 141.957 145.293 144.96 145.025C147.963 144.738 150.641 146.957 150.928 149.96" fill="#7179C4"/>
<path d="M130.874 25.9372C130.874 40.2638 119.264 51.8744 104.937 51.8744C90.6105 51.8744 79 40.2638 79 25.9372C79 11.6105 90.6105 0 104.937 0C119.264 0 130.874 11.6105 130.874 25.9372Z" fill="#233E97"/>
</svg>
