<svg width="64" height="133" viewBox="0 0 64 133" fill="none" xmlns="http://www.w3.org/2000/svg">
<path d="M-1.13019 1C-1.13019 1 30.3707 9.00016 29.301 69.5005C28.6733 105 4.00038 122 -1.13007 130.708" stroke="#4953B4" stroke-miterlimit="10"/>
<path d="M63.0849 101.542C63.0849 109.021 57.0214 115.085 49.5425 115.085C42.0635 115.085 36 109.021 36 101.542C36 94.0635 42.0635 88 49.5425 88C57.0214 88 63.0849 94.0635 63.0849 101.542Z" fill="#F7CB3C"/>
<path d="M19.9087 67.9408C20.1956 70.9439 17.9767 73.6217 14.9737 73.9087C11.9706 74.1956 9.29276 71.9768 9.02497 68.9737C8.73806 65.9707 10.9569 63.2928 13.9599 63.025C16.963 62.7381 19.6408 64.9569 19.9277 67.96" fill="#7179C4"/>
</svg>
