<svg width="155" height="52" viewBox="0 0 155 52" fill="none" xmlns="http://www.w3.org/2000/svg">
<g clip-path="url(#clip0_408_4390)">
<path d="M142.657 -7.51406e-05H12.3502C11.8752 -7.51406e-05 11.4059 -7.51406e-05 10.9322 0.00252486C10.5357 0.00512486 10.1423 0.0126779 9.7419 0.0190349C8.87213 0.0293072 8.0044 0.106104 7.14626 0.248758C6.28932 0.394517 5.45923 0.669315 4.68406 1.06386C3.90984 1.46174 3.20241 1.97874 2.58744 2.59612C1.96924 3.21175 1.45392 3.92335 1.0613 4.70353C0.667594 5.48217 0.394599 6.31654 0.25174 7.17785C0.107523 8.03806 0.0299192 8.9082 0.0196237 9.78045C0.00760337 10.179 0.00633398 10.5789 0 10.9776V41.0261C0.00633398 41.4297 0.00760337 41.8208 0.0196237 42.2246C0.0299223 43.0968 0.107527 43.9669 0.25174 44.827C0.394204 45.6888 0.667216 46.5237 1.0613 47.3026C1.45374 48.0803 1.96913 48.789 2.58744 49.4012C3.20008 50.0213 3.90797 50.5387 4.68406 50.9335C5.45923 51.3291 6.28923 51.6056 7.14626 51.7536C8.00455 51.8951 8.87218 51.9719 9.7419 51.9834C10.1423 51.9922 10.5357 51.9973 10.9322 51.9973C11.4059 51.9999 11.8752 51.9999 12.3502 51.9999H142.657C143.122 51.9999 143.595 51.9999 144.061 51.9973C144.456 51.9973 144.86 51.9922 145.255 51.9834C146.123 51.9725 146.989 51.8957 147.846 51.7536C148.705 51.6045 149.538 51.3282 150.317 50.9335C151.093 50.5385 151.8 50.0211 152.412 49.4012C153.029 48.7866 153.545 48.0784 153.943 47.3026C154.334 46.5231 154.604 45.6883 154.744 44.827C154.889 43.9667 154.969 43.0968 154.985 42.2246C154.99 41.8208 154.99 41.4297 154.99 41.0261C155 40.5538 155 40.0841 155 39.6042V12.3969C155 11.9208 155 11.4486 154.99 10.9776C154.99 10.5789 154.99 10.179 154.985 9.7804C154.969 8.90807 154.889 8.03813 154.744 7.1778C154.604 6.31699 154.333 5.48268 153.943 4.70348C153.143 3.13968 151.875 1.86676 150.317 1.06374C149.538 0.670162 148.705 0.395437 147.846 0.248641C146.989 0.105358 146.123 0.0285349 145.255 0.0188529C144.86 0.0125089 144.456 0.00489086 144.061 0.00235586C143.595 -0.000244141 143.122 -0.000244141 142.657 -0.000244141V-7.51406e-05Z" fill="#A6A6A6"/>
<path d="M10.9385 50.8624C10.5439 50.8624 10.1588 50.8574 9.7672 50.8485C8.95607 50.8379 8.14683 50.7671 7.34612 50.6365C6.5995 50.5075 5.87623 50.2674 5.20015 49.9242C4.53028 49.5839 3.91931 49.1377 3.39063 48.6027C2.8543 48.0739 2.40778 47.4607 2.06877 46.7872C1.72602 46.1094 1.48882 45.3828 1.36543 44.6329C1.23217 43.827 1.16008 43.0122 1.14976 42.1954C1.14155 41.9212 1.1308 41.0083 1.1308 41.0083V10.9776C1.1308 10.9776 1.14225 10.0788 1.14983 9.81469C1.1597 8.99918 1.23138 8.1856 1.36424 7.381C1.48786 6.62898 1.72524 5.90032 2.06818 5.22027C2.40594 4.54728 2.84998 3.93357 3.38308 3.40294C3.91558 2.86726 4.52851 2.41874 5.19952 2.07372C5.87404 1.73167 6.59594 1.4933 7.34105 1.3666C8.14439 1.23474 8.95644 1.16345 9.77039 1.15332L10.9392 1.13745H144.055L145.237 1.15396C146.044 1.16358 146.848 1.23424 147.644 1.36533C148.397 1.49362 149.127 1.73365 149.809 2.07753C151.153 2.77283 152.247 3.87286 152.937 5.22344C153.274 5.8988 153.508 6.62151 153.63 7.36704C153.765 8.17824 153.84 8.99821 153.855 9.82041C153.859 10.1886 153.859 10.584 153.859 10.9776C153.869 11.4651 153.869 11.9291 153.869 12.3969V39.6042C153.869 40.0765 153.869 40.5373 153.859 41.0019C153.859 41.4247 153.859 41.812 153.854 42.2106C153.839 43.0181 153.765 43.8234 153.633 44.6201C153.512 45.3755 153.276 46.1077 152.933 46.7911C152.592 47.4573 152.148 48.0652 151.618 48.5925C151.088 49.1304 150.476 49.5793 149.805 49.9218C149.125 50.2676 148.396 50.5085 147.644 50.6365C146.844 50.7678 146.034 50.8386 145.223 50.8485C144.844 50.8574 144.447 50.8624 144.061 50.8624L142.657 50.865L10.9385 50.8624Z" fill="black"/>
<path d="M32.083 26.391C32.0969 25.306 32.3841 24.2421 32.9178 23.2983C33.4514 22.3546 34.2143 21.5617 35.1354 20.9933C34.5503 20.1546 33.7783 19.4644 32.8809 18.9775C31.9835 18.4906 30.9853 18.2204 29.9657 18.1884C27.7906 17.9592 25.6819 19.4946 24.5735 19.4946C23.4437 19.4946 21.7371 18.2111 19.8994 18.249C18.7108 18.2876 17.5523 18.6345 16.537 19.256C15.5216 19.8775 14.684 20.7523 14.1057 21.7953C11.6006 26.1482 13.4692 32.5456 15.8688 36.0642C17.0695 37.7871 18.4726 39.7117 20.3086 39.6435C22.1053 39.5687 22.7763 38.4936 24.945 38.4936C27.0936 38.4936 27.7231 39.6435 29.5964 39.6001C31.5243 39.5687 32.7389 37.8695 33.8974 36.1302C34.7601 34.9025 35.4239 33.5457 35.8642 32.1099C34.7442 31.6345 33.7884 30.8387 33.1159 29.8217C32.4435 28.8047 32.0843 27.6115 32.083 26.391Z" fill="white"/>
<path d="M28.5447 15.8742C29.5959 14.6078 30.1137 12.9799 29.9883 11.3364C28.3824 11.5057 26.8989 12.276 25.8336 13.4939C25.3127 14.0889 24.9137 14.7811 24.6595 15.5309C24.4053 16.2807 24.3009 17.0734 24.3521 17.8637C25.1554 17.872 25.9501 17.6973 26.6763 17.3527C27.4025 17.0081 28.0413 16.5026 28.5447 15.8742Z" fill="white"/>
<path d="M54.7938 35.2817H48.6627L47.1903 39.6451H44.5934L50.4007 23.5017H53.0988L58.9061 39.6451H56.2649L54.7938 35.2817ZM49.2977 33.2682H54.1576L51.7619 26.1868H51.6948L49.2977 33.2682Z" fill="white"/>
<path d="M71.448 33.7606C71.448 37.4182 69.4974 39.768 66.5539 39.768C65.8083 39.8072 65.0667 39.6348 64.4142 39.2706C63.7616 38.9065 63.2244 38.3652 62.8641 37.7088H62.8084V43.5385H60.4012V27.8751H62.7313V29.8327H62.7756C63.1524 29.1795 63.6987 28.641 64.3562 28.2746C65.0138 27.9082 65.758 27.7276 66.5097 27.7519C69.486 27.7519 71.448 30.1133 71.448 33.7606ZM68.9737 33.7606C68.9737 31.3777 67.7467 29.8111 65.8746 29.8111C64.0354 29.8111 62.7983 31.4107 62.7983 33.7606C62.7983 36.1321 64.0354 37.7203 65.8746 37.7203C67.7468 37.7203 68.9737 36.1651 68.9737 33.7606Z" fill="white"/>
<path d="M84.3554 33.7606C84.3554 37.4181 82.4048 39.768 79.4613 39.768C78.7157 39.8072 77.9741 39.6348 77.3216 39.2706C76.669 38.9064 76.1318 38.3652 75.7715 37.7088H75.7158V43.5385H73.3087V27.8751H75.6387V29.8327H75.6829C76.0598 29.1795 76.6061 28.641 77.2636 28.2746C77.9211 27.9082 78.6653 27.7276 79.417 27.7519C82.3934 27.7519 84.3554 30.1132 84.3554 33.7606ZM81.8811 33.7606C81.8811 31.3777 80.6542 29.8111 78.7821 29.8111C76.9428 29.8111 75.7057 31.4107 75.7057 33.7606C75.7057 36.1321 76.9428 37.7203 78.7821 37.7203C80.6542 37.7203 81.8812 36.1651 81.8812 33.7606H81.8811Z" fill="white"/>
<path d="M92.8861 35.147C93.0644 36.7479 94.614 37.799 96.7315 37.799C98.7604 37.799 100.22 36.7479 100.22 35.3044C100.22 34.0514 99.3398 33.3011 97.2552 32.7869L95.1705 32.2829C92.2169 31.5669 90.8457 30.1806 90.8457 27.931C90.8457 25.1456 93.2643 23.2324 96.6986 23.2324C100.097 23.2324 102.427 25.1456 102.506 27.931H100.076C99.9305 26.3199 98.6035 25.3475 96.6644 25.3475C94.7253 25.3475 93.3983 26.3314 93.3983 27.7634C93.3983 28.9047 94.2459 29.5763 96.3191 30.0904L98.0912 30.5271C101.391 31.3104 102.763 32.6409 102.763 35.0022C102.763 38.0224 100.366 39.914 96.5531 39.914C92.986 39.914 90.5775 38.0669 90.4219 35.1469L92.8861 35.147Z" fill="white"/>
<path d="M107.958 25.0898V27.8752H110.188V29.7884H107.958V36.277C107.958 37.285 108.404 37.7547 109.385 37.7547C109.649 37.7501 109.914 37.7314 110.176 37.6988V39.6005C109.736 39.6832 109.288 39.7206 108.839 39.7123C106.465 39.7123 105.539 38.8172 105.539 36.5346V29.7884H103.834V27.8752H105.539V25.0898H107.958Z" fill="white"/>
<path d="M111.479 33.7607C111.479 30.0575 113.653 27.7305 117.041 27.7305C120.441 27.7305 122.604 30.0575 122.604 33.7607C122.604 37.4741 120.453 39.791 117.041 39.791C113.631 39.791 111.479 37.4741 111.479 33.7607ZM120.152 33.7607C120.152 31.2204 118.992 29.7211 117.041 29.7211C115.091 29.7211 113.932 31.2318 113.932 33.7607C113.932 36.3112 115.091 37.7991 117.041 37.7991C118.992 37.7991 120.152 36.3112 120.152 33.7607H120.152Z" fill="white"/>
<path d="M124.589 27.8752H126.885V29.8785H126.941C127.096 29.2528 127.461 28.6999 127.975 28.3127C128.489 27.9254 129.119 27.7274 129.761 27.752C130.039 27.7511 130.316 27.7813 130.586 27.8422V30.102C130.236 29.9946 129.871 29.9452 129.505 29.956C129.155 29.9417 128.806 30.0036 128.483 30.1374C128.159 30.2711 127.868 30.4736 127.63 30.7308C127.392 30.9881 127.212 31.294 127.102 31.6277C126.993 31.9614 126.957 32.3149 126.996 32.6639V39.645H124.589L124.589 27.8752Z" fill="white"/>
<path d="M141.685 36.1881C141.361 38.3247 139.288 39.791 136.635 39.791C133.224 39.791 131.106 37.497 131.106 33.8166C131.106 30.1248 133.235 27.7305 136.534 27.7305C139.778 27.7305 141.819 29.9674 141.819 33.536V34.3638H133.536V34.5098C133.498 34.9429 133.552 35.3793 133.695 35.7899C133.837 36.2005 134.065 36.5759 134.364 36.8912C134.662 37.2065 135.024 37.4545 135.425 37.6187C135.826 37.7829 136.258 37.8595 136.691 37.8435C137.26 37.897 137.83 37.7648 138.318 37.4665C138.806 37.1683 139.185 36.7199 139.399 36.1881L141.685 36.1881ZM133.547 32.6753H139.41C139.432 32.2858 139.373 31.8961 139.238 31.5305C139.102 31.1649 138.893 30.8314 138.622 30.5509C138.352 30.2704 138.027 30.049 137.668 29.9005C137.309 29.752 136.922 29.6797 136.534 29.6881C136.142 29.6857 135.753 29.7613 135.391 29.9105C135.028 30.0597 134.698 30.2794 134.42 30.5572C134.143 30.8349 133.923 31.1651 133.773 31.5286C133.623 31.8921 133.546 32.2819 133.547 32.6753V32.6753Z" fill="white"/>
<path d="M48.996 11.3501C49.5007 11.3138 50.0071 11.3903 50.4787 11.5741C50.9503 11.758 51.3754 12.0446 51.7233 12.4133C52.0712 12.7821 52.3332 13.2237 52.4905 13.7063C52.6477 14.189 52.6963 14.7006 52.6327 15.2044C52.6327 17.6825 51.2982 19.107 48.996 19.107H46.2043V11.3501H48.996ZM47.4047 18.01H48.8619C49.2225 18.0316 49.5834 17.9723 49.9183 17.8363C50.2532 17.7003 50.5536 17.4911 50.7978 17.2238C51.0419 16.9566 51.2236 16.6381 51.3297 16.2915C51.4357 15.9449 51.4634 15.5789 51.4107 15.2202C51.4596 14.8629 51.4291 14.4992 51.3214 14.1552C51.2138 13.8111 51.0316 13.4952 50.788 13.2301C50.5444 12.965 50.2454 12.7572 49.9124 12.6217C49.5794 12.4862 49.2207 12.4263 48.8619 12.4463H47.4047V18.01Z" fill="white"/>
<path d="M53.9887 16.1777C53.952 15.793 53.9959 15.4048 54.1174 15.0382C54.239 14.6715 54.4355 14.3343 54.6945 14.0483C54.9535 13.7624 55.2692 13.5339 55.6213 13.3775C55.9734 13.2211 56.3542 13.1404 56.7393 13.1404C57.1243 13.1404 57.5051 13.2211 57.8573 13.3775C58.2094 13.5339 58.5251 13.7624 58.7841 14.0483C59.043 14.3343 59.2396 14.6715 59.3612 15.0382C59.4827 15.4048 59.5266 15.793 59.4899 16.1777C59.5273 16.5628 59.4839 16.9514 59.3627 17.3187C59.2415 17.686 59.045 18.0238 58.786 18.3103C58.5269 18.5968 58.211 18.8258 57.8585 18.9825C57.506 19.1392 57.1248 19.2202 56.7393 19.2202C56.3538 19.2202 55.9725 19.1392 55.6201 18.9825C55.2676 18.8258 54.9517 18.5968 54.6926 18.3103C54.4336 18.0238 54.2371 17.686 54.1159 17.3187C53.9946 16.9514 53.9513 16.5628 53.9887 16.1777ZM58.3059 16.1777C58.3059 14.9088 57.7379 14.1667 56.7412 14.1667C55.7406 14.1667 55.1778 14.9088 55.1778 16.1777C55.1778 17.4567 55.7407 18.1931 56.7412 18.1931C57.738 18.1931 58.3059 17.4516 58.3059 16.1777H58.3059Z" fill="white"/>
<path d="M66.8025 19.107H65.6084L64.4029 14.7956H64.3118L63.1114 19.107H61.9287L60.321 13.2532H61.4885L62.5333 17.72H62.6193L63.8185 13.2532H64.9228L66.1219 17.72H66.213L67.2528 13.2532H68.4039L66.8025 19.107Z" fill="white"/>
<path d="M69.7561 13.2533H70.8642V14.1832H70.9502C71.0961 13.8492 71.3422 13.5692 71.6542 13.3823C71.9662 13.1953 72.3286 13.1107 72.6908 13.1403C72.9746 13.1189 73.2595 13.1618 73.5245 13.2659C73.7895 13.3701 74.0278 13.5327 74.2217 13.7418C74.4156 13.9509 74.5601 14.2011 74.6446 14.4739C74.729 14.7466 74.7512 15.035 74.7096 15.3175V19.107H73.5585V15.6076C73.5585 14.6669 73.1512 14.1991 72.2999 14.1991C72.1072 14.1901 71.9149 14.223 71.736 14.2956C71.5572 14.3681 71.3961 14.4787 71.2639 14.6196C71.1316 14.7605 71.0312 14.9284 70.9696 15.1119C70.9081 15.2954 70.8868 15.49 70.9072 15.6825V19.1071H69.7561L69.7561 13.2533Z" fill="white"/>
<path d="M76.5437 10.968H77.6948V19.107H76.5437V10.968Z" fill="white"/>
<path d="M79.295 16.1775C79.2583 15.7928 79.3022 15.4047 79.4238 15.038C79.5454 14.6712 79.742 14.3341 80.001 14.0481C80.26 13.7621 80.5757 13.5336 80.9278 13.3773C81.28 13.2209 81.6608 13.1401 82.0459 13.1401C82.431 13.1401 82.8118 13.2209 83.1639 13.3773C83.5161 13.5336 83.8318 13.7621 84.0908 14.0481C84.3498 14.3341 84.5464 14.6712 84.668 15.038C84.7896 15.4047 84.8334 15.7928 84.7968 16.1775C84.8341 16.5626 84.7907 16.9513 84.6695 17.3186C84.5482 17.6859 84.3517 18.0236 84.0926 18.3102C83.8336 18.5967 83.5176 18.8257 83.1651 18.9824C82.8127 19.139 82.4314 19.22 82.0459 19.22C81.6604 19.22 81.2791 19.139 80.9266 18.9824C80.5741 18.8257 80.2582 18.5967 79.9991 18.3102C79.74 18.0236 79.5435 17.6859 79.4223 17.3186C79.301 16.9513 79.2576 16.5626 79.295 16.1775ZM83.6122 16.1775C83.6122 14.9086 83.0442 14.1666 82.0475 14.1666C81.0469 14.1666 80.484 14.9086 80.484 16.1776C80.484 17.4566 81.0469 18.1929 82.0475 18.1929C83.0442 18.1929 83.6122 17.4515 83.6122 16.1775H83.6122Z" fill="white"/>
<path d="M86.0086 17.4515C86.0086 16.3977 86.7903 15.7903 88.178 15.7039L89.7579 15.6125V15.1073C89.7579 14.489 89.3506 14.1399 88.5638 14.1399C87.9212 14.1399 87.4759 14.3767 87.3482 14.7905H86.2338C86.3514 13.7851 87.2938 13.1401 88.6169 13.1401C90.0792 13.1401 90.9039 13.8707 90.9039 15.1073V19.1069H89.7958V18.2843H89.7047C89.5199 18.5794 89.2603 18.8199 88.9525 18.9814C88.6447 19.1429 88.2997 19.2195 87.9528 19.2034C87.708 19.2289 87.4605 19.2027 87.2263 19.1264C86.9922 19.0501 86.7766 18.9254 86.5934 18.7603C86.4102 18.5953 86.2636 18.3935 86.1628 18.1681C86.0621 17.9426 86.0096 17.6985 86.0086 17.4515ZM89.7579 16.9513V16.4619L88.3336 16.5533C87.5303 16.6072 87.166 16.8814 87.166 17.3975C87.166 17.9243 87.6214 18.2309 88.2476 18.2309C88.4311 18.2496 88.6164 18.231 88.7925 18.1763C88.9687 18.1215 89.1321 18.0318 89.273 17.9124C89.4139 17.793 89.5295 17.6464 89.6128 17.4813C89.6961 17.3162 89.7454 17.1359 89.7579 16.9513Z" fill="white"/>
<path d="M92.4167 16.1776C92.4167 14.3279 93.3642 13.1561 94.8378 13.1561C95.2023 13.1392 95.5641 13.2268 95.8808 13.4087C96.1976 13.5906 96.4562 13.8592 96.6264 14.1831H96.7125V10.968H97.8636V19.107H96.7605V18.1821H96.6695C96.486 18.5039 96.2184 18.7691 95.8956 18.9491C95.5727 19.1292 95.2069 19.2171 94.8378 19.2035C93.3541 19.2035 92.4167 18.0317 92.4167 16.1776ZM93.6058 16.1776C93.6058 17.4192 94.189 18.1663 95.1642 18.1663C96.1344 18.1663 96.734 17.4084 96.734 16.1826C96.734 14.9626 96.1281 14.1939 95.1642 14.1939C94.1953 14.1939 93.6058 14.9461 93.6058 16.1776H93.6058Z" fill="white"/>
<path d="M102.626 16.1777C102.589 15.793 102.633 15.4048 102.755 15.0382C102.876 14.6715 103.073 14.3343 103.332 14.0483C103.591 13.7624 103.907 13.5339 104.259 13.3775C104.611 13.2211 104.992 13.1404 105.377 13.1404C105.762 13.1404 106.142 13.2211 106.495 13.3775C106.847 13.5339 107.162 13.7624 107.421 14.0483C107.68 14.3343 107.877 14.6715 107.999 15.0382C108.12 15.4048 108.164 15.793 108.127 16.1777C108.165 16.5628 108.121 16.9514 108 17.3187C107.879 17.686 107.682 18.0238 107.423 18.3103C107.164 18.5968 106.848 18.8258 106.496 18.9825C106.143 19.1392 105.762 19.2202 105.377 19.2202C104.991 19.2202 104.61 19.1392 104.257 18.9825C103.905 18.8258 103.589 18.5968 103.33 18.3103C103.071 18.0238 102.874 17.686 102.753 17.3187C102.632 16.9514 102.589 16.5628 102.626 16.1777ZM106.943 16.1777C106.943 14.9088 106.375 14.1667 105.379 14.1667C104.378 14.1667 103.815 14.9088 103.815 16.1777C103.815 17.4567 104.378 18.1931 105.379 18.1931C106.375 18.1931 106.943 17.4516 106.943 16.1777Z" fill="white"/>
<path d="M109.672 13.2533H110.78V14.1832H110.866C111.012 13.8492 111.258 13.5692 111.57 13.3823C111.882 13.1953 112.244 13.1107 112.606 13.1403C112.89 13.1189 113.175 13.1618 113.44 13.2659C113.705 13.3701 113.943 13.5327 114.137 13.7418C114.331 13.9509 114.476 14.2011 114.56 14.4739C114.645 14.7466 114.667 15.035 114.625 15.3175V19.107H113.474V15.6076C113.474 14.6669 113.067 14.1991 112.216 14.1991C112.023 14.1901 111.83 14.223 111.652 14.2956C111.473 14.3681 111.312 14.4787 111.179 14.6196C111.047 14.7605 110.947 14.9284 110.885 15.1119C110.824 15.2954 110.802 15.49 110.823 15.6825V19.1071H109.672V13.2533Z" fill="white"/>
<path d="M121.129 11.7957V13.2797H122.393V14.2528H121.129V17.2629C121.129 17.8761 121.381 18.1446 121.954 18.1446C122.101 18.1441 122.247 18.1352 122.393 18.1179V19.0802C122.186 19.1173 121.977 19.1371 121.767 19.1392C120.487 19.1392 119.977 18.6873 119.977 17.5587V14.2528H119.051V13.2797H119.977V11.7957H121.129Z" fill="white"/>
<path d="M123.965 10.968H125.106V14.1939H125.198C125.351 13.8568 125.603 13.5752 125.922 13.3876C126.24 13.1999 126.608 13.1153 126.976 13.1453C127.258 13.1299 127.541 13.1772 127.803 13.2838C128.065 13.3905 128.3 13.5538 128.492 13.7623C128.684 13.9707 128.827 14.2191 128.912 14.4897C128.998 14.7602 129.022 15.0464 128.985 15.3276V19.107H127.832V15.6126C127.832 14.6776 127.399 14.204 126.585 14.204C126.387 14.1878 126.188 14.2151 126.002 14.284C125.816 14.353 125.647 14.462 125.507 14.6033C125.367 14.7447 125.26 14.915 125.192 15.1024C125.125 15.2898 125.099 15.4897 125.117 15.6881V19.107H123.966L123.965 10.968Z" fill="white"/>
<path d="M135.697 17.5265C135.54 18.0615 135.201 18.5242 134.739 18.8338C134.277 19.1434 133.721 19.2801 133.169 19.22C132.785 19.2302 132.403 19.1563 132.05 19.0035C131.697 18.8507 131.381 18.6227 131.125 18.3352C130.869 18.0477 130.678 17.7077 130.566 17.3388C130.453 16.9698 130.422 16.5807 130.475 16.1985C130.424 15.8152 130.455 15.4253 130.567 15.0552C130.679 14.6851 130.869 14.3435 131.124 14.0535C131.379 13.7635 131.693 13.5319 132.045 13.3743C132.397 13.2168 132.779 13.1369 133.164 13.1402C134.787 13.1402 135.766 14.253 135.766 16.0912V16.4944H131.647V16.5591C131.629 16.7739 131.656 16.9901 131.726 17.1939C131.797 17.3977 131.908 17.5845 132.055 17.7424C132.201 17.9003 132.378 18.0258 132.576 18.1108C132.773 18.1958 132.986 18.2385 133.201 18.2361C133.476 18.2693 133.755 18.2195 134.002 18.0931C134.249 17.9668 134.453 17.7695 134.588 17.5264L135.697 17.5265ZM131.647 15.6399H134.593C134.608 15.4435 134.581 15.2461 134.515 15.0606C134.449 14.8751 134.345 14.7054 134.21 14.5626C134.075 14.4198 133.911 14.307 133.73 14.2313C133.549 14.1557 133.354 14.119 133.158 14.1235C132.959 14.121 132.761 14.1585 132.577 14.2338C132.392 14.3092 132.225 14.4208 132.084 14.5621C131.943 14.7034 131.832 14.8716 131.757 15.0567C131.682 15.2418 131.645 15.4401 131.647 15.6399H131.647Z" fill="white"/>
</g>
<defs>
<clipPath id="clip0_408_4390">
<rect width="155" height="52" fill="white"/>
</clipPath>
</defs>
</svg>
