<svg width="1162" height="498" viewBox="0 0 1162 498" fill="none" xmlns="http://www.w3.org/2000/svg">
<path d="M283.568 232.158H32.9951V482.196H283.568V232.158Z" fill="#3258A8"/>
<path d="M26 485.823C26 485.823 41.5765 396.159 124.362 391.173C207.175 386.187 214.627 490.781 252 497" stroke="white" stroke-miterlimit="10"/>
<path d="M869 1C876.814 30.1714 874.407 83.5842 936.295 91.8981C998.183 100.183 1013.81 55.463 1055.85 103.45C1097.92 151.408 1161 146.886 1161 146.886" stroke="white" stroke-miterlimit="10"/>
<path d="M1003.57 156.037C1003.57 165.727 995.727 173.575 986.037 173.575C976.348 173.575 968.5 165.727 968.5 156.037C968.5 146.348 976.348 138.5 986.037 138.5C995.727 138.5 1003.57 146.348 1003.57 156.037Z" stroke="white"/>
<path d="M1072.52 111.758C1072.52 118.797 1066.8 124.516 1059.76 124.516C1052.72 124.516 1047 118.797 1047 111.758C1047 104.719 1052.7 99 1059.76 99C1066.82 99 1072.52 104.719 1072.52 111.758Z" fill="#F7CB3C"/>
<path d="M968.075 53.0375C968.075 63.003 960.003 71.0749 950.037 71.0749C940.072 71.0749 932 63.003 932 53.0375C932 43.0719 940.072 35 950.037 35C960.003 35 968.075 43.0719 968.075 53.0375Z" fill="#233E97"/>
<path d="M204.085 424.542C204.085 432.021 198.021 438.085 190.542 438.085C183.064 438.085 177 432.021 177 424.542C177 417.063 183.064 411 190.542 411C198.021 411 204.085 417.063 204.085 424.542Z" fill="#F7CB3C"/>
<path d="M78.2895 437.858C78.5764 440.861 76.3576 443.539 73.3545 443.826C70.3515 444.113 67.6736 441.894 67.4058 438.891C67.1189 435.888 69.3377 433.21 72.3408 432.942C75.3438 432.655 78.0217 434.874 78.3086 437.877" fill="white"/>
<path d="M190.504 45.7521C190.504 49.482 187.482 52.5042 183.752 52.5042C180.022 52.5042 177 49.482 177 45.7521C177 42.0222 180.022 39 183.752 39C187.482 39 190.504 42.0222 190.504 45.7521Z" fill="#233E97"/>
<path d="M51.8744 338.355C51.8744 352.682 40.2638 364.292 25.9372 364.292C11.6105 364.292 0 352.682 0 338.355C0 324.028 11.6105 312.418 25.9372 312.418C40.2638 312.418 51.8744 324.028 51.8744 338.355Z" fill="#233E97"/>
<path d="M158 80L140.136 62L122.272 80L104.407 62L86.5432 80L68.6791 62L50.8148 80L33 62" stroke="white" stroke-width="1.17" stroke-linecap="round" stroke-linejoin="round"/>
<path d="M1131 265L1120.14 254L1109.28 265L1098.42 254L1087.55 265L1076.69 254L1065.83 265L1055 254" stroke="white" stroke-width="1.17" stroke-linecap="round" stroke-linejoin="round"/>
</svg>
