<svg width="68" height="68" viewBox="0 0 68 68" fill="none" xmlns="http://www.w3.org/2000/svg">
<g filter="url(#filter0_d_2833_2176)">
<mask id="mask0_2833_2176" style="mask-type:alpha" maskUnits="userSpaceOnUse" x="18" y="12" width="32" height="32">
<rect x="18" y="12" width="32" height="32" fill="#D9D9D9"/>
</mask>
<g mask="url(#mask0_2833_2176)">
<path d="M33.9998 34.667C34.3776 34.667 34.6945 34.539 34.9505 34.283C35.2056 34.0279 35.3332 33.7114 35.3332 33.3337C35.3332 32.9559 35.2056 32.639 34.9505 32.383C34.6945 32.1279 34.3776 32.0003 33.9998 32.0003C33.6221 32.0003 33.3056 32.1279 33.0505 32.383C32.7945 32.639 32.6665 32.9559 32.6665 33.3337C32.6665 33.7114 32.7945 34.0279 33.0505 34.283C33.3056 34.539 33.6221 34.667 33.9998 34.667ZM33.9998 41.3337C32.1554 41.3337 30.4221 40.9834 28.7998 40.283C27.1776 39.5834 25.7665 38.6337 24.5665 37.4337C23.3665 36.2337 22.4167 34.8225 21.7172 33.2003C21.0167 31.5781 20.6665 29.8448 20.6665 28.0003C20.6665 26.1559 21.0167 24.4225 21.7172 22.8003C22.4167 21.1781 23.3665 19.767 24.5665 18.567C25.7665 17.367 27.1776 16.4168 28.7998 15.7163C30.4221 15.0168 32.1554 14.667 33.9998 14.667C35.8443 14.667 37.5776 15.0168 39.1998 15.7163C40.8221 16.4168 42.2332 17.367 43.4332 18.567C44.6332 19.767 45.5829 21.1781 46.2825 22.8003C46.9829 24.4225 47.3332 26.1559 47.3332 28.0003C47.3332 29.8448 46.9829 31.5781 46.2825 33.2003C45.5829 34.8225 44.6332 36.2337 43.4332 37.4337C42.2332 38.6337 40.8221 39.5834 39.1998 40.283C37.5776 40.9834 35.8443 41.3337 33.9998 41.3337ZM33.9998 29.3337C34.3776 29.3337 34.6945 29.2057 34.9505 28.9497C35.2056 28.6945 35.3332 28.3781 35.3332 28.0003V22.667C35.3332 22.2892 35.2056 21.9723 34.9505 21.7163C34.6945 21.4612 34.3776 21.3337 33.9998 21.3337C33.6221 21.3337 33.3056 21.4612 33.0505 21.7163C32.7945 21.9723 32.6665 22.2892 32.6665 22.667V28.0003C32.6665 28.3781 32.7945 28.6945 33.0505 28.9497C33.3056 29.2057 33.6221 29.3337 33.9998 29.3337Z" fill="#C04F4F"/>
</g>
</g>
<defs>
<filter id="filter0_d_2833_2176" x="0.666504" y="0.666992" width="66.6665" height="66.667" filterUnits="userSpaceOnUse" color-interpolation-filters="sRGB">
<feFlood flood-opacity="0" result="BackgroundImageFix"/>
<feColorMatrix in="SourceAlpha" type="matrix" values="0 0 0 0 0 0 0 0 0 0 0 0 0 0 0 0 0 0 127 0" result="hardAlpha"/>
<feOffset dy="6"/>
<feGaussianBlur stdDeviation="10"/>
<feComposite in2="hardAlpha" operator="out"/>
<feColorMatrix type="matrix" values="0 0 0 0 0.754167 0 0 0 0 0.311094 0 0 0 0 0.311094 0 0 0 0.3 0"/>
<feBlend mode="normal" in2="BackgroundImageFix" result="effect1_dropShadow_2833_2176"/>
<feBlend mode="normal" in="SourceGraphic" in2="effect1_dropShadow_2833_2176" result="shape"/>
</filter>
</defs>
</svg>
