<svg width="64" height="64" viewBox="0 0 64 64" fill="none" xmlns="http://www.w3.org/2000/svg">
<g clip-path="url(#clip0_552_3972)">
<path d="M25.8193 23H37.9293" stroke="#35B6B4" stroke-width="4" stroke-linecap="round" stroke-linejoin="round"/>
<path d="M25.8193 28H35.8193" stroke="#362C86" stroke-width="2" stroke-linecap="round" stroke-linejoin="round"/>
<path d="M25.8193 32.85H30.8193" stroke="#35B6B4" stroke-width="4" stroke-linecap="round" stroke-linejoin="round"/>
<path d="M36.5898 37.7H38.7698" stroke="#362C86" stroke-width="2" stroke-linecap="round" stroke-linejoin="round"/>
<path d="M38.5693 41.15H38.7693" stroke="#362C86" stroke-width="2" stroke-linecap="round" stroke-linejoin="round"/>
<path d="M20.8193 46.51V20.31" stroke="#362C86" stroke-width="2" stroke-linecap="round" stroke-linejoin="round"/>
<path d="M47.1298 49.82H24.5098" stroke="#362C86" stroke-width="2" stroke-linecap="round" stroke-linejoin="round"/>
<path d="M43.8193 20.31V46.51" stroke="#362C86" stroke-width="2" stroke-linecap="round" stroke-linejoin="round"/>
<path d="M17.5098 17H40.5098" stroke="#362C86" stroke-width="2" stroke-linecap="round" stroke-linejoin="round"/>
<path d="M20.8202 20.31C20.8202 18.48 19.3402 17 17.5102 17C15.6802 17 14.2002 18.48 14.2002 20.31H20.8202Z" stroke="#362C86" stroke-width="2" stroke-linecap="round" stroke-linejoin="round"/>
<path d="M43.8198 20.31C43.8198 18.48 42.3398 17 40.5098 17" stroke="#362C86" stroke-width="2" stroke-linecap="round" stroke-linejoin="round"/>
<path d="M20.8203 46.51C20.8203 48.34 22.3003 49.82 24.1303 49.82C25.9603 49.82 27.4403 48.34 27.4403 46.51" stroke="#362C86" stroke-width="2" stroke-linecap="round" stroke-linejoin="round"/>
<path d="M47.1304 49.82C48.9604 49.82 50.4404 48.34 50.4404 46.51H27.4404" stroke="#362C86" stroke-width="2" stroke-linecap="round" stroke-linejoin="round"/>
<path d="M16.2197 45.71V51.04" stroke="#362C86" stroke-width="2" stroke-linecap="round" stroke-linejoin="round"/>
<path d="M16.2197 41.16V42.16" stroke="#362C86" stroke-width="2" stroke-linecap="round" stroke-linejoin="round"/>
<path d="M47.9805 32.5V37.84" stroke="#362C86" stroke-width="2" stroke-linecap="round" stroke-linejoin="round"/>
<path d="M47.9805 27.95V28.96" stroke="#362C86" stroke-width="2" stroke-linecap="round" stroke-linejoin="round"/>
</g>
<defs>
<clipPath id="clip0_552_3972">
<rect width="64" height="64" fill="white"/>
</clipPath>
</defs>
</svg>
