<svg width="64" height="64" viewBox="0 0 64 64" fill="none" xmlns="http://www.w3.org/2000/svg">
<g clip-path="url(#clip0_549_3937)">
<path d="M35.5302 51.15L34.3702 41.82C34.2202 40.62 33.2002 39.72 31.9902 39.72C30.7802 39.72 29.7602 40.62 29.6102 41.82L28.4502 51.15" stroke="#35B6B4" stroke-width="4.53" stroke-linecap="round" stroke-linejoin="round"/>
<path d="M26.8805 34.38C25.9205 32.64 26.0205 30.51 27.1505 28.88C28.1205 27.48 29.7205 26.64 31.4305 26.64H31.9905" stroke="#35B6B4" stroke-width="4.53" stroke-linecap="round" stroke-linejoin="round"/>
<path d="M37.3004 34.38C38.2604 32.64 38.1604 30.51 37.0304 28.88C36.0604 27.48 34.4604 26.64 32.7504 26.64H32.1904" stroke="#35B6B4" stroke-width="4.53" stroke-linecap="round" stroke-linejoin="round"/>
<path d="M32.0009 21.32C34.5524 21.32 36.6209 19.2516 36.6209 16.7C36.6209 14.1485 34.5524 12.08 32.0009 12.08C29.4493 12.08 27.3809 14.1485 27.3809 16.7C27.3809 19.2516 29.4493 21.32 32.0009 21.32Z" fill="#35B6B4"/>
<path d="M22.4803 48.98L21.4703 40.83C21.3403 39.78 20.4503 39 19.4003 39C18.3503 39 17.4603 39.79 17.3303 40.83L16.3203 48.98" stroke="#362C86" stroke-width="2" stroke-linecap="round" stroke-linejoin="round"/>
<path d="M15.79 35.87L14.94 34.33C14.1 32.82 14.19 30.95 15.18 29.53C16.03 28.31 17.43 27.57 18.92 27.57H19.41" stroke="#362C86" stroke-width="2" stroke-linecap="round" stroke-linejoin="round"/>
<path d="M21.4396 27.58H19.5596" stroke="#362C86" stroke-width="2" stroke-linecap="round" stroke-linejoin="round"/>
<path d="M19.4003 24.25C21.2615 24.25 22.7703 22.7412 22.7703 20.88C22.7703 19.0188 21.2615 17.51 19.4003 17.51C17.5391 17.51 16.0303 19.0188 16.0303 20.88C16.0303 22.7412 17.5391 24.25 19.4003 24.25Z" stroke="#362C86" stroke-width="2" stroke-linecap="round" stroke-linejoin="round"/>
<path d="M48.4305 48.98L47.4205 40.83C47.2905 39.78 46.4005 39 45.3505 39C44.3005 39 43.4105 39.79 43.2805 40.83L42.2705 48.98" stroke="#362C86" stroke-width="2" stroke-linecap="round" stroke-linejoin="round"/>
<path d="M43.4609 27.58H45.3509" stroke="#362C86" stroke-width="2" stroke-linecap="round" stroke-linejoin="round"/>
<path d="M49.12 35.87L49.97 34.33C50.81 32.82 50.72 30.95 49.73 29.53C48.88 28.31 47.48 27.57 45.99 27.57H45.5" stroke="#362C86" stroke-width="2" stroke-linecap="round" stroke-linejoin="round"/>
<path d="M45.3505 24.25C47.2117 24.25 48.7205 22.7412 48.7205 20.88C48.7205 19.0188 47.2117 17.51 45.3505 17.51C43.4893 17.51 41.9805 19.0188 41.9805 20.88C41.9805 22.7412 43.4893 24.25 45.3505 24.25Z" stroke="#362C86" stroke-width="2" stroke-linecap="round" stroke-linejoin="round"/>
<path d="M41.3604 12.08L44.4104 6.76001" stroke="#362C86" stroke-width="2" stroke-linecap="round" stroke-linejoin="round"/>
<path d="M10.5703 26.35L6.78027 26.73" stroke="#362C86" stroke-width="2" stroke-linecap="round" stroke-linejoin="round"/>
<path d="M41.3604 53.93L42.2603 56.98" stroke="#362C86" stroke-width="2" stroke-linecap="round" stroke-linejoin="round"/>
</g>
<defs>
<clipPath id="clip0_549_3937">
<rect width="64" height="64" fill="white"/>
</clipPath>
</defs>
</svg>
