<svg width="64" height="64" viewBox="0 0 64 64" fill="none" xmlns="http://www.w3.org/2000/svg">
<g clip-path="url(#clip0_549_3958)">
<path d="M32.1299 48.08C40.9664 48.08 48.1299 40.9165 48.1299 32.08C48.1299 23.2434 40.9664 16.08 32.1299 16.08C23.2933 16.08 16.1299 23.2434 16.1299 32.08C16.1299 40.9165 23.2933 48.08 32.1299 48.08Z" stroke="#362C86" stroke-width="2" stroke-linecap="round" stroke-linejoin="round"/>
<path d="M45.6196 40.67C43.9196 41.54 42.0396 42.11 40.0296 42.33C34.0796 42.96 28.5496 40.25 25.3096 35.7" stroke="#362C86" stroke-width="2" stroke-linecap="round" stroke-linejoin="round"/>
<path d="M48.0499 33.72C46.7199 34.25 45.2999 34.61 43.7999 34.77C39.5499 35.22 35.5199 33.97 32.3799 31.56" stroke="#362C86" stroke-width="2" stroke-linecap="round" stroke-linejoin="round"/>
<path d="M17.2695 38.01C17.9895 29.66 25.0795 23.25 33.4995 23.4" stroke="#362C86" stroke-width="2" stroke-linecap="round" stroke-linejoin="round"/>
<path d="M21.0303 43.59C22.2703 37.81 26.6503 33.14 32.3903 31.55C33.4003 29.15 33.8303 26.46 33.5403 23.68C33.2503 20.9 32.2303 18.3 30.7103 16.14" stroke="#362C86" stroke-width="2" stroke-linecap="round" stroke-linejoin="round"/>
<path d="M38.0498 17.22C41.8898 22.13 42.5898 28.99 39.5298 34.65" stroke="#362C86" stroke-width="2" stroke-linecap="round" stroke-linejoin="round"/>
<path d="M24.9398 37.94L12.8398 50.04" stroke="#35B6B4" stroke-width="4" stroke-linecap="round" stroke-linejoin="round"/>
<path d="M22.1201 29.62L13.1201 38.62" stroke="#35B6B4" stroke-width="4" stroke-linecap="round" stroke-linejoin="round"/>
<path d="M33.4102 40.74L24.4102 50.74" stroke="#35B6B4" stroke-width="4" stroke-linecap="round" stroke-linejoin="round"/>
</g>
<defs>
<clipPath id="clip0_549_3958">
<rect width="64" height="64" fill="white"/>
</clipPath>
</defs>
</svg>
