<svg width="64" height="64" viewBox="0 0 64 64" fill="none" xmlns="http://www.w3.org/2000/svg">
<g clip-path="url(#clip0_552_3992)">
<path d="M32 42.24L21.47 47.78L23.48 36.05L14.96 27.74L26.73 26.03L32 15.36L37.27 26.03L49.04 27.74L40.52 36.05L42.53 47.78L32 42.24Z" stroke="#35B6B4" stroke-width="4" stroke-linecap="round" stroke-linejoin="round"/>
<path d="M32 39.98L39.88 44.12L38.37 35.35L44.75 29.14L35.94 27.86L32 19.88L28.06 27.86L19.25 29.14L25.63 35.35L24.12 44.12L32 39.98Z" stroke="#362C86" stroke-width="2" stroke-linecap="round" stroke-linejoin="round"/>
<path d="M44.75 19.23L56.03 11.14" stroke="#362C86" stroke-width="2" stroke-linecap="round" stroke-linejoin="round"/>
<path d="M44.2598 13.04L47.5398 9.26001" stroke="#362C86" stroke-width="2" stroke-linecap="round" stroke-linejoin="round"/>
<path d="M16.0503 42.05L7.07031 50.89" stroke="#362C86" stroke-width="2" stroke-linecap="round" stroke-linejoin="round"/>
<path d="M12.8902 37.47L6.66016 39.97" stroke="#362C86" stroke-width="2" stroke-linecap="round" stroke-linejoin="round"/>
</g>
<defs>
<clipPath id="clip0_552_3992">
<rect width="64" height="64" fill="white"/>
</clipPath>
</defs>
</svg>
