<svg width="28" height="28" viewBox="0 0 28 28" fill="none" xmlns="http://www.w3.org/2000/svg">
<mask id="mask0_2836_6230" style="mask-type:alpha" maskUnits="userSpaceOnUse" x="0" y="0" width="28" height="28">
<rect width="28" height="28" fill="#D9D9D9"/>
</mask>
<g mask="url(#mask0_2836_6230)">
<path d="M14.0007 25.6663C12.3868 25.6663 10.8701 25.3599 9.45065 24.747C8.03121 24.1349 6.79648 23.3038 5.74648 22.2538C4.69648 21.2038 3.86543 19.9691 3.25332 18.5497C2.64043 17.1302 2.33398 15.6136 2.33398 13.9997C2.33398 12.3858 2.64043 10.8691 3.25332 9.44968C3.86543 8.03023 4.69648 6.79551 5.74648 5.74551C6.79648 4.69551 8.03121 3.86406 9.45065 3.25117C10.8701 2.63906 12.3868 2.33301 14.0007 2.33301C15.6145 2.33301 17.1312 2.63906 18.5507 3.25117C19.9701 3.86406 21.2048 4.69551 22.2548 5.74551C23.3048 6.79551 24.1359 8.03023 24.748 9.44968C25.3609 10.8691 25.6673 12.3858 25.6673 13.9997C25.6673 15.6136 25.3609 17.1302 24.748 18.5497C24.1359 19.9691 23.3048 21.2038 22.2548 22.2538C21.2048 23.3038 19.9701 24.1349 18.5507 24.747C17.1312 25.3599 15.6145 25.6663 14.0007 25.6663ZM14.0007 23.333C16.6062 23.333 18.8132 22.4288 20.6215 20.6205C22.4298 18.8122 23.334 16.6052 23.334 13.9997C23.334 11.3941 22.4298 9.18717 20.6215 7.37884C18.8132 5.57051 16.6062 4.66634 14.0007 4.66634C11.3951 4.66634 9.18815 5.57051 7.37982 7.37884C5.57148 9.18717 4.66732 11.3941 4.66732 13.9997C4.66732 16.6052 5.57148 18.8122 7.37982 20.6205C9.18815 22.4288 11.3951 23.333 14.0007 23.333Z" fill="#3642AE"/>
</g>
<line x1="9" y1="14" x2="19" y2="14" stroke="#3642AE" stroke-width="2"/>
<line x1="14" y1="19" x2="14" y2="9" stroke="#3642AE" stroke-width="2"/>
</svg>
