<svg width="20" height="20" viewBox="0 0 20 20" fill="none" xmlns="http://www.w3.org/2000/svg">
<mask id="mask0_2080_6826" style="mask-type:alpha" maskUnits="userSpaceOnUse" x="0" y="0" width="20" height="20">
<rect width="20" height="20" fill="#D9D9D9"/>
</mask>
<g mask="url(#mask0_2080_6826)">
<path d="M6.66602 4.99984V3.33317C6.66602 2.87484 6.82935 2.48234 7.15602 2.15567C7.48213 1.82956 7.87435 1.6665 8.33268 1.6665H11.666C12.1243 1.6665 12.5168 1.82956 12.8435 2.15567C13.1696 2.48234 13.3327 2.87484 13.3327 3.33317V4.99984H16.666C17.1243 4.99984 17.5168 5.16317 17.8435 5.48984C18.1696 5.81595 18.3327 6.20817 18.3327 6.6665V15.8332C18.3327 16.2915 18.1696 16.684 17.8435 17.0107C17.5168 17.3368 17.1243 17.4998 16.666 17.4998H3.33268C2.87435 17.4998 2.48213 17.3368 2.15602 17.0107C1.82935 16.684 1.66602 16.2915 1.66602 15.8332V6.6665C1.66602 6.20817 1.82935 5.81595 2.15602 5.48984C2.48213 5.16317 2.87435 4.99984 3.33268 4.99984H6.66602ZM8.33268 4.99984H11.666V3.33317H8.33268V4.99984ZM16.666 12.4998H12.4993V14.1665H7.49935V12.4998H3.33268V15.8332H16.666V12.4998ZM9.16602 12.4998H10.8327V10.8332H9.16602V12.4998ZM3.33268 10.8332H7.49935V9.1665H12.4993V10.8332H16.666V6.6665H3.33268V10.8332Z" fill="#424242"/>
</g>
</svg>
