<svg width="20" height="20" viewBox="0 0 20 20" fill="none" xmlns="http://www.w3.org/2000/svg">
<mask id="mask0_2080_6820" style="mask-type:alpha" maskUnits="userSpaceOnUse" x="0" y="0" width="20" height="20">
<rect width="20" height="20" fill="#D9D9D9"/>
</mask>
<g mask="url(#mask0_2080_6820)">
<path d="M4.87435 14.2498C5.58268 13.7082 6.37435 13.2809 7.24935 12.9682C8.12435 12.6559 9.04102 12.4998 9.99935 12.4998C10.9577 12.4998 11.8743 12.6559 12.7493 12.9682C13.6243 13.2809 14.416 13.7082 15.1243 14.2498C15.6105 13.6804 15.9891 13.0346 16.2602 12.3123C16.5307 11.5901 16.666 10.8193 16.666 9.99984C16.666 8.15262 16.0168 6.57956 14.7185 5.28067C13.4196 3.98234 11.8466 3.33317 9.99935 3.33317C8.15213 3.33317 6.57935 3.98234 5.28102 5.28067C3.98213 6.57956 3.33268 8.15262 3.33268 9.99984C3.33268 10.8193 3.46824 11.5901 3.73935 12.3123C4.0099 13.0346 4.38824 13.6804 4.87435 14.2498ZM9.99935 10.8332C9.1799 10.8332 8.48879 10.5521 7.92602 9.98984C7.36379 9.42706 7.08268 8.73595 7.08268 7.9165C7.08268 7.09706 7.36379 6.40595 7.92602 5.84317C8.48879 5.28095 9.1799 4.99984 9.99935 4.99984C10.8188 4.99984 11.5099 5.28095 12.0727 5.84317C12.6349 6.40595 12.916 7.09706 12.916 7.9165C12.916 8.73595 12.6349 9.42706 12.0727 9.98984C11.5099 10.5521 10.8188 10.8332 9.99935 10.8332ZM9.99935 18.3332C8.84657 18.3332 7.76324 18.1143 6.74935 17.6765C5.73546 17.2393 4.85352 16.6457 4.10352 15.8957C3.35352 15.1457 2.7599 14.2637 2.32268 13.2498C1.8849 12.2359 1.66602 11.1526 1.66602 9.99984C1.66602 8.84706 1.8849 7.76373 2.32268 6.74984C2.7599 5.73595 3.35352 4.854 4.10352 4.104C4.85352 3.354 5.73546 2.76011 6.74935 2.32234C7.76324 1.88511 8.84657 1.6665 9.99935 1.6665C11.1521 1.6665 12.2355 1.88511 13.2493 2.32234C14.2632 2.76011 15.1452 3.354 15.8952 4.104C16.6452 4.854 17.2388 5.73595 17.676 6.74984C18.1138 7.76373 18.3327 8.84706 18.3327 9.99984C18.3327 11.1526 18.1138 12.2359 17.676 13.2498C17.2388 14.2637 16.6452 15.1457 15.8952 15.8957C15.1452 16.6457 14.2632 17.2393 13.2493 17.6765C12.2355 18.1143 11.1521 18.3332 9.99935 18.3332ZM9.99935 16.6665C10.7355 16.6665 11.4299 16.559 12.0827 16.344C12.7355 16.1284 13.3327 15.8193 13.8743 15.4165C13.3327 15.0137 12.7355 14.7046 12.0827 14.489C11.4299 14.274 10.7355 14.1665 9.99935 14.1665C9.26324 14.1665 8.56879 14.274 7.91602 14.489C7.26324 14.7046 6.66602 15.0137 6.12435 15.4165C6.66602 15.8193 7.26324 16.1284 7.91602 16.344C8.56879 16.559 9.26324 16.6665 9.99935 16.6665ZM9.99935 9.1665C10.3605 9.1665 10.6591 9.04845 10.8952 8.81234C11.1313 8.57623 11.2493 8.27762 11.2493 7.9165C11.2493 7.55539 11.1313 7.25678 10.8952 7.02067C10.6591 6.78456 10.3605 6.6665 9.99935 6.6665C9.63824 6.6665 9.33963 6.78456 9.10352 7.02067C8.8674 7.25678 8.74935 7.55539 8.74935 7.9165C8.74935 8.27762 8.8674 8.57623 9.10352 8.81234C9.33963 9.04845 9.63824 9.1665 9.99935 9.1665Z" fill="#424242"/>
</g>
</svg>
