<svg width="24" height="24" viewBox="0 0 24 24" fill="none" xmlns="http://www.w3.org/2000/svg">
<path d="M12 0.0771484C5.3833 0.0771484 0 5.42622 0 12.002C0 18.5778 5.3833 23.9268 12 23.9268C18.6172 23.9268 24 18.5778 24 12.002C24 5.42622 18.6172 0.0771484 12 0.0771484ZM15.6522 7.33575H13.9357C12.9245 7.33575 12.5217 7.57166 12.5217 8.27211V9.92811H15.6522L15.1304 12.5205H12.5217V19.2606H9.3913V12.5205H7.82609V9.92811H9.3913V8.48987C9.3913 6.29933 10.271 4.74339 12.8249 4.74339C14.1929 4.74339 15.6522 5.26187 15.6522 5.26187V7.33575Z" fill="white"/>
</svg>
