<svg width="16" height="17" viewBox="0 0 16 17" fill="none" xmlns="http://www.w3.org/2000/svg">
<mask id="mask0_2833_963" style="mask-type:alpha" maskUnits="userSpaceOnUse" x="0" y="0" width="16" height="17">
<rect y="0.728516" width="16" height="15.8998" fill="#D9D9D9"/>
</mask>
<g mask="url(#mask0_2833_963)">
<path d="M2.66695 13.9783C2.30028 13.9783 1.98651 13.8487 1.72562 13.5894C1.46428 13.3297 1.33362 13.0177 1.33362 12.6533V4.7034C1.33362 4.33903 1.46428 4.02722 1.72562 3.76796C1.98651 3.50827 2.30028 3.37842 2.66695 3.37842H13.3336C13.7003 3.37842 14.0143 3.50827 14.2756 3.76796C14.5365 4.02722 14.6669 4.33903 14.6669 4.7034V12.6533C14.6669 13.0177 14.5365 13.3297 14.2756 13.5894C14.0143 13.8487 13.7003 13.9783 13.3336 13.9783H2.66695ZM8.00027 9.34084L2.66695 6.02839V12.6533H13.3336V6.02839L8.00027 9.34084ZM8.00027 8.01586L13.3336 4.7034H2.66695L8.00027 8.01586ZM2.66695 6.02839V4.7034V12.6533V6.02839Z" fill="#D4D4D4"/>
</g>
</svg>
