<svg width="16" height="17" viewBox="0 0 16 17" fill="none" xmlns="http://www.w3.org/2000/svg">
<mask id="mask0_2833_966" style="mask-type:alpha" maskUnits="userSpaceOnUse" x="0" y="0" width="16" height="17">
<rect y="0.40918" width="16" height="15.8998" fill="#D9D9D9"/>
</mask>
<g mask="url(#mask0_2833_966)">
<path d="M8.00027 11.3239C9.10027 10.4406 9.93094 9.59042 10.4923 8.77335C11.0532 7.95628 11.3336 7.18889 11.3336 6.47119C11.3336 5.85286 11.2198 5.32552 10.9923 4.88916C10.7643 4.45324 10.4836 4.09991 10.1503 3.82917C9.81694 3.55888 9.45583 3.363 9.06694 3.24154C8.67805 3.12009 8.3225 3.05936 8.00027 3.05936C7.67805 3.05936 7.3225 3.12009 6.93361 3.24154C6.54472 3.363 6.18361 3.55888 5.85028 3.82917C5.51695 4.09991 5.2365 4.45324 5.00895 4.88916C4.78095 5.32552 4.66695 5.85286 4.66695 6.47119C4.66695 7.18889 4.94739 7.95628 5.50828 8.77335C6.06961 9.59042 6.90028 10.4406 8.00027 11.3239ZM8.00027 12.9967C6.43361 11.8484 5.26406 10.7332 4.49162 9.65115C3.71962 8.56908 3.33362 7.50909 3.33362 6.47119C3.33362 5.68724 3.4754 4.9998 3.75895 4.40885C4.04206 3.81835 4.40584 3.32435 4.85028 2.92686C5.29473 2.52936 5.79472 2.23124 6.35028 2.0325C6.90583 1.83375 7.45583 1.73438 8.00027 1.73438C8.54472 1.73438 9.09472 1.83375 9.65027 2.0325C10.2058 2.23124 10.7058 2.52936 11.1503 2.92686C11.5947 3.32435 11.9587 3.81835 12.2423 4.40885C12.5254 4.9998 12.6669 5.68724 12.6669 6.47119C12.6669 7.50909 12.2807 8.56908 11.5083 9.65115C10.7363 10.7332 9.56694 11.8484 8.00027 12.9967ZM8.00027 7.6968C8.36694 7.6968 8.68094 7.56695 8.94227 7.30725C9.20316 7.048 9.3336 6.73619 9.3336 6.37182C9.3336 6.00745 9.20316 5.69541 8.94227 5.43572C8.68094 5.17646 8.36694 5.04683 8.00027 5.04683C7.63361 5.04683 7.31983 5.17646 7.05894 5.43572C6.79761 5.69541 6.66694 6.00745 6.66694 6.37182C6.66694 6.73619 6.79761 7.048 7.05894 7.30725C7.31983 7.56695 7.63361 7.6968 8.00027 7.6968ZM3.33362 14.9842V13.6592H12.6669V14.9842H3.33362Z" fill="#D4D4D4"/>
</g>
</svg>
