<svg width="16" height="16" viewBox="0 0 16 16" fill="none" xmlns="http://www.w3.org/2000/svg">
<mask id="mask0_2833_960" style="mask-type:alpha" maskUnits="userSpaceOnUse" x="0" y="0" width="16" height="16">
<rect y="0.0288086" width="16" height="15.8998" fill="#D9D9D9"/>
</mask>
<g mask="url(#mask0_2833_960)">
<path d="M13.3 13.9409C11.8667 13.9409 10.4696 13.6234 9.10867 12.9883C7.74733 12.3536 6.54178 11.5145 5.492 10.4708C4.44178 9.42762 3.59733 8.22961 2.95867 6.87681C2.31956 5.52444 2 4.13608 2 2.71173C2 2.51298 2.06667 2.34736 2.2 2.21486C2.33333 2.08236 2.5 2.01611 2.7 2.01611H5.4C5.55556 2.01611 5.69444 2.0658 5.81667 2.16517C5.93889 2.26455 6.01111 2.39152 6.03333 2.54611L6.46667 4.86482C6.48889 5.01941 6.48622 5.16007 6.45867 5.28683C6.43067 5.41403 6.36667 5.52731 6.26667 5.62669L4.65 7.24979C5.11667 8.04478 5.70289 8.79008 6.40867 9.4857C7.114 10.1813 7.88889 10.7831 8.73333 11.291L10.3 9.73413C10.4 9.63476 10.5307 9.56012 10.692 9.51021C10.8529 9.46074 11.0111 9.44705 11.1667 9.46914L13.4667 9.93288C13.6222 9.966 13.75 10.0404 13.85 10.1561C13.95 10.2723 14 10.4077 14 10.5622V13.2453C14 13.4441 13.9333 13.6097 13.8 13.7422C13.6667 13.8747 13.5 13.9409 13.3 13.9409ZM4.01667 5.99106L5.11667 4.89795L4.83333 3.34109H3.35C3.40556 3.7938 3.48333 4.24098 3.58333 4.68264C3.68333 5.1243 3.82778 5.56044 4.01667 5.99106ZM12.6667 12.5828V11.1254L11.1 10.8107L9.98333 11.9204C10.4167 12.1081 10.8584 12.2571 11.3087 12.3675C11.7584 12.4779 12.2111 12.5497 12.6667 12.5828Z" fill="#D4D4D4"/>
</g>
</svg>
