<svg width="97" height="97" viewBox="0 0 97 97" fill="none" xmlns="http://www.w3.org/2000/svg">
<g clip-path="url(#clip0_433_4762)">
<path d="M33.8215 81.6235H45.945C45.945 81.6235 47.6984 72.8913 47.41 71.4494C47.1216 70.0075 45.599 66.7315 44.8261 65.3934C44.0532 64.0553 43.3727 41.4577 43.3727 41.4577C43.3727 41.4577 34.4328 39.5313 33.2793 42.8996C32.1258 46.2679 28.4691 58.1839 27.8923 60.0064C27.3156 61.829 31.3529 69.6153 32.9909 72.6952C34.6289 75.7751 34.0176 78.7397 33.8215 81.6235Z" fill="white"/>
<path d="M48.6673 51.4588L52.7969 56.4074C53.7313 57.5263 53.5698 59.3143 52.4509 60.2487C51.3319 61.183 49.544 61.0215 48.6096 59.9026" fill="white"/>
<path d="M48.6673 51.4588L52.7969 56.4074C53.7313 57.5263 53.5698 59.3143 52.4509 60.2487C51.3319 61.183 49.544 61.0215 48.6096 59.9026" stroke="#3642AE" stroke-width="3" stroke-linecap="round" stroke-linejoin="round"/>
<path d="M33.8215 81.5658L33.2332 75.7751C33.2332 74.9561 33.0717 74.1371 32.7717 73.3758L28.4691 62.6249C27.8116 60.9754 27.8577 59.1297 28.6075 57.5263L33.1293 42.7266" fill="white"/>
<path d="M33.8215 81.5658L33.2332 75.7751C33.2332 74.9561 33.0717 74.1371 32.7717 73.3758L28.4691 62.6249C27.8116 60.9754 27.8577 59.1297 28.6075 57.5263L33.1293 42.7266" stroke="#3642AE" stroke-width="3" stroke-linecap="round" stroke-linejoin="round"/>
<path d="M43.4072 63.8015L45.5989 65.9586C46.8908 67.2275 49.1402 67.4351 50.6398 66.42C52.1394 65.4049 52.3009 63.5593 51.0089 62.2904L48.8057 60.1333L40.3042 51.7702" fill="white"/>
<path d="M43.4072 63.8015L45.5989 65.9586C46.8908 67.2275 49.1402 67.4351 50.6398 66.42C52.1394 65.4049 52.3009 63.5593 51.0089 62.2904L48.8057 60.1333L40.3042 51.7702" stroke="#3642AE" stroke-width="3" stroke-linecap="round" stroke-linejoin="round"/>
<path d="M71.4725 64.9204L66.4893 57.9301" stroke="#3642AE" stroke-width="3" stroke-linecap="round" stroke-linejoin="round"/>
<path d="M61.5522 62.9248L65.6588 77.367" stroke="#3642AE" stroke-width="3" stroke-linecap="round" stroke-linejoin="round"/>
<path d="M59.4296 36.0592L58.2415 33.1754" stroke="#3642AE" stroke-width="3" stroke-linecap="round" stroke-linejoin="round"/>
<path d="M62.4277 20.1512L33.679 32.6038C31.3407 33.6166 30.2662 36.3333 31.279 38.6717L38.7708 55.9675C39.7836 58.3058 42.5003 59.3804 44.8387 58.3675L73.5874 45.9149C75.9257 44.902 77.0003 42.1853 75.9874 39.847L68.4957 22.5512C67.4828 20.2128 64.7661 19.1383 62.4277 20.1512Z" fill="white" stroke="#3642AE" stroke-width="3" stroke-linecap="round" stroke-linejoin="round"/>
<path d="M53.639 47.5483C58.2132 47.5483 61.9213 43.8402 61.9213 39.266C61.9213 34.6918 58.2132 30.9837 53.639 30.9837C49.0648 30.9837 45.3567 34.6918 45.3567 39.266C45.3567 43.8402 49.0648 47.5483 53.639 47.5483Z" stroke="#3AB5B2" stroke-width="3" stroke-linecap="round" stroke-linejoin="round"/>
<path d="M53.2122 38.2509L54.0773 40.2696" stroke="#3AB5B2" stroke-width="3" stroke-linecap="round" stroke-linejoin="round"/>
<path d="M55.1501 16.4493C55.4495 16.4493 55.6922 16.2065 55.6922 15.9071C55.6922 15.6077 55.4495 15.365 55.1501 15.365C54.8506 15.365 54.6079 15.6077 54.6079 15.9071C54.6079 16.2065 54.8506 16.4493 55.1501 16.4493Z" stroke="#3642AE" stroke-width="3" stroke-linecap="round" stroke-linejoin="round"/>
<path d="M22.886 41.4231C22.886 43.3034 21.3518 44.8376 19.4716 44.8376C17.5913 44.8376 16.0571 43.3034 16.0571 41.4231C16.0571 39.5429 17.5913 38.0087 19.4716 38.0087C21.3518 38.0087 22.886 39.5429 22.886 41.4231Z" stroke="#3642AE" stroke-width="3" stroke-linecap="round" stroke-linejoin="round"/>
<path d="M77.1709 16.8992V22.736" stroke="#3642AE" stroke-width="3" stroke-linecap="round" stroke-linejoin="round"/>
<path d="M80.0893 19.8176H74.2524" stroke="#3642AE" stroke-width="3" stroke-linecap="round" stroke-linejoin="round"/>
<path d="M36.1284 62.9479V46.5332C36.1284 44.9298 37.4204 43.6379 39.0238 43.6379C40.6272 43.6379 41.9191 44.9298 41.9191 46.5332V57.7224C41.9191 59.868 42.5536 61.9674 43.7417 63.7554L45.7488 66.7661C47.0062 68.6579 47.5368 70.9419 47.2369 73.1912L45.9449 81.6235" fill="white"/>
<path d="M36.1284 62.9479V46.5332C36.1284 44.9298 37.4204 43.6379 39.0238 43.6379C40.6272 43.6379 41.9191 44.9298 41.9191 46.5332V57.7224C41.9191 59.868 42.5536 61.9674 43.7417 63.7554L45.7488 66.7661C47.0062 68.6579 47.5368 70.9419 47.2369 73.1912L45.9449 81.6235" stroke="#3642AE" stroke-width="3" stroke-linecap="round" stroke-linejoin="round"/>
</g>
<defs>
<clipPath id="clip0_433_4762">
<rect width="97" height="97" fill="white"/>
</clipPath>
</defs>
</svg>
