<svg width="90" height="90" viewBox="0 0 90 90" fill="none" xmlns="http://www.w3.org/2000/svg">
<g clip-path="url(#clip0_433_4747)">
<path d="M66.0938 52.0312L46.4062 60.4688L40.7812 57.6562L23.9062 68.9062" stroke="#3642AE" stroke-width="3" stroke-linecap="round" stroke-linejoin="round"/>
<path d="M60.4688 50.625L66.0938 52.0312L63.2812 57.6562" stroke="#3642AE" stroke-width="3" stroke-linecap="round" stroke-linejoin="round"/>
<path d="M63.2812 68.9062H22.5" stroke="#3642AE" stroke-width="3" stroke-linecap="round" stroke-linejoin="round"/>
<path d="M61.875 33.75L47.8125 47.8125L40.7812 43.5938L23.9062 59.0625" stroke="#35B6B4" stroke-width="3" stroke-linecap="round" stroke-linejoin="round"/>
<path d="M53.4375 32.3438L61.875 33.75L63.2812 42.1875" stroke="#35B6B4" stroke-width="3" stroke-linecap="round" stroke-linejoin="round"/>
<path d="M37.9688 28.125L29.5312 36.5625" stroke="#3642AE" stroke-width="3" stroke-linecap="round" stroke-linejoin="round"/>
<path d="M75.9375 33.75L71.7188 37.9688" stroke="#3642AE" stroke-width="3" stroke-linecap="round" stroke-linejoin="round"/>
<path d="M16.875 56.25L14.0625 59.0625" stroke="#3642AE" stroke-width="3" stroke-linecap="round" stroke-linejoin="round"/>
<path d="M69.6094 63.2812C69.9977 63.2812 70.3125 62.9665 70.3125 62.5781C70.3125 62.1898 69.9977 61.875 69.6094 61.875C69.221 61.875 68.9062 62.1898 68.9062 62.5781C68.9062 62.9665 69.221 63.2812 69.6094 63.2812Z" stroke="#3642AE" stroke-width="3" stroke-linecap="round" stroke-linejoin="round"/>
<path d="M42.8906 22.5C43.279 22.5 43.5938 22.1852 43.5938 21.7969C43.5938 21.4085 43.279 21.0938 42.8906 21.0938C42.5023 21.0938 42.1875 21.4085 42.1875 21.7969C42.1875 22.1852 42.5023 22.5 42.8906 22.5Z" stroke="#3642AE" stroke-width="3" stroke-linecap="round" stroke-linejoin="round"/>
</g>
<defs>
<clipPath id="clip0_433_4747">
<rect width="90" height="90" fill="white"/>
</clipPath>
</defs>
</svg>
