<svg width="16" height="16" viewBox="0 0 16 16" xmlns="http://www.w3.org/2000/svg">
    <path d="M8 16A8 8 0 1 1 8 0a8 8 0 0 1 0 16zm-.918-6.035h1.676a2.24 2.24 0 0 1 .123-.735c.074-.193.207-.382.399-.565l.673-.627c.286-.278.493-.55.621-.815a2 2 0 0 0 .194-.884c0-.743-.24-1.315-.718-1.717-.478-.403-1.153-.604-2.024-.604-.875 0-1.555.218-2.04.654-.484.435-.73 1.043-.738 1.825h1.98c.009-.293.085-.526.23-.698a.707.707 0 0 1 .568-.257c.507 0 .761.295.761.884 0 .243-.075.464-.225.665-.15.202-.37.423-.66.666-.288.242-.497.528-.626.858-.13.33-.194.78-.194 1.35zm-.24 1.782c0 .289.105.526.314.712.209.185.47.278.782.278.312 0 .573-.093.782-.278a.91.91 0 0 0 .313-.712.91.91 0 0 0-.313-.712 1.135 1.135 0 0 0-.782-.278c-.313 0-.573.092-.782.278a.91.91 0 0 0-.314.712z" fill="#1A1A1A" fill-rule="evenodd"/>
</svg>
