<?xml version="1.0" encoding="UTF-8"?>
<svg width="149px" height="45px" viewBox="0 0 149 45" version="1.1" xmlns="http://www.w3.org/2000/svg" xmlns:xlink="http://www.w3.org/1999/xlink">
    <title>google_play</title>
    <g id="Design" stroke="none" stroke-width="1" fill="none" fill-rule="evenodd">
        <g id="9100-Recharge" transform="translate(-723.000000, -1468.000000)">
            <g id="google_play" transform="translate(723.000000, 1468.000000)">
                <rect id="button" fill="#FFFFFF" x="0" y="0" width="149" height="45" rx="7"></rect>
                <g id="Download-on" transform="translate(49.083601, 7.779018)" fill="#000000" fill-rule="nonzero">
                    <path d="M0,7.875 L0,0.41015625 L2.10717773,0.41015625 C2.7565918,0.41015625 3.33081055,0.553710938 3.82983398,0.840820312 C4.32885742,1.12792969 4.7142334,1.53637695 4.98596191,2.06616211 C5.25769043,2.59594727 5.39526367,3.2043457 5.39868164,3.89135742 L5.39868164,4.36816406 C5.39868164,5.07226562 5.26281738,5.68920898 4.99108887,6.21899414 C4.71936035,6.7487793 4.3314209,7.15551758 3.82727051,7.43920898 C3.32312012,7.72290039 2.73608398,7.86816406 2.06616211,7.875 L0,7.875 Z M0.984375,1.22021484 L0.984375,7.07006836 L2.02001953,7.07006836 C2.77880859,7.07006836 3.3692627,6.83422852 3.79138184,6.36254883 C4.21350098,5.89086914 4.42456055,5.21923828 4.42456055,4.34765625 L4.42456055,3.91186523 C4.42456055,3.06420898 4.22546387,2.40539551 3.82727051,1.9354248 C3.42907715,1.4654541 2.86425781,1.22705078 2.1328125,1.22021484 L0.984375,1.22021484 Z" id="Shape"></path>
                    <path d="M7.32559574,5.05004883 C7.32559574,4.5065918 7.43240726,4.01782227 7.64603031,3.58374023 C7.85965335,3.1496582 8.15701663,2.81469727 8.53812015,2.57885742 C8.91922367,2.34301758 9.35416019,2.22509766 9.84292972,2.22509766 C10.5983008,2.22509766 11.2092627,2.48657227 11.6758155,3.00952148 C12.1423682,3.5324707 12.3756446,4.22802734 12.3756446,5.09619141 L12.3756446,5.1628418 C12.3756446,5.70288086 12.272251,6.18737793 12.0654639,6.61633301 C11.8586768,7.04528809 11.5630225,7.37939453 11.178501,7.61865234 C10.7939795,7.85791016 10.3522071,7.97753906 9.85318363,7.97753906 C9.1012305,7.97753906 8.49197757,7.71606445 8.02542484,7.19311523 C7.5588721,6.67016602 7.32559574,5.97802734 7.32559574,5.11669922 L7.32559574,5.05004883 Z M8.27920902,5.1628418 C8.27920902,5.77807617 8.42190921,6.27197266 8.7073096,6.64453125 C8.99270999,7.01708984 9.374668,7.20336914 9.85318363,7.20336914 C10.3351172,7.20336914 10.7179297,7.01452637 11.0016211,6.63684082 C11.2853125,6.25915527 11.4271582,5.73022461 11.4271582,5.05004883 C11.4271582,4.44165039 11.2827491,3.9486084 10.9939307,3.57092285 C10.7051123,3.1932373 10.3214453,3.00439453 9.84292972,3.00439453 C9.374668,3.00439453 8.99698246,3.19067383 8.70987308,3.56323242 C8.42276371,3.93579102 8.27920902,4.46899414 8.27920902,5.1628418 Z" id="Shape"></path>
                    <polygon id="Path" points="19.3167188 6.56762695 20.3831251 2.32763672 21.3316114 2.32763672 19.7166212 7.875 18.9475782 7.875 17.5991895 3.67089844 16.2866895 7.875 15.5176466 7.875 13.9077833 2.32763672 14.8511426 2.32763672 15.9431837 6.48046875 17.2351758 2.32763672 17.9990919 2.32763672"></polygon>
                    <path d="M24.0326954,2.32763672 L24.0634571,3.02490234 C24.4872853,2.49169922 25.0409962,2.22509766 25.7245899,2.22509766 C26.8969532,2.22509766 27.4882618,2.88647461 27.4985157,4.20922852 L27.4985157,7.875 L26.5500294,7.875 L26.5500294,4.20410156 C26.5466114,3.80419922 26.4551808,3.50854492 26.2757374,3.31713867 C26.096294,3.12573242 25.8168751,3.0300293 25.4374806,3.0300293 C25.1298634,3.0300293 24.8598439,3.11206055 24.627422,3.27612305 C24.3950001,3.44018555 24.2138478,3.65551758 24.0839649,3.92211914 L24.0839649,7.875 L23.1354786,7.875 L23.1354786,2.32763672 L24.0326954,2.32763672 Z" id="Path"></path>
                    <polygon id="Path" points="30.7994533 7.875 29.8509669 7.875 29.8509669 0 30.7994533 0"></polygon>
                    <path d="M32.9058107,5.05004883 C32.9058107,4.5065918 33.0126222,4.01782227 33.2262453,3.58374023 C33.4398683,3.1496582 33.7372316,2.81469727 34.1183351,2.57885742 C34.4994386,2.34301758 34.9343752,2.22509766 35.4231447,2.22509766 C36.1785158,2.22509766 36.7894777,2.48657227 37.2560304,3.00952148 C37.7225832,3.5324707 37.9558595,4.22802734 37.9558595,5.09619141 L37.9558595,5.1628418 C37.9558595,5.70288086 37.852466,6.18737793 37.6456789,6.61633301 C37.4388918,7.04528809 37.1432375,7.37939453 36.758716,7.61865234 C36.3741945,7.85791016 35.932422,7.97753906 35.4333986,7.97753906 C34.6814455,7.97753906 34.0721925,7.71606445 33.6056398,7.19311523 C33.1390871,6.67016602 32.9058107,5.97802734 32.9058107,5.11669922 L32.9058107,5.05004883 Z M33.859424,5.1628418 C33.859424,5.77807617 34.0021242,6.27197266 34.2875246,6.64453125 C34.572925,7.01708984 34.954883,7.20336914 35.4333986,7.20336914 C35.9153322,7.20336914 36.2981447,7.01452637 36.5818361,6.63684082 C36.8655275,6.25915527 37.0073732,5.73022461 37.0073732,5.05004883 C37.0073732,4.44165039 36.862964,3.9486084 36.5741457,3.57092285 C36.2853273,3.1932373 35.9016603,3.00439453 35.4231447,3.00439453 C34.954883,3.00439453 34.5771974,3.19067383 34.2900881,3.56323242 C34.0029787,3.93579102 33.859424,4.46899414 33.859424,5.1628418 Z" id="Shape"></path>
                    <path d="M43.4101174,7.875 C43.3554299,7.765625 43.3109963,7.57080078 43.2768166,7.29052734 C42.8358986,7.74853516 42.3095315,7.97753906 41.697715,7.97753906 C41.15084,7.97753906 40.7022316,7.82287598 40.3518898,7.5135498 C40.0015481,7.20422363 39.8263772,6.81201172 39.8263772,6.33691406 C39.8263772,5.75927734 40.0459816,5.31066895 40.4851906,4.99108887 C40.9243996,4.67150879 41.5421975,4.51171875 42.3385842,4.51171875 L43.2614357,4.51171875 L43.2614357,4.07592773 C43.2614357,3.74438477 43.1623147,3.48034668 42.9640725,3.28381348 C42.7658303,3.08728027 42.473594,2.98901367 42.0873635,2.98901367 C41.7489846,2.98901367 41.4652932,3.07446289 41.2362893,3.24536133 C41.0072854,3.41625977 40.8927834,3.62304688 40.8927834,3.86572266 L39.9391701,3.86572266 C39.9391701,3.58886719 40.0374367,3.32141113 40.2339699,3.06335449 C40.4305031,2.80529785 40.6971047,2.60107422 41.0337746,2.45068359 C41.3704445,2.30029297 41.7404397,2.22509766 42.14376,2.22509766 C42.7829201,2.22509766 43.2836525,2.3848877 43.6459572,2.70446777 C44.0082619,3.02404785 44.1962502,3.46411133 44.2099221,4.0246582 L44.2099221,6.57788086 C44.2099221,7.0871582 44.2748635,7.4921875 44.4047463,7.79296875 L44.4047463,7.875 L43.4101174,7.875 Z M41.8361428,7.15209961 C42.1335061,7.15209961 42.4154885,7.07519531 42.68209,6.92138672 C42.9486916,6.76757812 43.1418068,6.56762695 43.2614357,6.3215332 L43.2614357,5.18334961 L42.5180275,5.18334961 C41.3559182,5.18334961 40.7748635,5.5234375 40.7748635,6.20361328 C40.7748635,6.50097656 40.8739846,6.73339844 41.0722268,6.90087891 C41.270469,7.06835938 41.5251076,7.15209961 41.8361428,7.15209961 Z" id="Shape"></path>
                    <path d="M46.3060256,5.05517578 C46.3060256,4.20410156 46.5076858,3.51965332 46.9110061,3.00183105 C47.3143264,2.48400879 47.8424026,2.22509766 48.4952346,2.22509766 C49.1446487,2.22509766 49.659053,2.44726562 50.0384475,2.89160156 L50.0384475,0 L50.9869338,0 L50.9869338,7.875 L50.1153518,7.875 L50.0692092,7.28027344 C49.6898147,7.74511719 49.1617385,7.97753906 48.4849807,7.97753906 C47.8424026,7.97753906 47.3185989,7.71435547 46.9135696,7.18798828 C46.5085403,6.66162109 46.3060256,5.97460938 46.3060256,5.12695312 L46.3060256,5.05517578 Z M47.254512,5.1628418 C47.254512,5.79174805 47.3843948,6.28393555 47.6441604,6.6394043 C47.903926,6.99487305 48.2628127,7.17260742 48.7208205,7.17260742 C49.322383,7.17260742 49.761592,6.90258789 50.0384475,6.36254883 L50.0384475,3.81445312 C49.7547561,3.29150391 49.3189651,3.0300293 48.7310745,3.0300293 C48.2662307,3.0300293 47.903926,3.20947266 47.6441604,3.56835938 C47.3843948,3.92724609 47.254512,4.45874023 47.254512,5.1628418 Z" id="Shape"></path>
                    <path d="M56.486514,5.05004883 C56.486514,4.5065918 56.5933255,4.01782227 56.8069485,3.58374023 C57.0205716,3.1496582 57.3179349,2.81469727 57.6990384,2.57885742 C58.0801419,2.34301758 58.5150784,2.22509766 59.003848,2.22509766 C59.7592191,2.22509766 60.370181,2.48657227 60.8367337,3.00952148 C61.3032864,3.5324707 61.5365628,4.22802734 61.5365628,5.09619141 L61.5365628,5.1628418 C61.5365628,5.70288086 61.4331692,6.18737793 61.2263821,6.61633301 C61.019595,7.04528809 60.7239407,7.37939453 60.3394192,7.61865234 C59.9548978,7.85791016 59.5131253,7.97753906 59.0141019,7.97753906 C58.2621487,7.97753906 57.6528958,7.71606445 57.1863431,7.19311523 C56.7197903,6.67016602 56.486514,5.97802734 56.486514,5.11669922 L56.486514,5.05004883 Z M57.4401273,5.1628418 C57.4401273,5.77807617 57.5828274,6.27197266 57.8682278,6.64453125 C58.1536282,7.01708984 58.5355862,7.20336914 59.0141019,7.20336914 C59.4960355,7.20336914 59.878848,7.01452637 60.1625394,6.63684082 C60.4462308,6.25915527 60.5880765,5.73022461 60.5880765,5.05004883 C60.5880765,4.44165039 60.4436673,3.9486084 60.1548489,3.57092285 C59.8660306,3.1932373 59.4823636,3.00439453 59.003848,3.00439453 C58.5355862,3.00439453 58.1579007,3.19067383 57.8707913,3.56323242 C57.5836819,3.93579102 57.4401273,4.46899414 57.4401273,5.1628418 Z" id="Shape"></path>
                    <path d="M64.4632328,2.32763672 L64.4939945,3.02490234 C64.9178226,2.49169922 65.4715335,2.22509766 66.1551273,2.22509766 C67.3274906,2.22509766 67.9187992,2.88647461 67.9290531,4.20922852 L67.9290531,7.875 L66.9805667,7.875 L66.9805667,4.20410156 C66.9771488,3.80419922 66.8857181,3.50854492 66.7062747,3.31713867 C66.5268314,3.12573242 66.2474124,3.0300293 65.8680179,3.0300293 C65.5604007,3.0300293 65.2903812,3.11206055 65.0579593,3.27612305 C64.8255374,3.44018555 64.6443851,3.65551758 64.5145023,3.92211914 L64.5145023,7.875 L63.566016,7.875 L63.566016,2.32763672 L64.4632328,2.32763672 Z" id="Path"></path>
                </g>
                <text id="play" font-family="Roboto-Light, Roboto" font-size="16.8" font-weight="300" fill="#000000">
                    <tspan x="102.131455" y="35.7321429">play</tspan>
                </text>
                <g id="google-logo" transform="translate(48.341434, 23.203125)" fill="#000000" fill-rule="nonzero">
                    <path d="M6.12779279,5.50822011 L6.12779279,7.1627038 L10.0742793,7.1627038 C9.95346847,8.0908288 9.64472973,8.7701087 9.17490991,9.24762228 C8.5977027,9.82601902 7.69833333,10.4582201 6.12779279,10.4582201 C3.69815315,10.4582201 1.79873874,8.49436141 1.79873874,6.05971467 C1.79873874,3.62506793 3.69815315,1.66120924 6.12779279,1.66120924 C7.43657658,1.66120924 8.39635135,2.17907609 9.10108108,2.84490489 L10.2622072,1.68138587 C9.2822973,0.726358696 7.9668018,0 6.12779279,0 C2.79878378,0 0,2.71711957 0,6.05298913 C0,9.3888587 2.79878378,12.1059783 6.12779279,12.1059783 C7.92653153,12.1059783 9.2822973,11.5141304 10.3427477,10.4111413 C11.430045,9.32160326 11.7723423,7.7814538 11.7723423,6.5439538 C11.7723423,6.16059783 11.7454955,5.80414402 11.6850901,5.50822011 L6.12779279,5.50822011 Z" id="Shape"></path>
                    <path d="M16.7054505,4.16311141 C14.550991,4.16311141 12.7925225,5.80414402 12.7925225,8.07065217 C12.7925225,10.3169837 14.550991,11.9781929 16.7054505,11.9781929 C18.8599099,11.9781929 20.6183784,10.3237092 20.6183784,8.07065217 C20.6183784,5.80414402 18.8599099,4.16311141 16.7054505,4.16311141 Z M16.7054505,10.4380435 C15.5241892,10.4380435 14.504009,9.46283967 14.504009,8.07065217 C14.504009,6.66501359 15.5241892,5.70326087 16.7054505,5.70326087 C17.8867117,5.70326087 18.9068919,6.66501359 18.9068919,8.07065217 C18.9068919,9.46283967 17.8867117,10.4380435 16.7054505,10.4380435 Z" id="Shape"></path>
                    <path d="M35.8875225,5.03743207 L35.8271171,5.03743207 C35.4445495,4.58009511 34.7062613,4.16311141 33.7733333,4.16311141 C31.8269369,4.16311141 30.1288739,5.86467391 30.1288739,8.07065217 C30.1288739,10.2631793 31.8269369,11.9781929 33.7733333,11.9781929 C34.7062613,11.9781929 35.4445495,11.5612092 35.8271171,11.0904212 L35.8875225,11.0904212 L35.8875225,11.6351902 C35.8875225,13.1282609 35.0888288,13.9286005 33.8068919,13.9286005 C32.7598649,13.9286005 32.1088288,13.1753397 31.8403604,12.536413 L30.3503604,13.155163 C30.7799099,14.1908967 31.9141892,15.4620245 33.8068919,15.4620245 C35.8136937,15.4620245 37.5117568,14.2783288 37.5117568,11.3930707 L37.5117568,4.36487772 L35.8875225,4.36487772 L35.8875225,5.03743207 Z M33.920991,10.4380435 C32.7397297,10.4380435 31.8403604,9.42921196 31.8403604,8.07065217 C31.8403604,6.69191576 32.7397297,5.70326087 33.920991,5.70326087 C35.0888288,5.70326087 36.0016581,6.71209239 36.0016581,8.08410326 C36.0083333,9.44938859 35.0888288,10.4380435 33.920991,10.4380435 Z" id="Shape"></path>
                    <path d="M25.4306757,4.16311141 C23.2762162,4.16311141 21.5177477,5.80414402 21.5177477,8.07065217 C21.5177477,10.3169837 23.2762162,11.9781929 25.4306757,11.9781929 C27.5851351,11.9781929 29.3436036,10.3237092 29.3436036,8.07065217 C29.3436036,5.80414402 27.5851351,4.16311141 25.4306757,4.16311141 Z M25.4306757,10.4380435 C24.2494144,10.4380435 23.2292342,9.46283967 23.2292342,8.07065217 C23.2292342,6.66501359 24.2494144,5.70326087 25.4306757,5.70326087 C26.6119369,5.70326087 27.6321171,6.66501359 27.6321171,8.07065217 C27.6321171,9.46283967 26.6119369,10.4380435 25.4306757,10.4380435 Z" id="Shape"></path>
                    <polygon id="Shape" points="38.8540991 0.161413043 40.5387387 0.161413043 40.5387387 11.9781929 38.8540991 11.9781929"></polygon>
                    <path d="M45.7403153,10.4380435 C44.8677928,10.4380435 44.2503153,10.0412364 43.8476126,9.25434783 L49.0626126,7.09544837 L48.8881081,6.6515625 C48.5659459,5.77724185 47.5726126,4.16311141 45.5523874,4.16311141 C43.5455856,4.16311141 41.8743694,5.74361413 41.8743694,8.07065217 C41.8743694,10.2631793 43.5254505,11.9781929 45.7403153,11.9781929 C47.5256306,11.9781929 48.5592342,10.8819293 48.9887838,10.2497283 L47.6598649,9.36195652 C47.2168919,10.0076087 46.6128378,10.4380435 45.7403153,10.4380435 Z M45.6195045,5.62927989 C46.3108108,5.62927989 46.9014414,5.9857337 47.0960811,6.49014946 L43.5724324,7.94959239 C43.5724324,6.30855978 44.7335586,5.62927989 45.6195045,5.62927989 L45.6195045,5.62927989 Z" id="Shape"></path>
                </g>
                <g id="Google-play-dark-logo" transform="translate(5.596244, 5.625000)">
                    <rect id="bounding-box" x="0" y="0" width="33.5774648" height="33.75"></rect>
                    <path d="M5.59624413,29.0135497 L5.59624413,4.7392775 C5.59624413,3.89220535 6.08482462,3.15999335 6.7938388,2.8125 L20.7635633,16.8722727 L6.78822049,30.9375 C6.08224247,30.58895 5.59624413,29.8584372 5.59624413,29.0135497 Z M25.1955049,21.3325988 L9.92050138,30.2084151 L21.9675282,18.0838445 L25.1955049,21.3325988 Z M29.9435476,15.1746443 C30.4516077,15.5660313 30.7793427,16.1827406 30.7793427,16.8764136 C30.7793427,17.559663 30.4615391,18.1680905 29.9665316,18.5601914 L26.7219554,20.4455884 L23.1713513,16.8722727 L26.7195435,13.3012131 L29.9435476,15.1746443 Z M9.9294538,3.54508326 L25.193093,12.4142598 L21.9675282,15.6605582 L9.9294538,3.54508326 Z" id="logo" fill="#000000" fill-rule="nonzero"></path>
                </g>
            </g>
        </g>
    </g>
</svg>