<svg width="149" height="45" viewBox="0 0 149 45" xmlns="http://www.w3.org/2000/svg">
    <g fill="none" fill-rule="evenodd">
        <rect fill="#000" width="149" height="45" rx="7"/>
        <text font-family="Roboto-Regular, Roboto" font-size="10.5" letter-spacing=".84" fill="#FFF">
                    <tspan x="48.217" y="15.654">Download on</tspan>
                </text>
        <text font-family="Roboto-Light, Roboto" font-size="16.8" font-weight="300" fill="#FFF">
                    <tspan x="102.131" y="35.732">play</tspan>
                </text>
        <g fill="#FFF" fill-rule="nonzero">
            <path d="M54.47 28.711v1.655h3.946c-.121.928-.43 1.607-.9 2.085-.577.578-1.476 1.21-3.047 1.21-2.43 0-4.329-1.964-4.329-4.398 0-2.435 1.9-4.399 4.33-4.399 1.308 0 2.268.518 2.973 1.184l1.16-1.163c-.98-.956-2.295-1.682-4.134-1.682-3.329 0-6.128 2.717-6.128 6.053s2.8 6.053 6.128 6.053c1.799 0 3.155-.592 4.215-1.695 1.087-1.09 1.43-2.63 1.43-3.867 0-.383-.027-.74-.087-1.036h-5.558zM65.047 27.366c-2.155 0-3.913 1.641-3.913 3.908 0 2.246 1.758 3.907 3.913 3.907 2.154 0 3.913-1.654 3.913-3.907 0-2.267-1.759-3.908-3.913-3.908zm0 6.275c-1.181 0-2.202-.975-2.202-2.367 0-1.406 1.02-2.368 2.202-2.368 1.181 0 2.201.962 2.201 2.368 0 1.392-1.02 2.367-2.201 2.367zM84.229 28.24h-.06c-.383-.457-1.121-.874-2.054-.874-1.947 0-3.645 1.702-3.645 3.908 0 2.192 1.698 3.907 3.645 3.907.933 0 1.671-.417 2.054-.887h.06v.544c0 1.493-.799 2.294-2.08 2.294-1.048 0-1.699-.754-1.967-1.392l-1.49.618c.43 1.036 1.564 2.307 3.456 2.307 2.007 0 3.705-1.184 3.705-4.069v-7.028H84.23v.673zm-1.967 5.401c-1.18 0-2.08-1.009-2.08-2.367 0-1.379.9-2.368 2.08-2.368 1.168 0 2.081 1.01 2.081 2.381.007 1.366-.913 2.354-2.08 2.354zM73.772 27.366c-2.154 0-3.913 1.641-3.913 3.908 0 2.246 1.759 3.907 3.913 3.907 2.155 0 3.913-1.654 3.913-3.907 0-2.267-1.758-3.908-3.913-3.908zm0 6.275c-1.181 0-2.201-.975-2.201-2.367 0-1.406 1.02-2.368 2.201-2.368s2.202.962 2.202 2.368c0 1.392-1.02 2.367-2.202 2.367zM87.196 23.365h1.684V35.18h-1.684zM94.082 33.641c-.873 0-1.49-.397-1.893-1.184l5.215-2.158-.174-.444c-.323-.875-1.316-2.489-3.336-2.489-2.007 0-3.678 1.58-3.678 3.908 0 2.192 1.65 3.907 3.866 3.907 1.785 0 2.819-1.096 3.248-1.728l-1.329-.888c-.443.646-1.047 1.076-1.92 1.076zm-.121-4.809c.691 0 1.282.357 1.477.861l-3.524 1.46c0-1.641 1.161-2.32 2.047-2.32z"/>
        </g>
        <path d="M5.596 5.625h33.577v33.75H5.596z"/>
        <path d="M11.192 34.639V10.364c0-.847.49-1.579 1.198-1.927l13.97 14.06-13.976 14.066a2.143 2.143 0 0 1-1.192-1.924zm19.6-7.681-15.275 8.875L27.564 23.71l3.228 3.249zM35.54 20.8c.508.391.836 1.008.836 1.701 0 .684-.318 1.292-.813 1.684l-3.245 1.886-3.55-3.574 3.548-3.57L35.54 20.8zM15.526 9.17l15.263 8.87-3.225 3.246L15.526 9.17z" fill="#FFF" fill-rule="nonzero"/>
    </g>
</svg>
