<svg width="85" height="64" viewBox="0 0 85 64" fill="none" xmlns="http://www.w3.org/2000/svg">
<path d="M47.7099 21V16H21.2V46L47.52 46.38L47.7099 20.32" stroke="#362C86" stroke-width="2" stroke-linecap="round" stroke-linejoin="round"/>
<path d="M31.8099 38L26.5 32L21.2 36" stroke="#362C86" stroke-width="2" stroke-linecap="round" stroke-linejoin="round"/>
<path d="M46.3799 34L37.1099 29L29.1599 35" stroke="#362C86" stroke-width="2" stroke-linecap="round" stroke-linejoin="round"/>
<path d="M60 46.5C56.6905 51.1577 51.9284 51.1756 48.6316 46.5C45.3347 41.8244 39.3095 41.8423 36 46.5" stroke="white" stroke-width="4" stroke-linecap="round" stroke-linejoin="round"/>
<path d="M57 47.9613C54.38 50.5713 50.61 50.5813 48 47.9613C45.39 45.3413 40.62 45.3513 38 47.9613" stroke="#35B6B4" stroke-width="4" stroke-linecap="round" stroke-linejoin="round"/>
<path d="M28.5 24.76C29.3284 24.76 30 24.0884 30 23.26C30 22.4316 29.3284 21.76 28.5 21.76C27.6716 21.76 27 22.4316 27 23.26C27 24.0884 27.6716 24.76 28.5 24.76Z" stroke="#35B6B4" stroke-width="4" stroke-linecap="round" stroke-linejoin="round"/>
<path d="M14.02 8L15.94 13.97" stroke="#362C86" stroke-width="2" stroke-linecap="round" stroke-linejoin="round"/>
<path d="M17.96 10.03L12 11.95" stroke="#362C86" stroke-width="2" stroke-linecap="round" stroke-linejoin="round"/>
<path d="M59.92 34.96C59.92 36.59 58.59 37.92 56.96 37.92C55.33 37.92 54 36.59 54 34.96C54 33.33 55.33 32 56.96 32C58.59 32 59.92 33.33 59.92 34.96Z" fill="white" stroke="#394999" stroke-width="2" stroke-linecap="round" stroke-linejoin="round"/>
</svg>
