<svg width="85" height="85" viewBox="0 0 85 85" fill="none" xmlns="http://www.w3.org/2000/svg">
<path d="M57.0801 33.82C59.0401 33.82 60.6201 35.41 60.6201 37.36V54.35C60.6201 56.31 59.0301 57.89 57.0801 57.89H30.6301C27.7001 57.89 25.3201 55.51 25.3201 52.58V31.8C25.3201 30.25 26.5701 29 28.1201 29H53.3201C53.3201 29 56.7601 29.35 56.7601 33.47L57.0901 33.81L57.0801 33.82Z" fill="white"/>
<path d="M31.2 22.7C31.4596 22.7 31.67 22.4896 31.67 22.23C31.67 21.9704 31.4596 21.76 31.2 21.76C30.9404 21.76 30.73 21.9704 30.73 22.23C30.73 22.4896 30.9404 22.7 31.2 22.7Z" stroke="#394999" stroke-width="2" stroke-linecap="round" stroke-linejoin="round"/>
<path d="M59.3599 67.89C59.6195 67.89 59.8299 67.6795 59.8299 67.42C59.8299 67.1604 59.6195 66.95 59.3599 66.95C59.1003 66.95 58.8899 67.1604 58.8899 67.42C58.8899 67.6795 59.1003 67.89 59.3599 67.89Z" stroke="#394999" stroke-width="2" stroke-linecap="round" stroke-linejoin="round"/>
<path d="M57.03 22.69V19.77" stroke="#394999" stroke-width="2" stroke-linecap="round" stroke-linejoin="round"/>
<path d="M62.1699 28.77H63.7799" stroke="#394999" stroke-width="2" stroke-linecap="round" stroke-linejoin="round"/>
<path d="M25.3099 18.3399C25.3099 19.9699 23.9799 21.2999 22.3499 21.2999C20.7199 21.2999 19.3899 19.9699 19.3899 18.3399C19.3899 16.7099 20.7199 15.3799 22.3499 15.3799C23.9799 15.3799 25.3099 16.7099 25.3099 18.3399Z" fill="white" stroke="#394999" stroke-width="2" stroke-linecap="round" stroke-linejoin="round"/>
<path d="M68.55 61.4299V66.4899" stroke="#394999" stroke-width="2" stroke-linecap="round" stroke-linejoin="round"/>
<path d="M71.09 63.96H66.02" stroke="#394999" stroke-width="2" stroke-linecap="round" stroke-linejoin="round"/>
<path d="M13.21 30.46V35.53" stroke="#394999" stroke-width="2" stroke-linecap="round" stroke-linejoin="round"/>
<path d="M15.7399 33H10.6799" stroke="#394999" stroke-width="2" stroke-linecap="round" stroke-linejoin="round"/>
<path d="M13.21 30.46V35.53" stroke="#394999" stroke-width="2" stroke-linecap="round" stroke-linejoin="round"/>
<path d="M15.7399 33H10.6799" stroke="#394999" stroke-width="2" stroke-linecap="round" stroke-linejoin="round"/>
<path d="M56.6099 32.55C56.6099 30.59 55.0199 29.01 53.0699 29.01H32.1299" fill="white"/>
<path d="M56.6099 32.55C56.6099 30.59 55.0199 29.01 53.0699 29.01H32.1299" stroke="#394999" stroke-width="2" stroke-linecap="round" stroke-linejoin="round"/>
<path d="M31.78 36.3001L40.38 23.1001L50.95 29.9801" fill="white"/>
<path d="M31.78 36.3001L40.38 23.1001L50.95 29.9801" stroke="#3AB5B2" stroke-width="4" stroke-linecap="round" stroke-linejoin="round"/>
<path d="M38.47 34.8901L40.47 31.8201C41.59 32.5501 43.1 32.2301 43.83 31.1101L46.9 33.1101" fill="white"/>
<path d="M38.47 34.8901L40.47 31.8201C41.59 32.5501 43.1 32.2301 43.83 31.1101L46.9 33.1101" stroke="#3AB5B2" stroke-width="4" stroke-linecap="round" stroke-linejoin="round"/>
<path d="M29.0401 33.82H57.0801C59.0401 33.82 60.6201 35.41 60.6201 37.36V54.35C60.6201 56.31 59.0301 57.89 57.0801 57.89H30.6301C27.7001 57.89 25.3201 55.51 25.3201 52.58V31.8C25.3201 30.25 26.5701 29 28.1201 29" fill="white"/>
<path d="M29.0401 33.82H57.0801C59.0401 33.82 60.6201 35.41 60.6201 37.36V54.35C60.6201 56.31 59.0301 57.89 57.0801 57.89H30.6301C27.7001 57.89 25.3201 55.51 25.3201 52.58V31.8C25.3201 30.25 26.5701 29 28.1201 29" stroke="#394999" stroke-width="2" stroke-linecap="round" stroke-linejoin="round"/>
<path d="M33.64 64.3499H26.92C24.5 64.3499 22.31 63.3299 20.77 61.6999C19.34 60.1799 18.46 58.1399 18.46 55.8899" stroke="#394999" stroke-width="2" stroke-linecap="round" stroke-linejoin="round"/>
<path d="M60.5699 49.3801H50.2999C48.1499 49.3801 46.4099 47.6401 46.4099 45.4901C46.4099 43.3401 48.1499 41.6001 50.2999 41.6001H60.5699C61.3499 41.6001 61.9899 42.2301 61.9899 43.0201V47.9801C61.9899 48.7601 61.3599 49.4001 60.5699 49.4001V49.3801Z" fill="white" stroke="#394999" stroke-width="2" stroke-linecap="round" stroke-linejoin="round"/>
<path d="M49.24 45.49C49.24 44.51 50.03 43.72 51.01 43.72L49.24 45.49Z" fill="white"/>
<path d="M49.24 45.49C49.24 44.51 50.03 43.72 51.01 43.72" stroke="#394999" stroke-width="2" stroke-linecap="round" stroke-linejoin="round"/>
<path d="M61.3701 24.4L62.5001 23.27" stroke="#394999" stroke-width="2" stroke-linecap="round" stroke-linejoin="round"/>
</svg>
