<svg width="24" height="24" viewBox="0 0 24 24" fill="none" xmlns="http://www.w3.org/2000/svg">
<path d="M12 0.0771484C5.38338 0.0771484 0 5.42682 0 12.002C0 18.5772 5.38338 23.9268 12 23.9268C18.6166 23.9268 24 18.5772 24 12.002C24 5.42682 18.6166 0.0771484 12 0.0771484ZM8.92248 3.74633H15.0757C17.9603 3.74633 20.3077 6.07811 20.3077 8.94375V15.0585C20.3077 17.925 17.9612 20.2577 15.0775 20.2577H8.92428C6.03966 20.2577 3.69231 17.9259 3.69231 15.0602V8.94554C3.69231 6.07899 6.03878 3.74633 8.92248 3.74633ZM8.92248 5.58093C7.05694 5.58093 5.53846 7.09077 5.53846 8.94554V15.0602C5.53846 16.9141 7.05782 18.4231 8.92428 18.4231H15.0775C16.9431 18.4231 18.4615 16.9132 18.4615 15.0585V8.94375C18.4615 7.08989 16.9422 5.58093 15.0757 5.58093H8.92248ZM16.3089 7.10916C16.6486 7.10916 16.9237 7.38252 16.9237 7.72009C16.9237 8.05765 16.6486 8.33281 16.3089 8.33281C15.9692 8.33281 15.6923 8.05765 15.6923 7.72009C15.6923 7.38252 15.9692 7.10916 16.3089 7.10916ZM12 7.41552C14.5449 7.41552 16.6154 9.47301 16.6154 12.002C16.6154 14.531 14.5449 16.5885 12 16.5885C9.45508 16.5885 7.38462 14.531 7.38462 12.002C7.38462 9.47301 9.45508 7.41552 12 7.41552ZM12 9.25011C11.2656 9.25011 10.5612 9.54004 10.0419 10.0561C9.52253 10.5722 9.23077 11.2722 9.23077 12.002C9.23077 12.7318 9.52253 13.4318 10.0419 13.9479C10.5612 14.464 11.2656 14.7539 12 14.7539C12.7344 14.7539 13.4388 14.464 13.9581 13.9479C14.4775 13.4318 14.7692 12.7318 14.7692 12.002C14.7692 11.2722 14.4775 10.5722 13.9581 10.0561C13.4388 9.54004 12.7344 9.25011 12 9.25011V9.25011Z" fill="white"/>
</svg>
