<svg width="24" height="24" viewBox="0 0 24 24" fill="none" xmlns="http://www.w3.org/2000/svg">
<path d="M12 0.0771484C5.373 0.0771484 0 5.4165 0 12.002C0 18.5875 5.373 23.9268 12 23.9268C18.627 23.9268 24 18.5875 24 12.002C24 5.4165 18.627 0.0771484 12 0.0771484ZM7.496 5.44631C8.338 5.44631 8.899 6.0038 8.899 6.74711C8.899 7.49043 8.338 8.04792 7.403 8.04792C6.561 8.04891 6 7.49043 6 6.74711C6 6.0038 6.561 5.44631 7.496 5.44631ZM9 16.9707H6V9.02079H9V16.9707ZM19 16.9707H16.176V12.6261C16.176 11.4246 15.423 11.1474 15.141 11.1474C14.859 11.1474 13.917 11.3322 13.917 12.6261C13.917 12.8109 13.917 16.9707 13.917 16.9707H11V9.02079H13.918V10.1298C14.294 9.48287 15.047 9.02079 16.459 9.02079C17.871 9.02079 19 10.1298 19 12.6261V16.9707Z" fill="white"/>
</svg>
