<svg width="148" height="31" viewBox="0 0 148 31" fill="none" xmlns="http://www.w3.org/2000/svg">
    <g clip-path="url(#s1doi7q0la)" fill="#fff">
        <path d="M7 11.052A1.864 1.864 0 0 0 8.118 12.9a1.872 1.872 0 0 0 2.612-1.848V6.6a1.864 1.864 0 0 0-1.118-1.848 1.872 1.872 0 0 0-2.511 1.093c-.086.242-.12.5-.101.755v4.453z"/>
        <path d="M8.84 17.651a8.85 8.85 0 0 0 4.911-1.487 8.812 8.812 0 0 0 1.34-13.58A8.844 8.844 0 0 0 5.457.673a8.837 8.837 0 0 0-3.967 3.25 8.816 8.816 0 0 0 1.1 11.144 8.847 8.847 0 0 0 6.25 2.585zm0-14.716a5.907 5.907 0 0 1 5.45 3.637 5.882 5.882 0 0 1-1.278 6.419 5.903 5.903 0 0 1-6.43 1.277c-1.078-.446-2-1.201-2.648-2.17a5.884 5.884 0 0 1 .734-7.437A5.905 5.905 0 0 1 8.84 2.935zM76.48 9.295a2.904 2.904 0 0 1 2.83-2.386c.317-.002.63.063.92.19.266.11.502.28.69.499.19.212.322.47.38.749.078.328.078.67 0 .998a2.554 2.554 0 0 1-.34.919 3.119 3.119 0 0 1-1.52 1.277c-.317.131-.657.195-1 .19a2.072 2.072 0 0 1-.92-.19 1.809 1.809 0 0 1-.67-.519c-.186-.22-.32-.48-.39-.758a1.994 1.994 0 0 1 0-.919M19.36 26.567l3.12-17.711h5.96l2.27 11.84 6.66-11.84H43l-3.13 17.711H35.5l2.12-11.96-6.28 11.96h-3.32l-2.18-11.96-2.12 11.96h-4.36zM43.2 21.176l1.39-7.887h4.22l-1.2 6.809a4.257 4.257 0 0 0 .1 2.316c.23.599.78.898 1.67.898a2.644 2.644 0 0 0 2.1-.908 5.048 5.048 0 0 0 1.06-2.436l1.17-6.66h4.23l-2.35 13.28h-4.22l.34-1.898a4.929 4.929 0 0 1-2 1.647 6.438 6.438 0 0 1-2.8.59 4.677 4.677 0 0 1-2.2-.43A3.128 3.128 0 0 1 43 23.602c.004-.814.084-1.627.24-2.426M58.06 26.567l3.12-17.711h4.22l-3.13 17.711h-4.21zM66.94 13.289l.78-4.433h4.22l-.78 4.433h3l-.56 3.135h-3l-.83 4.722a3.858 3.858 0 0 0-.07 1.168c.04.24.143.463.3.649a1 1 0 0 0 .56.32c.26.046.525.069.79.07h.69c.28 0 .52 0 .74-.07l-.58 3.264c-.32.06-.72.1-1.2.16s-1 .05-1.68.05c-.518 0-1.036-.033-1.55-.1a3.103 3.103 0 0 1-1.43-.56 2.675 2.675 0 0 1-.91-1.407 5.643 5.643 0 0 1 0-2.606l1-5.68.51-3.115zM73.78 26.567l2.35-13.278h4.22L78 26.567h-4.22zM95.07 31l3.14-17.711h4.21l-.33 1.896a5.572 5.572 0 0 1 1.91-1.577 5.767 5.767 0 0 1 2.8-.659 5.27 5.27 0 0 1 2.37.54c.68.356 1.269.865 1.72 1.487.501.651.843 1.41 1 2.216.175.91.175 1.846 0 2.756a8.49 8.49 0 0 1-1 2.775 8.59 8.59 0 0 1-1.73 2.207 7.92 7.92 0 0 1-2.26 1.467 6.418 6.418 0 0 1-2.57.54 4.394 4.394 0 0 1-2.55-.67 3.176 3.176 0 0 1-1.33-1.567l-1.13 6.33-4.25-.03zm6.18-11.032a3.437 3.437 0 0 0 0 1.318c.07.386.228.751.46 1.068.229.307.527.556.87.729.387.195.817.29 1.25.28.462.003.919-.092 1.34-.28a4.007 4.007 0 0 0 1.13-.73c.338-.303.619-.665.83-1.067.237-.407.397-.854.47-1.318a3.386 3.386 0 0 0 0-1.308 2.526 2.526 0 0 0-.47-1.069 2.268 2.268 0 0 0-.86-.728 2.714 2.714 0 0 0-1.25-.27c-.46-.002-.916.09-1.34.27-.414.18-.796.426-1.13.729-.336.308-.62.669-.84 1.068-.227.407-.386.85-.47 1.308M113.27 19.968a8.111 8.111 0 0 1 1-2.686 8.45 8.45 0 0 1 1.84-2.306 8.898 8.898 0 0 1 2.59-1.518 8.71 8.71 0 0 1 3.19-.569 7.343 7.343 0 0 1 3 .57c.815.328 1.539.849 2.11 1.517.51.661.853 1.435 1 2.256.17.887.17 1.799 0 2.686a8.222 8.222 0 0 1-1 2.706 8.382 8.382 0 0 1-1.84 2.226 8.727 8.727 0 0 1-2.6 1.517 8.876 8.876 0 0 1-3.22.57 7.28 7.28 0 0 1-3-.57 5.482 5.482 0 0 1-2-1.517 5.312 5.312 0 0 1-1.07-2.227 6.96 6.96 0 0 1 0-2.705m4.22 0c-.08.442-.08.895 0 1.338.063.39.213.763.44 1.088.22.314.516.568.86.739.392.179.819.267 1.25.26.466 0 .927-.089 1.36-.26a3.8 3.8 0 0 0 1.14-.739 4.46 4.46 0 0 0 .84-1.078c.23-.42.389-.876.47-1.348a3.25 3.25 0 0 0 0-1.318 2.916 2.916 0 0 0-.46-1.078 2.3 2.3 0 0 0-.87-.73c-.4-.186-.838-.278-1.28-.269-.46-.002-.916.09-1.34.27a3.79 3.79 0 0 0-1.12.729 4.69 4.69 0 0 0-.83 1.078c-.218.413-.37.858-.45 1.318M140.76 13.289l.78-4.433h4.22l-.76 4.433h3l-.55 3.135h-3l-.84 4.722a3.851 3.851 0 0 0-.07 1.168c.021.25.111.488.26.689.143.17.341.283.56.32.257.046.518.069.78.07h.69c.248-.01.495-.034.74-.07l-.57 3.244c-.33.06-.73.1-1.21.16s-1 .05-1.67.05c-.522 0-1.043-.033-1.56-.1a3.061 3.061 0 0 1-1.42-.56 2.684 2.684 0 0 1-.92-1.407 5.936 5.936 0 0 1 0-2.606l1-5.68.54-3.135zM95.88 11.8A4.3 4.3 0 0 0 95 9.985a4.6 4.6 0 0 0-1.81-1.278 7.15 7.15 0 0 0-2.71-.47 9.866 9.866 0 0 0-2.48.28 7.426 7.426 0 0 0-2.23.999A6.275 6.275 0 0 0 84 11.152a5.886 5.886 0 0 0-1 2.366c-.17.749-.128 1.53.12 2.256.233.604.615 1.14 1.11 1.558a7.14 7.14 0 0 0 1.76 1.108c.66.3 1.37.59 2.1.879l1 .429c.27.122.522.28.75.47.182.151.324.347.41.568.073.258.073.531 0 .79a1.995 1.995 0 0 1-.7 1.387 2.643 2.643 0 0 1-1.64.499 2.062 2.062 0 0 1-1.71-.729 2.465 2.465 0 0 1-.37-2.056h-4.5a6.479 6.479 0 0 0 0 2.755 4.64 4.64 0 0 0 1.08 1.997 5 5 0 0 0 2 1.258 7.87 7.87 0 0 0 2.71.43 9.517 9.517 0 0 0 2.74-.39 7.846 7.846 0 0 0 2.34-1.138 6.744 6.744 0 0 0 1.8-1.827 6.544 6.544 0 0 0 1-2.416 4.446 4.446 0 0 0-.23-2.377 4.133 4.133 0 0 0-1.18-1.617 7.781 7.781 0 0 0-1.85-1.118c-.69-.29-1.41-.59-2.13-.849a5.433 5.433 0 0 1-1.61-.899 1.257 1.257 0 0 1-.36-1.208 1.636 1.636 0 0 1 .75-1.148 2.623 2.623 0 0 1 1.43-.409 1.502 1.502 0 0 1 1.37.599c.274.508.338 1.103.18 1.657h4.53c.15-.728.15-1.478 0-2.206M139.15 13.059a5.247 5.247 0 0 0-2.69.719 5.706 5.706 0 0 0-1.85 1.667l.38-2.156h-4.22l-2.35 13.278h4.23l.91-5.181a5.565 5.565 0 0 1 1.66-3.415 4.565 4.565 0 0 1 3-.998h.52l.67-3.874h-.28"/>
    </g>
    <defs>
        <clipPath id="s1doi7q0la">
            <path fill="#fff" d="M0 0h148v31H0z"/>
        </clipPath>
    </defs>
</svg>
