<svg width="20" height="20" viewBox="0 0 20 20" fill="none" xmlns="http://www.w3.org/2000/svg">
<mask id="mask0_162_1267" style="mask-type:alpha" maskUnits="userSpaceOnUse" x="0" y="0" width="20" height="20">
<rect width="20" height="20" fill="#D9D9D9"/>
</mask>
<g mask="url(#mask0_162_1267)">
<path d="M10.0003 15.8333C8.04199 14.3889 6.58005 12.9861 5.61449 11.625C4.64949 10.2639 4.16699 8.93054 4.16699 7.62499C4.16699 6.63888 4.34421 5.77416 4.69866 5.03082C5.05255 4.28805 5.50727 3.66666 6.06283 3.16666C6.61838 2.66666 7.24338 2.29166 7.93783 2.04166C8.63227 1.79166 9.31977 1.66666 10.0003 1.66666C10.6809 1.66666 11.3684 1.79166 12.0628 2.04166C12.7573 2.29166 13.3823 2.66666 13.9378 3.16666C14.4934 3.66666 14.9484 4.28805 15.3028 5.03082C15.6567 5.77416 15.8337 6.63888 15.8337 7.62499C15.8337 8.93054 15.3509 10.2639 14.3853 11.625C13.4203 12.9861 11.9587 14.3889 10.0003 15.8333ZM10.0003 9.16666C10.4587 9.16666 10.8512 9.00332 11.1778 8.67666C11.5039 8.35054 11.667 7.95832 11.667 7.49999C11.667 7.04166 11.5039 6.64916 11.1778 6.32249C10.8512 5.99638 10.4587 5.83332 10.0003 5.83332C9.54199 5.83332 9.14977 5.99638 8.82366 6.32249C8.49699 6.64916 8.33366 7.04166 8.33366 7.49999C8.33366 7.95832 8.49699 8.35054 8.82366 8.67666C9.14977 9.00332 9.54199 9.16666 10.0003 9.16666ZM4.16699 18.3333V16.6667H15.8337V18.3333H4.16699Z" fill="#33BEB7"/>
</g>
</svg>
