<svg width="26" height="26" viewBox="0 0 26 26" fill="none" xmlns="http://www.w3.org/2000/svg">
<path d="M26 13C26 20.1797 20.1797 26 13 26C5.8203 26 0 20.1797 0 13C0 5.8203 5.8203 0 13 0C20.1797 0 26 5.8203 26 13Z" fill="#3642AE"/>
<path d="M26 13C26 20.1797 20.1797 26 13 26C5.8203 26 0 20.1797 0 13C0 5.8203 5.8203 0 13 0C20.1797 0 26 5.8203 26 13Z" fill="#3642AE"/>
<path d="M22 13C22 17.9706 17.9706 22 13 22C8.02944 22 4 17.9706 4 13C4 8.02944 8.02944 4 13 4C17.9706 4 22 8.02944 22 13Z" fill="#4953B4" stroke="white" stroke-width="2"/>
</svg>
