<svg width="103" height="40" viewBox="0 0 103 40" fill="none" xmlns="http://www.w3.org/2000/svg">
<g clip-path="url(#clip0_2833_4387)">
<path d="M4.35151 26.1343C5.72177 25.7008 7.11127 25.6136 8.46616 25.5772C9.23512 25.5584 9.996 25.5754 10.7588 25.6049C11.8507 25.6456 12.9388 25.7165 14.0238 25.8116C16.0934 25.9889 18.1562 26.2207 20.2201 26.471C24.3513 26.9721 28.4821 27.4485 32.6514 27.6229C36.9745 27.8045 41.2945 28.0104 45.6191 28.1799C49.7199 28.3394 53.8173 28.4985 57.9101 28.7491C62.0071 28.9941 66.0968 29.2688 70.2126 29.3382C74.4234 29.4073 78.61 29.6944 82.7947 30.0242C84.7794 30.1785 86.774 30.3094 88.7822 30.1966C89.831 30.1335 90.8829 30.0463 91.9329 29.9466C92.9614 29.8503 93.9868 29.8334 95.0153 29.7924C95.9619 29.7593 96.8685 29.9299 97.7812 30.1627C98.4583 30.1199 99.0365 29.6102 99.509 28.6327C99.7747 28.0095 100.043 27.3929 100.309 26.7697C100.865 25.109 101.252 23.3654 101.475 21.558C101.716 19.7467 101.773 17.9674 101.651 16.2204C101.55 15.5506 101.444 14.8864 101.343 14.2165C101.131 13.1519 100.698 12.5136 100.054 12.3026C99.5357 12.3104 99.0121 12.3359 98.4957 12.3316C98.0251 12.327 97.558 12.2675 97.0908 12.2081C96.0927 12.0934 95.0919 12.0274 94.0896 11.9736C92.0046 11.8618 89.9123 11.835 87.8326 11.681C83.8029 11.377 79.7928 10.8913 75.7404 10.7932C73.5673 10.7378 71.3931 10.719 69.2242 10.658C67.2515 10.6034 65.2837 10.482 63.3194 10.361C59.1367 10.099 54.9455 9.90343 50.7516 9.75663C46.6104 9.6104 42.4688 9.43956 38.326 9.30542C36.0361 9.22895 33.7484 9.13436 31.4596 9.02121C29.4119 8.9203 27.3742 8.68559 25.3383 8.46341C21.1725 8.0132 17.0105 7.53277 12.8036 7.43344C11.7697 7.40627 10.7305 7.4214 9.68277 7.50299C8.83423 7.56694 7.97646 7.7034 7.12485 7.90203C6.4651 8.05754 5.80919 8.34862 5.15559 8.62157C4.77304 8.78165 4.38357 9.05136 4.02948 9.3747C3.30938 10.1426 2.74962 11.1704 2.34673 12.4577C1.46752 14.9184 1.00625 17.9357 0.932531 20.6156C0.861076 22.2274 0.980704 23.7468 1.29487 25.1744C1.47559 25.6333 1.65978 26.0927 1.8405 26.5516C2.30882 27.2374 2.85208 27.3066 3.47723 26.7598C3.75635 26.5006 4.04931 26.2985 4.34728 26.1399L4.35151 26.1343Z" fill="#EBECF7"/>
</g>
<defs>
<clipPath id="clip0_2833_4387">
<rect width="100" height="27" fill="white" transform="translate(3.40784) rotate(7.25094)"/>
</clipPath>
</defs>
</svg>
