<svg width="294" height="266" viewBox="0 0 294 266" fill="none" xmlns="http://www.w3.org/2000/svg">
<path d="M1 1C8.8137 30.1714 6.40737 83.5842 68.2951 91.8981C130.183 100.183 145.81 55.463 187.853 103.45C229.923 151.408 293 146.886 293 146.886" stroke="white" stroke-miterlimit="10"/>
<path d="M135.575 156.037C135.575 165.727 127.727 173.575 118.037 173.575C108.348 173.575 100.5 165.727 100.5 156.037C100.5 146.348 108.348 138.5 118.037 138.5C127.727 138.5 135.575 146.348 135.575 156.037Z" stroke="white"/>
<path d="M204.516 111.758C204.516 118.797 198.797 124.516 191.758 124.516C184.719 124.516 179 118.797 179 111.758C179 104.719 184.7 99 191.758 99C198.816 99 204.516 104.719 204.516 111.758Z" fill="#F7CB3C"/>
<path d="M100.075 53.0375C100.075 63.003 92.003 71.0749 82.0374 71.0749C72.0719 71.0749 64 63.003 64 53.0375C64 43.0719 72.0719 35 82.0374 35C92.003 35 100.075 43.0719 100.075 53.0375Z" fill="#233E97"/>
<path d="M263 265L252.138 254L241.277 265L230.416 254L219.554 265L208.693 254L197.831 265L187 254" stroke="white" stroke-width="1.17" stroke-linecap="round" stroke-linejoin="round"/>
</svg>
