<svg width="125" height="119" viewBox="0 0 125 119" fill="none" xmlns="http://www.w3.org/2000/svg">
<path d="M38 1C41.1041 19.382 40.1481 53.0394 64.7337 58.2782C89.3192 63.4987 95.5274 35.3192 112.229 65.5575C128.942 95.7775 154 92.9283 154 92.9283" stroke="#7179C4" stroke-miterlimit="10"/>
<path d="M113.075 100.037C113.075 110.003 105.003 118.075 95.0374 118.075C85.0719 118.075 77 110.003 77 100.037C77 90.0719 85.0719 82 95.0374 82C105.003 82 113.075 90.0719 113.075 100.037Z" fill="#233E97"/>
<path d="M25.5164 29.7582C25.5164 36.7972 19.7972 42.5164 12.7582 42.5164C5.71916 42.5164 0 36.7972 0 29.7582C0 22.7192 5.70003 17 12.7582 17C19.8163 17 25.5164 22.7192 25.5164 29.7582Z" fill="#F7CB3C"/>
</svg>
