<svg width="294" height="188" viewBox="0 0 294 188" fill="none" xmlns="http://www.w3.org/2000/svg">
<path d="M144.575 169.037C144.575 178.727 136.727 186.575 127.037 186.575C117.348 186.575 109.5 178.727 109.5 169.037C109.5 159.348 117.348 151.5 127.037 151.5C136.727 151.5 144.575 159.348 144.575 169.037Z" stroke="#7179C4"/>
<path d="M1 1C8.8137 30.1714 6.40737 83.5842 68.2951 91.8981C130.183 100.183 145.81 55.463 187.853 103.45C229.923 151.408 293 146.886 293 146.886" stroke="#7179C4" stroke-miterlimit="10"/>
<path d="M204.516 111.758C204.516 118.797 198.797 124.516 191.758 124.516C184.719 124.516 179 118.797 179 111.758C179 104.719 184.7 99 191.758 99C198.816 99 204.516 104.719 204.516 111.758Z" fill="#F7CB3C"/>
<path d="M100.075 53.0375C100.075 63.003 92.003 71.0749 82.0374 71.0749C72.0719 71.0749 64 63.003 64 53.0375C64 43.0719 72.0719 35 82.0374 35C92.003 35 100.075 43.0719 100.075 53.0375Z" fill="#233E97"/>
</svg>
