<svg width="201" height="102" viewBox="0 0 201 102" fill="none" xmlns="http://www.w3.org/2000/svg">
<path d="M1.49996 1C1.49996 1 -4.59268 29.5842 57.2951 37.8981C119.183 46.1827 134.81 1.46299 176.853 49.45C197.048 72.5 201 76 201 76" stroke="white" stroke-miterlimit="10"/>
<path d="M193.516 88.7582C193.516 95.7972 187.797 101.516 180.758 101.516C173.719 101.516 168 95.7972 168 88.7582C168 81.7192 173.7 76 180.758 76C187.816 76 193.516 81.7192 193.516 88.7582Z" fill="#F7CB3C"/>
<path d="M89.0749 30.0375C89.0749 40.003 81.003 48.0749 71.0374 48.0749C61.0719 48.0749 53 40.003 53 30.0375C53 20.0719 61.0719 12 71.0374 12C81.003 12 89.0749 20.0719 89.0749 30.0375Z" fill="#233E97"/>
</svg>
