<svg width="79" height="79" viewBox="0 0 79 79" fill="none" xmlns="http://www.w3.org/2000/svg">
<g clip-path="url(#clip0_433_4429)">
<path d="M43.8573 63.1383L42.4254 51.6215C42.2403 50.1403 40.9812 49.0294 39.4876 49.0294C37.994 49.0294 36.735 50.1403 36.5498 51.6215L35.1179 63.1383" stroke="#35B6B4" stroke-width="4.53" stroke-linecap="round" stroke-linejoin="round"/>
<path d="M33.18 42.4378C31.995 40.29 32.1184 37.6608 33.5132 35.6487C34.7106 33.9206 36.6856 32.8837 38.7964 32.8837H39.4876" stroke="#35B6B4" stroke-width="4.53" stroke-linecap="round" stroke-linejoin="round"/>
<path d="M46.0422 42.4378C47.2272 40.29 47.1037 37.6608 45.7089 35.6487C44.5115 33.9206 42.5365 32.8837 40.4257 32.8837H39.7345" stroke="#35B6B4" stroke-width="4.53" stroke-linecap="round" stroke-linejoin="round"/>
<path d="M39.4999 26.3169C42.6495 26.3169 45.2027 23.7636 45.2027 20.6141C45.2027 17.4645 42.6495 14.9113 39.4999 14.9113C36.3504 14.9113 33.7971 17.4645 33.7971 20.6141C33.7971 23.7636 36.3504 26.3169 39.4999 26.3169Z" fill="#35B6B4"/>
<path d="M27.7488 60.4597L26.5021 50.3995C26.3416 49.1034 25.243 48.1406 23.9469 48.1406C22.6508 48.1406 21.5522 49.1158 21.3917 50.3995L20.145 60.4597" stroke="#362C86" stroke-width="2" stroke-linecap="round" stroke-linejoin="round"/>
<path d="M19.4908 44.277L18.4416 42.3761C17.4047 40.5121 17.5158 38.2039 18.7378 36.4511C19.787 34.9451 21.5152 34.0317 23.3544 34.0317H23.9592" stroke="#362C86" stroke-width="2" stroke-linecap="round" stroke-linejoin="round"/>
<path d="M26.465 34.0441H24.1444" stroke="#362C86" stroke-width="2" stroke-linecap="round" stroke-linejoin="round"/>
<path d="M23.9468 29.9336C26.2442 29.9336 28.1067 28.0712 28.1067 25.7737C28.1067 23.4763 26.2442 21.6139 23.9468 21.6139C21.6494 21.6139 19.787 23.4763 19.787 25.7737C19.787 28.0712 21.6494 29.9336 23.9468 29.9336Z" stroke="#362C86" stroke-width="2" stroke-linecap="round" stroke-linejoin="round"/>
<path d="M59.7806 60.4597L58.5339 50.3995C58.3734 49.1034 57.2748 48.1406 55.9788 48.1406C54.6827 48.1406 53.5841 49.1158 53.4236 50.3995L52.1769 60.4597" stroke="#362C86" stroke-width="2" stroke-linecap="round" stroke-linejoin="round"/>
<path d="M53.6459 34.0441H55.9788" stroke="#362C86" stroke-width="2" stroke-linecap="round" stroke-linejoin="round"/>
<path d="M60.6324 44.277L61.6816 42.3761C62.7185 40.5121 62.6074 38.2039 61.3853 36.4511C60.3361 34.9451 58.608 34.0317 56.7688 34.0317H56.1639" stroke="#362C86" stroke-width="2" stroke-linecap="round" stroke-linejoin="round"/>
<path d="M55.9788 29.9336C58.2762 29.9336 60.1387 28.0712 60.1387 25.7737C60.1387 23.4763 58.2762 21.6139 55.9788 21.6139C53.6814 21.6139 51.819 23.4763 51.819 25.7737C51.819 28.0712 53.6814 29.9336 55.9788 29.9336Z" stroke="#362C86" stroke-width="2" stroke-linecap="round" stroke-linejoin="round"/>
<path d="M51.0537 14.9112L54.8186 8.34436" stroke="#362C86" stroke-width="2" stroke-linecap="round" stroke-linejoin="round"/>
<path d="M13.0473 32.5258L8.36902 32.9948" stroke="#362C86" stroke-width="2" stroke-linecap="round" stroke-linejoin="round"/>
<path d="M51.0537 66.5698L52.1646 70.3347" stroke="#362C86" stroke-width="2" stroke-linecap="round" stroke-linejoin="round"/>
</g>
<defs>
<clipPath id="clip0_433_4429">
<rect width="79" height="79" fill="white"/>
</clipPath>
</defs>
</svg>
