<svg width="87" height="87" viewBox="0 0 87 87" fill="none" xmlns="http://www.w3.org/2000/svg">
<g clip-path="url(#clip0_433_4460)">
<path d="M28.5469 31.2656H46.2188" stroke="#35B6B4" stroke-width="4" stroke-linecap="round" stroke-linejoin="round"/>
<path d="M28.5469 38.0625H42.1406" stroke="#362C86" stroke-width="2" stroke-linecap="round" stroke-linejoin="round"/>
<path d="M28.5469 43.5H35.3438" stroke="#362C86" stroke-width="2" stroke-linecap="round" stroke-linejoin="round"/>
<path d="M28.5469 48.9375H31.2656" stroke="#362C86" stroke-width="2" stroke-linecap="round" stroke-linejoin="round"/>
<path d="M46.2188 23.1094H53.0156V33.9844" stroke="#362C86" stroke-width="2" stroke-linecap="round" stroke-linejoin="round"/>
<path d="M36.7031 61.1719H21.75V23.1094H29.9062" stroke="#362C86" stroke-width="2" stroke-linecap="round" stroke-linejoin="round"/>
<path d="M38.0625 66.6094L29.9062 72.0469" stroke="#362C86" stroke-width="2" stroke-linecap="round" stroke-linejoin="round"/>
<path d="M70.6875 42.1406L76.125 38.0625" stroke="#362C86" stroke-width="2" stroke-linecap="round" stroke-linejoin="round"/>
<path d="M46.2188 19.0312H29.9062V24.4688H46.2188V19.0312Z" stroke="#362C86" stroke-width="2" stroke-linecap="round" stroke-linejoin="round"/>
<path d="M42.8203 73.4062C43.1957 73.4062 43.5 73.1019 43.5 72.7266C43.5 72.3512 43.1957 72.0469 42.8203 72.0469C42.4449 72.0469 42.1406 72.3512 42.1406 72.7266C42.1406 73.1019 42.4449 73.4062 42.8203 73.4062Z" stroke="#362C86" stroke-width="2" stroke-linecap="round" stroke-linejoin="round"/>
<path d="M71.3672 33.9844C71.7426 33.9844 72.0469 33.6801 72.0469 33.3047C72.0469 32.9293 71.7426 32.625 71.3672 32.625C70.9918 32.625 70.6875 32.9293 70.6875 33.3047C70.6875 33.6801 70.9918 33.9844 71.3672 33.9844Z" stroke="#362C86" stroke-width="2" stroke-linecap="round" stroke-linejoin="round"/>
<path d="M59.8125 50.2969L51.9961 57.6783L48.9375 54.375" stroke="#35B6B4" stroke-width="4" stroke-linecap="round" stroke-linejoin="round"/>
<path d="M54.375 66.6094C61.8826 66.6094 67.9688 60.5232 67.9688 53.0156C67.9688 45.508 61.8826 39.4219 54.375 39.4219C46.8674 39.4219 40.7812 45.508 40.7812 53.0156C40.7812 60.5232 46.8674 66.6094 54.375 66.6094Z" stroke="#362C86" stroke-width="2" stroke-linecap="round" stroke-linejoin="round"/>
</g>
<defs>
<clipPath id="clip0_433_4460">
<rect width="87" height="87" fill="white"/>
</clipPath>
</defs>
</svg>
