<svg width="81" height="81" viewBox="0 0 81 81" fill="none" xmlns="http://www.w3.org/2000/svg">
<g clip-path="url(#clip0_433_4630)">
<path d="M29.3246 28.0209H20.4779" stroke="#362C86" stroke-width="1.9" stroke-linecap="round" stroke-linejoin="round"/>
<path d="M44.3855 45.284L48.7139 52.0551C50.0808 54.194 53.0044 54.6497 54.9661 53.0423C55.4217 52.6626 55.5483 52.0172 55.2699 51.4982L46.1953 34.9059C45.9802 34.5262 45.6005 34.2604 45.1575 34.2225L41.9049 33.9187C41.5252 33.8808 41.1455 34.02 40.8671 34.2858L35.1844 39.8039C33.9947 40.9556 32.1089 40.9303 30.9572 39.7533C29.9194 38.6901 29.8308 37.0322 30.7294 35.8678L36.1589 28.8183C37.6017 26.9451 39.8292 25.8567 42.1833 25.8567H47.2838C49.6631 25.8567 52.0172 26.3629 54.1941 27.3501L61.1044 30.4762" stroke="#362C86" stroke-width="1.9" stroke-linecap="round" stroke-linejoin="round"/>
<path d="M39.3989 48.929L43.3477 55.4976C43.9678 56.5354 45.2714 56.9531 46.3852 56.4595" stroke="#362C86" stroke-width="1.9" stroke-linecap="round" stroke-linejoin="round"/>
<path d="M34.6528 52.6879L37.5131 57.2821C37.9814 58.0415 38.9433 58.3326 39.766 57.9656" stroke="#362C86" stroke-width="1.9" stroke-linecap="round" stroke-linejoin="round"/>
<path d="M33.0202 58.6237C31.9951 58.9908 30.856 58.5858 30.2865 57.6619L24.414 47.9292C24.1735 47.5369 23.7432 47.2964 23.2876 47.2964H20.4779" stroke="#362C86" stroke-width="1.9" stroke-linecap="round" stroke-linejoin="round"/>
<path d="M54.9408 50.9287H61.0917" stroke="#362C86" stroke-width="1.9" stroke-linecap="round" stroke-linejoin="round"/>
<path d="M67.2681 47.8153C67.9461 47.8153 68.4957 47.2657 68.4957 46.5876C68.4957 45.9096 67.9461 45.36 67.2681 45.36C66.59 45.36 66.0404 45.9096 66.0404 46.5876C66.0404 47.2657 66.59 47.8153 67.2681 47.8153Z" fill="#362C86"/>
<path d="M14.213 45.3853C14.891 45.3853 15.4407 44.8357 15.4407 44.1577C15.4407 43.4796 14.891 42.93 14.213 42.93C13.535 42.93 12.9854 43.4796 12.9854 44.1577C12.9854 44.8357 13.535 45.3853 14.213 45.3853Z" fill="#362C86"/>
<path d="M13.4156 24.8695H19.1489C19.883 24.8695 20.4652 25.4644 20.4652 26.1858V49.5998C20.4652 50.3339 19.8703 50.9161 19.1489 50.9161H13.4156" stroke="#35B6B4" stroke-width="3.82" stroke-linecap="round" stroke-linejoin="round"/>
<path d="M68.1413 26.8945H62.408C61.674 26.8945 61.0918 27.4894 61.0918 28.2108V51.6248C61.0918 52.3589 61.6866 52.9411 62.408 52.9411H68.1413" stroke="#35B6B4" stroke-width="3.82" stroke-linecap="round" stroke-linejoin="round"/>
<path d="M34.6275 23.7431L25.553 7.15076" stroke="#362C86" stroke-width="1.9" stroke-linecap="round" stroke-linejoin="round"/>
<path d="M40.171 20.0474L39.2598 14.1623" stroke="#362C86" stroke-width="1.9" stroke-linecap="round" stroke-linejoin="round"/>
<path d="M46.7396 68.5715L45.7397 62.1168" stroke="#362C86" stroke-width="1.9" stroke-linecap="round" stroke-linejoin="round"/>
<path d="M59.3706 72.5077L51.8401 58.7503" stroke="#362C86" stroke-width="1.9" stroke-linecap="round" stroke-linejoin="round"/>
</g>
<defs>
<clipPath id="clip0_433_4630">
<rect width="81" height="81" fill="white"/>
</clipPath>
</defs>
</svg>
